<svg width="576" height="365" viewBox="0 0 576 365" fill="none" xmlns="http://www.w3.org/2000/svg">
<g clip-path="url(#clip0_19_3)">
<rect width="576" height="365" fill="white"/>
<rect y="329" width="36" height="36" stroke="black" stroke-width="2"/>
<rect x="36" y="329" width="36" height="36" stroke="black" stroke-width="2"/>
<rect x="72" y="329" width="36" height="36" stroke="black" stroke-width="2"/>
<rect x="108" y="329" width="36" height="36" stroke="black" stroke-width="2"/>
<rect x="144" y="329" width="36" height="36" stroke="black" stroke-width="2"/>
<rect x="180" y="329" width="36" height="36" stroke="black" stroke-width="2"/>
<rect x="216" y="329" width="36" height="36" stroke="black" stroke-width="2"/>
<rect x="252" y="329" width="36" height="36" stroke="black" stroke-width="2"/>
<rect x="288" y="329" width="36" height="36" stroke="black" stroke-width="2"/>
<rect x="324" y="329" width="36" height="36" stroke="black" stroke-width="2"/>
<rect x="360" y="329" width="36" height="36" stroke="black" stroke-width="2"/>
<rect x="396" y="329" width="36" height="36" stroke="black" stroke-width="2"/>
<rect x="432" y="329" width="36" height="36" stroke="black" stroke-width="2"/>
<rect x="468" y="329" width="36" height="36" stroke="black" stroke-width="2"/>
<rect x="504" y="329" width="36" height="36" stroke="black" stroke-width="2"/>
<rect x="540" y="329" width="36" height="36" stroke="black" stroke-width="2"/>
<circle cx="36" cy="271" r="18" stroke="black" stroke-width="2"/>
<circle cx="108" cy="271" r="18" stroke="black" stroke-width="2"/>
<circle cx="180" cy="271" r="18" stroke="black" stroke-width="2"/>
<circle cx="252" cy="271" r="18" stroke="black" stroke-width="2"/>
<circle cx="72" cy="195" r="18" stroke="black" stroke-width="2"/>
<circle cx="216" cy="195" r="18" stroke="black" stroke-width="2"/>
<circle cx="360" cy="195" r="18" stroke="black" stroke-width="2"/>
<circle cx="432" cy="119" r="18" stroke="black" stroke-width="2"/>
<circle cx="288" cy="43" r="18" stroke="black" stroke-width="2"/>
<path d="M287.664 36.36C288.571 36.264 289.36 36.5253 290.032 37.144C290.32 37.4213 290.565 37.784 290.768 38.232C291.163 39.1173 291.36 40.3333 291.36 41.88C291.36 43.5227 291.131 44.7867 290.672 45.672C290.373 46.2907 289.936 46.7387 289.36 47.016C288.709 47.336 288.048 47.4267 287.376 47.288C286.853 47.192 286.384 46.952 285.968 46.568C285.723 46.344 285.504 46.0453 285.312 45.672C284.853 44.7653 284.624 43.5013 284.624 41.88C284.624 40.6533 284.741 39.6507 284.976 38.872C285.125 38.4133 285.312 38.0027 285.536 37.64C286.027 36.9253 286.699 36.504 287.552 36.376C287.584 36.3653 287.621 36.36 287.664 36.36ZM288.208 37.112C287.973 37.08 287.755 37.096 287.552 37.16C287.083 37.32 286.757 37.6347 286.576 38.104C286.555 38.1787 286.533 38.2587 286.512 38.344C286.405 38.8133 286.352 39.928 286.352 41.688C286.352 43.7573 286.416 45.0053 286.544 45.432C286.608 45.656 286.715 45.8533 286.864 46.024C287.163 46.408 287.541 46.6 288 46.6C288.448 46.6 288.821 46.408 289.12 46.024C289.269 45.8533 289.376 45.656 289.44 45.432C289.568 45.0053 289.632 43.7573 289.632 41.688C289.632 39.928 289.579 38.8133 289.472 38.344C289.365 37.832 289.077 37.464 288.608 37.24C288.48 37.176 288.347 37.1333 288.208 37.112Z" fill="black"/>
<path d="M432.384 112.408L432.432 112.344H432.624C432.741 112.344 432.816 112.36 432.848 112.392L432.912 112.44V117.208V121.976L432.96 122.008C432.971 122.019 433.008 122.035 433.072 122.056C433.2 122.088 433.627 122.104 434.352 122.104H434.88V122.552V123H434.688L433.312 122.968C432.512 122.957 431.712 122.957 430.912 122.968C429.973 122.989 429.509 123 429.52 123H429.328V122.552V122.104H429.856C430.603 122.104 431.04 122.088 431.168 122.056C431.232 122.035 431.269 122.019 431.28 122.008L431.328 121.976V117.96C431.328 115.283 431.323 113.944 431.312 113.944C430.757 114.157 430.139 114.264 429.456 114.264H429.248V113.816V113.368H429.456C430.395 113.368 431.195 113.176 431.856 112.792C432.123 112.621 432.299 112.493 432.384 112.408Z" fill="black"/>
<path d="M359.664 188.36C360.571 188.264 361.36 188.525 362.032 189.144C362.32 189.421 362.565 189.784 362.768 190.232C363.163 191.117 363.36 192.333 363.36 193.88C363.36 195.523 363.131 196.787 362.672 197.672C362.373 198.291 361.936 198.739 361.36 199.016C360.709 199.336 360.048 199.427 359.376 199.288C358.853 199.192 358.384 198.952 357.968 198.568C357.723 198.344 357.504 198.045 357.312 197.672C356.853 196.765 356.624 195.501 356.624 193.88C356.624 192.653 356.741 191.651 356.976 190.872C357.125 190.413 357.312 190.003 357.536 189.64C358.027 188.925 358.699 188.504 359.552 188.376C359.584 188.365 359.621 188.36 359.664 188.36ZM360.208 189.112C359.973 189.08 359.755 189.096 359.552 189.16C359.083 189.32 358.757 189.635 358.576 190.104C358.555 190.179 358.533 190.259 358.512 190.344C358.405 190.813 358.352 191.928 358.352 193.688C358.352 195.757 358.416 197.005 358.544 197.432C358.608 197.656 358.715 197.853 358.864 198.024C359.163 198.408 359.541 198.6 360 198.6C360.448 198.6 360.821 198.408 361.12 198.024C361.269 197.853 361.376 197.656 361.44 197.432C361.568 197.005 361.632 195.757 361.632 193.688C361.632 191.928 361.579 190.813 361.472 190.344C361.365 189.832 361.077 189.464 360.608 189.24C360.48 189.176 360.347 189.133 360.208 189.112Z" fill="black"/>
<path d="M215.384 188.408L215.432 188.344H215.624C215.741 188.344 215.816 188.36 215.848 188.392L215.912 188.44V193.208V197.976L215.96 198.008C215.971 198.019 216.008 198.035 216.072 198.056C216.2 198.088 216.627 198.104 217.352 198.104H217.88V198.552V199H217.688L216.312 198.968C215.512 198.957 214.712 198.957 213.912 198.968C212.973 198.989 212.509 199 212.52 199H212.328V198.552V198.104H212.856C213.603 198.104 214.04 198.088 214.168 198.056C214.232 198.035 214.269 198.019 214.28 198.008L214.328 197.976V193.96C214.328 191.283 214.323 189.944 214.312 189.944C213.757 190.157 213.139 190.264 212.456 190.264H212.248V189.816V189.368H212.456C213.395 189.368 214.195 189.176 214.856 188.792C215.123 188.621 215.299 188.493 215.384 188.408Z" fill="black"/>
<path d="M71.384 188.408L71.432 188.344H71.624C71.7413 188.344 71.816 188.36 71.848 188.392L71.912 188.44V193.208V197.976L71.96 198.008C71.9707 198.019 72.008 198.035 72.072 198.056C72.2 198.088 72.6267 198.104 73.352 198.104H73.88V198.552V199H73.688L72.312 198.968C71.512 198.957 70.712 198.957 69.912 198.968C68.9733 198.989 68.5093 199 68.52 199H68.328V198.552V198.104H68.856C69.6027 198.104 70.04 198.088 70.168 198.056C70.232 198.035 70.2693 198.019 70.28 198.008L70.328 197.976V193.96C70.328 191.283 70.3227 189.944 70.312 189.944C69.7573 190.157 69.1387 190.264 68.456 190.264H68.248V189.816V189.368H68.456C69.3947 189.368 70.1947 189.176 70.856 188.792C71.1227 188.621 71.2987 188.493 71.384 188.408Z" fill="black"/>
<path d="M36.384 264.408L36.432 264.344H36.624C36.7413 264.344 36.816 264.36 36.848 264.392L36.912 264.44V269.208V273.976L36.96 274.008C36.9707 274.019 37.008 274.035 37.072 274.056C37.2 274.088 37.6267 274.104 38.352 274.104H38.88V274.552V275H38.688L37.312 274.968C36.512 274.957 35.712 274.957 34.912 274.968C33.9733 274.989 33.5093 275 33.52 275H33.328V274.552V274.104H33.856C34.6027 274.104 35.04 274.088 35.168 274.056C35.232 274.035 35.2693 274.019 35.28 274.008L35.328 273.976V269.96C35.328 267.283 35.3227 265.944 35.312 265.944C34.7573 266.157 34.1387 266.264 33.456 266.264H33.248V265.816V265.368H33.456C34.3947 265.368 35.1947 265.176 35.856 264.792C36.1227 264.621 36.2987 264.493 36.384 264.408Z" fill="black"/>
<path d="M107.664 264.36C108.571 264.264 109.36 264.525 110.032 265.144C110.32 265.421 110.565 265.784 110.768 266.232C111.163 267.117 111.36 268.333 111.36 269.88C111.36 271.523 111.131 272.787 110.672 273.672C110.373 274.291 109.936 274.739 109.36 275.016C108.709 275.336 108.048 275.427 107.376 275.288C106.853 275.192 106.384 274.952 105.968 274.568C105.723 274.344 105.504 274.045 105.312 273.672C104.853 272.765 104.624 271.501 104.624 269.88C104.624 268.653 104.741 267.651 104.976 266.872C105.125 266.413 105.312 266.003 105.536 265.64C106.027 264.925 106.699 264.504 107.552 264.376C107.584 264.365 107.621 264.36 107.664 264.36ZM108.208 265.112C107.973 265.08 107.755 265.096 107.552 265.16C107.083 265.32 106.757 265.635 106.576 266.104C106.555 266.179 106.533 266.259 106.512 266.344C106.405 266.813 106.352 267.928 106.352 269.688C106.352 271.757 106.416 273.005 106.544 273.432C106.608 273.656 106.715 273.853 106.864 274.024C107.163 274.408 107.541 274.6 108 274.6C108.448 274.6 108.821 274.408 109.12 274.024C109.269 273.853 109.376 273.656 109.44 273.432C109.568 273.005 109.632 271.757 109.632 269.688C109.632 267.928 109.579 266.813 109.472 266.344C109.365 265.832 109.077 265.464 108.608 265.24C108.48 265.176 108.347 265.133 108.208 265.112Z" fill="black"/>
<path d="M179.664 264.36C180.571 264.264 181.36 264.525 182.032 265.144C182.32 265.421 182.565 265.784 182.768 266.232C183.163 267.117 183.36 268.333 183.36 269.88C183.36 271.523 183.131 272.787 182.672 273.672C182.373 274.291 181.936 274.739 181.36 275.016C180.709 275.336 180.048 275.427 179.376 275.288C178.853 275.192 178.384 274.952 177.968 274.568C177.723 274.344 177.504 274.045 177.312 273.672C176.853 272.765 176.624 271.501 176.624 269.88C176.624 268.653 176.741 267.651 176.976 266.872C177.125 266.413 177.312 266.003 177.536 265.64C178.027 264.925 178.699 264.504 179.552 264.376C179.584 264.365 179.621 264.36 179.664 264.36ZM180.208 265.112C179.973 265.08 179.755 265.096 179.552 265.16C179.083 265.32 178.757 265.635 178.576 266.104C178.555 266.179 178.533 266.259 178.512 266.344C178.405 266.813 178.352 267.928 178.352 269.688C178.352 271.757 178.416 273.005 178.544 273.432C178.608 273.656 178.715 273.853 178.864 274.024C179.163 274.408 179.541 274.6 180 274.6C180.448 274.6 180.821 274.408 181.12 274.024C181.269 273.853 181.376 273.656 181.44 273.432C181.568 273.005 181.632 271.757 181.632 269.688C181.632 267.928 181.579 266.813 181.472 266.344C181.365 265.832 181.077 265.464 180.608 265.24C180.48 265.176 180.347 265.133 180.208 265.112Z" fill="black"/>
<path d="M252.384 264.408L252.432 264.344H252.624C252.741 264.344 252.816 264.36 252.848 264.392L252.912 264.44V269.208V273.976L252.96 274.008C252.971 274.019 253.008 274.035 253.072 274.056C253.2 274.088 253.627 274.104 254.352 274.104H254.88V274.552V275H254.688L253.312 274.968C252.512 274.957 251.712 274.957 250.912 274.968C249.973 274.989 249.509 275 249.52 275H249.328V274.552V274.104H249.856C250.603 274.104 251.04 274.088 251.168 274.056C251.232 274.035 251.269 274.019 251.28 274.008L251.328 273.976V269.96C251.328 267.283 251.323 265.944 251.312 265.944C250.757 266.157 250.139 266.264 249.456 266.264H249.248V265.816V265.368H249.456C250.395 265.368 251.195 265.176 251.856 264.792C252.123 264.621 252.299 264.493 252.384 264.408Z" fill="black"/>
<path d="M324.384 264.408L324.432 264.344H324.624C324.741 264.344 324.816 264.36 324.848 264.392L324.912 264.44V269.208V273.976L324.96 274.008C324.971 274.019 325.008 274.035 325.072 274.056C325.2 274.088 325.627 274.104 326.352 274.104H326.88V274.552V275H326.688L325.312 274.968C324.512 274.957 323.712 274.957 322.912 274.968C321.973 274.989 321.509 275 321.52 275H321.328V274.552V274.104H321.856C322.603 274.104 323.04 274.088 323.168 274.056C323.232 274.035 323.269 274.019 323.28 274.008L323.328 273.976V269.96C323.328 267.283 323.323 265.944 323.312 265.944C322.757 266.157 322.139 266.264 321.456 266.264H321.248V265.816V265.368H321.456C322.395 265.368 323.195 265.176 323.856 264.792C324.123 264.621 324.299 264.493 324.384 264.408Z" fill="black"/>
<path d="M395.664 264.36C396.571 264.264 397.36 264.525 398.032 265.144C398.32 265.421 398.565 265.784 398.768 266.232C399.163 267.117 399.36 268.333 399.36 269.88C399.36 271.523 399.131 272.787 398.672 273.672C398.373 274.291 397.936 274.739 397.36 275.016C396.709 275.336 396.048 275.427 395.376 275.288C394.853 275.192 394.384 274.952 393.968 274.568C393.723 274.344 393.504 274.045 393.312 273.672C392.853 272.765 392.624 271.501 392.624 269.88C392.624 268.653 392.741 267.651 392.976 266.872C393.125 266.413 393.312 266.003 393.536 265.64C394.027 264.925 394.699 264.504 395.552 264.376C395.584 264.365 395.621 264.36 395.664 264.36ZM396.208 265.112C395.973 265.08 395.755 265.096 395.552 265.16C395.083 265.32 394.757 265.635 394.576 266.104C394.555 266.179 394.533 266.259 394.512 266.344C394.405 266.813 394.352 267.928 394.352 269.688C394.352 271.757 394.416 273.005 394.544 273.432C394.608 273.656 394.715 273.853 394.864 274.024C395.163 274.408 395.541 274.6 396 274.6C396.448 274.6 396.821 274.408 397.12 274.024C397.269 273.853 397.376 273.656 397.44 273.432C397.568 273.005 397.632 271.757 397.632 269.688C397.632 267.928 397.579 266.813 397.472 266.344C397.365 265.832 397.077 265.464 396.608 265.24C396.48 265.176 396.347 265.133 396.208 265.112Z" fill="black"/>
<path d="M504.384 188.408L504.432 188.344H504.624C504.741 188.344 504.816 188.36 504.848 188.392L504.912 188.44V193.208V197.976L504.96 198.008C504.971 198.019 505.008 198.035 505.072 198.056C505.2 198.088 505.627 198.104 506.352 198.104H506.88V198.552V199H506.688L505.312 198.968C504.512 198.957 503.712 198.957 502.912 198.968C501.973 198.989 501.509 199 501.52 199H501.328V198.552V198.104H501.856C502.603 198.104 503.04 198.088 503.168 198.056C503.232 198.035 503.269 198.019 503.28 198.008L503.328 197.976V193.96C503.328 191.283 503.323 189.944 503.312 189.944C502.757 190.157 502.139 190.264 501.456 190.264H501.248V189.816V189.368H501.456C502.395 189.368 503.195 189.176 503.856 188.792C504.123 188.621 504.299 188.493 504.384 188.408Z" fill="black"/>
<path d="M468.384 264.408L468.432 264.344H468.624C468.741 264.344 468.816 264.36 468.848 264.392L468.912 264.44V269.208V273.976L468.96 274.008C468.971 274.019 469.008 274.035 469.072 274.056C469.2 274.088 469.627 274.104 470.352 274.104H470.88V274.552V275H470.688L469.312 274.968C468.512 274.957 467.712 274.957 466.912 274.968C465.973 274.989 465.509 275 465.52 275H465.328V274.552V274.104H465.856C466.603 274.104 467.04 274.088 467.168 274.056C467.232 274.035 467.269 274.019 467.28 274.008L467.328 273.976V269.96C467.328 267.283 467.323 265.944 467.312 265.944C466.757 266.157 466.139 266.264 465.456 266.264H465.248V265.816V265.368H465.456C466.395 265.368 467.195 265.176 467.856 264.792C468.123 264.621 468.299 264.493 468.384 264.408Z" fill="black"/>
<path d="M539.664 264.36C540.571 264.264 541.36 264.525 542.032 265.144C542.32 265.421 542.565 265.784 542.768 266.232C543.163 267.117 543.36 268.333 543.36 269.88C543.36 271.523 543.131 272.787 542.672 273.672C542.373 274.291 541.936 274.739 541.36 275.016C540.709 275.336 540.048 275.427 539.376 275.288C538.853 275.192 538.384 274.952 537.968 274.568C537.723 274.344 537.504 274.045 537.312 273.672C536.853 272.765 536.624 271.501 536.624 269.88C536.624 268.653 536.741 267.651 536.976 266.872C537.125 266.413 537.312 266.003 537.536 265.64C538.027 264.925 538.699 264.504 539.552 264.376C539.584 264.365 539.621 264.36 539.664 264.36ZM540.208 265.112C539.973 265.08 539.755 265.096 539.552 265.16C539.083 265.32 538.757 265.635 538.576 266.104C538.555 266.179 538.533 266.259 538.512 266.344C538.405 266.813 538.352 267.928 538.352 269.688C538.352 271.757 538.416 273.005 538.544 273.432C538.608 273.656 538.715 273.853 538.864 274.024C539.163 274.408 539.541 274.6 540 274.6C540.448 274.6 540.821 274.408 541.12 274.024C541.269 273.853 541.376 273.656 541.44 273.432C541.568 273.005 541.632 271.757 541.632 269.688C541.632 267.928 541.579 266.813 541.472 266.344C541.365 265.832 541.077 265.464 540.608 265.24C540.48 265.176 540.347 265.133 540.208 265.112Z" fill="black"/>
<circle cx="504" cy="195" r="18" stroke="black" stroke-width="2"/>
<circle cx="324" cy="271" r="18" stroke="black" stroke-width="2"/>
<circle cx="396" cy="271" r="18" stroke="black" stroke-width="2"/>
<circle cx="468" cy="271" r="18" stroke="black" stroke-width="2"/>
<circle cx="540" cy="271" r="18" stroke="black" stroke-width="2"/>
<path d="M62.8992 213.437L63.3367 212.538L61.5382 211.663L61.1008 212.563L62.8992 213.437ZM43.0548 250.327C43.2351 250.849 43.8045 251.126 44.3265 250.945L52.8332 248.007C53.3552 247.826 53.6322 247.257 53.4519 246.735C53.2716 246.213 52.7022 245.936 52.1802 246.116L44.6187 248.728L42.0065 241.167C41.8262 240.645 41.2568 240.368 40.7348 240.548C40.2128 240.728 39.9358 241.298 40.1161 241.82L43.0548 250.327ZM61.1008 212.563L60.2008 214.413L61.9992 215.287L62.8992 213.437L61.1008 212.563ZM58.4008 218.113L56.6008 221.813L58.3992 222.687L60.1992 218.987L58.4008 218.113ZM54.8008 225.513L53.0008 229.213L54.7992 230.087L56.5992 226.387L54.8008 225.513ZM51.2008 232.913L49.4008 236.613L51.1992 237.487L52.9992 233.787L51.2008 232.913ZM47.6008 240.313L45.8008 244.013L47.5992 244.887L49.3992 241.187L47.6008 240.313ZM44.0008 247.713L43.1008 249.563L44.8992 250.437L45.7992 248.587L44.0008 247.713ZM62.8992 213.437L63.3367 212.538L61.5382 211.663L61.1008 212.563L62.8992 213.437ZM43.0548 250.327C43.2351 250.849 43.8045 251.126 44.3265 250.945L52.8332 248.007C53.3552 247.826 53.6322 247.257 53.4519 246.735C53.2716 246.213 52.7022 245.936 52.1802 246.116L44.6187 248.728L42.0065 241.167C41.8262 240.645 41.2568 240.368 40.7348 240.548C40.2128 240.728 39.9358 241.298 40.1161 241.82L43.0548 250.327ZM61.1008 212.563L60.2008 214.413L61.9992 215.287L62.8992 213.437L61.1008 212.563ZM58.4008 218.113L56.6008 221.813L58.3992 222.687L60.1992 218.987L58.4008 218.113ZM54.8008 225.513L53.0008 229.213L54.7992 230.087L56.5992 226.387L54.8008 225.513ZM51.2008 232.913L49.4008 236.613L51.1992 237.487L52.9992 233.787L51.2008 232.913ZM47.6008 240.313L45.8008 244.013L47.5992 244.887L49.3992 241.187L47.6008 240.313ZM44.0008 247.713L43.1008 249.563L44.8992 250.437L45.7992 248.587L44.0008 247.713Z" fill="black"/>
<path d="M30.9512 289.309L31.2597 288.357L29.3573 287.74L29.0488 288.691L30.9512 289.309ZM17.1092 326.454C17.3602 326.946 17.9625 327.142 18.4545 326.891L26.4713 322.801C26.9633 322.55 27.1586 321.947 26.9076 321.455C26.6566 320.963 26.0543 320.768 25.5624 321.019L18.4363 324.655L14.8005 317.529C14.5495 317.037 13.9473 316.841 13.4553 317.092C12.9633 317.343 12.768 317.946 13.019 318.438L17.1092 326.454ZM29.0488 288.691L28.4488 290.541L30.3512 291.159L30.9512 289.309L29.0488 288.691ZM27.2488 294.241L26.0488 297.941L27.9512 298.559L29.1512 294.859L27.2488 294.241ZM24.8488 301.641L23.6488 305.341L25.5512 305.959L26.7512 302.259L24.8488 301.641ZM22.4488 309.041L21.2488 312.741L23.1512 313.359L24.3512 309.659L22.4488 309.041ZM20.0488 316.441L18.8488 320.141L20.7512 320.759L21.9512 317.059L20.0488 316.441ZM17.6488 323.841L17.0488 325.691L18.9512 326.309L19.5512 324.459L17.6488 323.841ZM30.9512 289.309L31.2597 288.357L29.3573 287.74L29.0488 288.691L30.9512 289.309ZM17.1092 326.454C17.3602 326.946 17.9625 327.142 18.4545 326.891L26.4713 322.801C26.9633 322.55 27.1586 321.947 26.9076 321.455C26.6566 320.963 26.0543 320.768 25.5624 321.019L18.4363 324.655L14.8005 317.529C14.5495 317.037 13.9473 316.841 13.4553 317.092C12.9633 317.343 12.768 317.946 13.019 318.438L17.1092 326.454ZM29.0488 288.691L28.4488 290.541L30.3512 291.159L30.9512 289.309L29.0488 288.691ZM27.2488 294.241L26.0488 297.941L27.9512 298.559L29.1512 294.859L27.2488 294.241ZM24.8488 301.641L23.6488 305.341L25.5512 305.959L26.7512 302.259L24.8488 301.641ZM22.4488 309.041L21.2488 312.741L23.1512 313.359L24.3512 309.659L22.4488 309.041ZM20.0488 316.441L18.8488 320.141L20.7512 320.759L21.9512 317.059L20.0488 316.441ZM17.6488 323.841L17.0488 325.691L18.9512 326.309L19.5512 324.459L17.6488 323.841Z" fill="black"/>
<path d="M42.9512 288.691L42.6427 287.74L40.7403 288.357L41.0488 289.309L42.9512 288.691ZM53.5455 326.891C54.0375 327.142 54.6398 326.946 54.8908 326.454L58.981 318.438C59.232 317.946 59.0367 317.343 58.5447 317.092C58.0527 316.841 57.4505 317.037 57.1995 317.529L53.5637 324.655L46.4376 321.019C45.9457 320.768 45.3434 320.963 45.0924 321.455C44.8414 321.947 45.0367 322.55 45.5287 322.801L53.5455 326.891ZM41.0488 289.309L53.0488 326.309L54.9512 325.691L42.9512 288.691L41.0488 289.309Z" fill="black"/>
<path d="M102.951 289.309L103.26 288.357L101.357 287.74L101.049 288.691L102.951 289.309ZM89.1092 326.454C89.3602 326.946 89.9625 327.142 90.4545 326.891L98.4713 322.801C98.9633 322.55 99.1586 321.947 98.9076 321.455C98.6566 320.963 98.0543 320.768 97.5624 321.019L90.4363 324.655L86.8005 317.529C86.5495 317.037 85.9473 316.841 85.4553 317.092C84.9633 317.343 84.768 317.946 85.019 318.438L89.1092 326.454ZM101.049 288.691L89.0488 325.691L90.9512 326.309L102.951 289.309L101.049 288.691Z" fill="black"/>
<path d="M114.951 288.691L114.643 287.74L112.74 288.357L113.049 289.309L114.951 288.691ZM125.546 326.891C126.037 327.142 126.64 326.946 126.891 326.454L130.981 318.438C131.232 317.946 131.037 317.343 130.545 317.092C130.053 316.841 129.45 317.037 129.199 317.529L125.564 324.655L118.438 321.019C117.946 320.768 117.343 320.963 117.092 321.455C116.841 321.947 117.037 322.55 117.529 322.801L125.546 326.891ZM113.049 289.309L113.649 291.159L115.551 290.541L114.951 288.691L113.049 289.309ZM114.849 294.859L116.049 298.559L117.951 297.941L116.751 294.241L114.849 294.859ZM117.249 302.259L118.449 305.959L120.351 305.341L119.151 301.641L117.249 302.259ZM119.649 309.659L120.849 313.359L122.751 312.741L121.551 309.041L119.649 309.659ZM122.049 317.059L123.249 320.759L125.151 320.141L123.951 316.441L122.049 317.059ZM124.449 324.459L125.049 326.309L126.951 325.691L126.351 323.841L124.449 324.459ZM114.951 288.691L114.643 287.74L112.74 288.357L113.049 289.309L114.951 288.691ZM125.546 326.891C126.037 327.142 126.64 326.946 126.891 326.454L130.981 318.438C131.232 317.946 131.037 317.343 130.545 317.092C130.053 316.841 129.45 317.037 129.199 317.529L125.564 324.655L118.438 321.019C117.946 320.768 117.343 320.963 117.092 321.455C116.841 321.947 117.037 322.55 117.529 322.801L125.546 326.891ZM113.049 289.309L113.649 291.159L115.551 290.541L114.951 288.691L113.049 289.309ZM114.849 294.859L116.049 298.559L117.951 297.941L116.751 294.241L114.849 294.859ZM117.249 302.259L118.449 305.959L120.351 305.341L119.151 301.641L117.249 302.259ZM119.649 309.659L120.849 313.359L122.751 312.741L121.551 309.041L119.649 309.659ZM122.049 317.059L123.249 320.759L125.151 320.141L123.951 316.441L122.049 317.059ZM124.449 324.459L125.049 326.309L126.951 325.691L126.351 323.841L124.449 324.459Z" fill="black"/>
<path d="M174.951 289.309L175.26 288.357L173.357 287.74L173.049 288.691L174.951 289.309ZM161.109 326.454C161.36 326.946 161.963 327.142 162.454 326.891L170.471 322.801C170.963 322.55 171.159 321.947 170.908 321.455C170.657 320.963 170.054 320.768 169.562 321.019L162.436 324.655L158.801 317.529C158.55 317.037 157.947 316.841 157.455 317.092C156.963 317.343 156.768 317.946 157.019 318.438L161.109 326.454ZM173.049 288.691L161.049 325.691L162.951 326.309L174.951 289.309L173.049 288.691Z" fill="black"/>
<path d="M186.951 288.691L186.643 287.74L184.74 288.357L185.049 289.309L186.951 288.691ZM197.546 326.891C198.037 327.142 198.64 326.946 198.891 326.454L202.981 318.438C203.232 317.946 203.037 317.343 202.545 317.092C202.053 316.841 201.45 317.037 201.199 317.529L197.564 324.655L190.438 321.019C189.946 320.768 189.343 320.963 189.092 321.455C188.841 321.947 189.037 322.55 189.529 322.801L197.546 326.891ZM185.049 289.309L185.649 291.159L187.551 290.541L186.951 288.691L185.049 289.309ZM186.849 294.859L188.049 298.559L189.951 297.941L188.751 294.241L186.849 294.859ZM189.249 302.259L190.449 305.959L192.351 305.341L191.151 301.641L189.249 302.259ZM191.649 309.659L192.849 313.359L194.751 312.741L193.551 309.041L191.649 309.659ZM194.049 317.059L195.249 320.759L197.151 320.141L195.951 316.441L194.049 317.059ZM196.449 324.459L197.049 326.309L198.951 325.691L198.351 323.841L196.449 324.459ZM186.951 288.691L186.643 287.74L184.74 288.357L185.049 289.309L186.951 288.691ZM197.546 326.891C198.037 327.142 198.64 326.946 198.891 326.454L202.981 318.438C203.232 317.946 203.037 317.343 202.545 317.092C202.053 316.841 201.45 317.037 201.199 317.529L197.564 324.655L190.438 321.019C189.946 320.768 189.343 320.963 189.092 321.455C188.841 321.947 189.037 322.55 189.529 322.801L197.546 326.891ZM185.049 289.309L185.649 291.159L187.551 290.541L186.951 288.691L185.049 289.309ZM186.849 294.859L188.049 298.559L189.951 297.941L188.751 294.241L186.849 294.859ZM189.249 302.259L190.449 305.959L192.351 305.341L191.151 301.641L189.249 302.259ZM191.649 309.659L192.849 313.359L194.751 312.741L193.551 309.041L191.649 309.659ZM194.049 317.059L195.249 320.759L197.151 320.141L195.951 316.441L194.049 317.059ZM196.449 324.459L197.049 326.309L198.951 325.691L198.351 323.841L196.449 324.459Z" fill="black"/>
<path d="M246.951 289.309L247.26 288.357L245.357 287.74L245.049 288.691L246.951 289.309ZM233.109 326.454C233.36 326.946 233.963 327.142 234.454 326.891L242.471 322.801C242.963 322.55 243.159 321.947 242.908 321.455C242.657 320.963 242.054 320.768 241.562 321.019L234.436 324.655L230.801 317.529C230.55 317.037 229.947 316.841 229.455 317.092C228.963 317.343 228.768 317.946 229.019 318.438L233.109 326.454ZM245.049 288.691L244.449 290.541L246.351 291.159L246.951 289.309L245.049 288.691ZM243.249 294.241L242.049 297.941L243.951 298.559L245.151 294.859L243.249 294.241ZM240.849 301.641L239.649 305.341L241.551 305.959L242.751 302.259L240.849 301.641ZM238.449 309.041L237.249 312.741L239.151 313.359L240.351 309.659L238.449 309.041ZM236.049 316.441L234.849 320.141L236.751 320.759L237.951 317.059L236.049 316.441ZM233.649 323.841L233.049 325.691L234.951 326.309L235.551 324.459L233.649 323.841ZM246.951 289.309L247.26 288.357L245.357 287.74L245.049 288.691L246.951 289.309ZM233.109 326.454C233.36 326.946 233.963 327.142 234.454 326.891L242.471 322.801C242.963 322.55 243.159 321.947 242.908 321.455C242.657 320.963 242.054 320.768 241.562 321.019L234.436 324.655L230.801 317.529C230.55 317.037 229.947 316.841 229.455 317.092C228.963 317.343 228.768 317.946 229.019 318.438L233.109 326.454ZM245.049 288.691L244.449 290.541L246.351 291.159L246.951 289.309L245.049 288.691ZM243.249 294.241L242.049 297.941L243.951 298.559L245.151 294.859L243.249 294.241ZM240.849 301.641L239.649 305.341L241.551 305.959L242.751 302.259L240.849 301.641ZM238.449 309.041L237.249 312.741L239.151 313.359L240.351 309.659L238.449 309.041ZM236.049 316.441L234.849 320.141L236.751 320.759L237.951 317.059L236.049 316.441ZM233.649 323.841L233.049 325.691L234.951 326.309L235.551 324.459L233.649 323.841Z" fill="black"/>
<path d="M258.951 288.691L258.643 287.74L256.74 288.357L257.049 289.309L258.951 288.691ZM269.546 326.891C270.037 327.142 270.64 326.946 270.891 326.454L274.981 318.438C275.232 317.946 275.037 317.343 274.545 317.092C274.053 316.841 273.45 317.037 273.199 317.529L269.564 324.655L262.438 321.019C261.946 320.768 261.343 320.963 261.092 321.455C260.841 321.947 261.037 322.55 261.529 322.801L269.546 326.891ZM257.049 289.309L269.049 326.309L270.951 325.691L258.951 288.691L257.049 289.309Z" fill="black"/>
<path d="M318.951 289.309L319.26 288.357L317.357 287.74L317.049 288.691L318.951 289.309ZM305.109 326.454C305.36 326.946 305.963 327.142 306.454 326.891L314.471 322.801C314.963 322.55 315.159 321.947 314.908 321.455C314.657 320.963 314.054 320.768 313.562 321.019L306.436 324.655L302.801 317.529C302.55 317.037 301.947 316.841 301.455 317.092C300.963 317.343 300.768 317.946 301.019 318.438L305.109 326.454ZM317.049 288.691L316.449 290.541L318.351 291.159L318.951 289.309L317.049 288.691ZM315.249 294.241L314.049 297.941L315.951 298.559L317.151 294.859L315.249 294.241ZM312.849 301.641L311.649 305.341L313.551 305.959L314.751 302.259L312.849 301.641ZM310.449 309.041L309.249 312.741L311.151 313.359L312.351 309.659L310.449 309.041ZM308.049 316.441L306.849 320.141L308.751 320.759L309.951 317.059L308.049 316.441ZM305.649 323.841L305.049 325.691L306.951 326.309L307.551 324.459L305.649 323.841ZM318.951 289.309L319.26 288.357L317.357 287.74L317.049 288.691L318.951 289.309ZM305.109 326.454C305.36 326.946 305.963 327.142 306.454 326.891L314.471 322.801C314.963 322.55 315.159 321.947 314.908 321.455C314.657 320.963 314.054 320.768 313.562 321.019L306.436 324.655L302.801 317.529C302.55 317.037 301.947 316.841 301.455 317.092C300.963 317.343 300.768 317.946 301.019 318.438L305.109 326.454ZM317.049 288.691L316.449 290.541L318.351 291.159L318.951 289.309L317.049 288.691ZM315.249 294.241L314.049 297.941L315.951 298.559L317.151 294.859L315.249 294.241ZM312.849 301.641L311.649 305.341L313.551 305.959L314.751 302.259L312.849 301.641ZM310.449 309.041L309.249 312.741L311.151 313.359L312.351 309.659L310.449 309.041ZM308.049 316.441L306.849 320.141L308.751 320.759L309.951 317.059L308.049 316.441ZM305.649 323.841L305.049 325.691L306.951 326.309L307.551 324.459L305.649 323.841Z" fill="black"/>
<path d="M330.951 288.691L330.643 287.74L328.74 288.357L329.049 289.309L330.951 288.691ZM341.546 326.891C342.037 327.142 342.64 326.946 342.891 326.454L346.981 318.438C347.232 317.946 347.037 317.343 346.545 317.092C346.053 316.841 345.45 317.037 345.199 317.529L341.564 324.655L334.438 321.019C333.946 320.768 333.343 320.963 333.092 321.455C332.841 321.947 333.037 322.55 333.529 322.801L341.546 326.891ZM329.049 289.309L341.049 326.309L342.951 325.691L330.951 288.691L329.049 289.309Z" fill="black"/>
<path d="M390.951 289.309L391.26 288.357L389.357 287.74L389.049 288.691L390.951 289.309ZM377.109 326.454C377.36 326.946 377.963 327.142 378.454 326.891L386.471 322.801C386.963 322.55 387.159 321.947 386.908 321.455C386.657 320.963 386.054 320.768 385.562 321.019L378.436 324.655L374.801 317.529C374.55 317.037 373.947 316.841 373.455 317.092C372.963 317.343 372.768 317.946 373.019 318.438L377.109 326.454ZM389.049 288.691L377.049 325.691L378.951 326.309L390.951 289.309L389.049 288.691Z" fill="black"/>
<path d="M402.951 288.691L402.643 287.74L400.74 288.357L401.049 289.309L402.951 288.691ZM413.546 326.891C414.037 327.142 414.64 326.946 414.891 326.454L418.981 318.438C419.232 317.946 419.037 317.343 418.545 317.092C418.053 316.841 417.45 317.037 417.199 317.529L413.564 324.655L406.438 321.019C405.946 320.768 405.343 320.963 405.092 321.455C404.841 321.947 405.037 322.55 405.529 322.801L413.546 326.891ZM401.049 289.309L401.649 291.159L403.551 290.541L402.951 288.691L401.049 289.309ZM402.849 294.859L404.049 298.559L405.951 297.941L404.751 294.241L402.849 294.859ZM405.249 302.259L406.449 305.959L408.351 305.341L407.151 301.641L405.249 302.259ZM407.649 309.659L408.849 313.359L410.751 312.741L409.551 309.041L407.649 309.659ZM410.049 317.059L411.249 320.759L413.151 320.141L411.951 316.441L410.049 317.059ZM412.449 324.459L413.049 326.309L414.951 325.691L414.351 323.841L412.449 324.459ZM402.951 288.691L402.643 287.74L400.74 288.357L401.049 289.309L402.951 288.691ZM413.546 326.891C414.037 327.142 414.64 326.946 414.891 326.454L418.981 318.438C419.232 317.946 419.037 317.343 418.545 317.092C418.053 316.841 417.45 317.037 417.199 317.529L413.564 324.655L406.438 321.019C405.946 320.768 405.343 320.963 405.092 321.455C404.841 321.947 405.037 322.55 405.529 322.801L413.546 326.891ZM401.049 289.309L401.649 291.159L403.551 290.541L402.951 288.691L401.049 289.309ZM402.849 294.859L404.049 298.559L405.951 297.941L404.751 294.241L402.849 294.859ZM405.249 302.259L406.449 305.959L408.351 305.341L407.151 301.641L405.249 302.259ZM407.649 309.659L408.849 313.359L410.751 312.741L409.551 309.041L407.649 309.659ZM410.049 317.059L411.249 320.759L413.151 320.141L411.951 316.441L410.049 317.059ZM412.449 324.459L413.049 326.309L414.951 325.691L414.351 323.841L412.449 324.459Z" fill="black"/>
<path d="M462.951 289.309L463.26 288.357L461.357 287.74L461.049 288.691L462.951 289.309ZM449.109 326.454C449.36 326.946 449.963 327.142 450.454 326.891L458.471 322.801C458.963 322.55 459.159 321.947 458.908 321.455C458.657 320.963 458.054 320.768 457.562 321.019L450.436 324.655L446.801 317.529C446.55 317.037 445.947 316.841 445.455 317.092C444.963 317.343 444.768 317.946 445.019 318.438L449.109 326.454ZM461.049 288.691L460.449 290.541L462.351 291.159L462.951 289.309L461.049 288.691ZM459.249 294.241L458.049 297.941L459.951 298.559L461.151 294.859L459.249 294.241ZM456.849 301.641L455.649 305.341L457.551 305.959L458.751 302.259L456.849 301.641ZM454.449 309.041L453.249 312.741L455.151 313.359L456.351 309.659L454.449 309.041ZM452.049 316.441L450.849 320.141L452.751 320.759L453.951 317.059L452.049 316.441ZM449.649 323.841L449.049 325.691L450.951 326.309L451.551 324.459L449.649 323.841ZM462.951 289.309L463.26 288.357L461.357 287.74L461.049 288.691L462.951 289.309ZM449.109 326.454C449.36 326.946 449.963 327.142 450.454 326.891L458.471 322.801C458.963 322.55 459.159 321.947 458.908 321.455C458.657 320.963 458.054 320.768 457.562 321.019L450.436 324.655L446.801 317.529C446.55 317.037 445.947 316.841 445.455 317.092C444.963 317.343 444.768 317.946 445.019 318.438L449.109 326.454ZM461.049 288.691L460.449 290.541L462.351 291.159L462.951 289.309L461.049 288.691ZM459.249 294.241L458.049 297.941L459.951 298.559L461.151 294.859L459.249 294.241ZM456.849 301.641L455.649 305.341L457.551 305.959L458.751 302.259L456.849 301.641ZM454.449 309.041L453.249 312.741L455.151 313.359L456.351 309.659L454.449 309.041ZM452.049 316.441L450.849 320.141L452.751 320.759L453.951 317.059L452.049 316.441ZM449.649 323.841L449.049 325.691L450.951 326.309L451.551 324.459L449.649 323.841Z" fill="black"/>
<path d="M474.951 288.691L474.643 287.74L472.74 288.357L473.049 289.309L474.951 288.691ZM485.546 326.891C486.037 327.142 486.64 326.946 486.891 326.454L490.981 318.438C491.232 317.946 491.037 317.343 490.545 317.092C490.053 316.841 489.45 317.037 489.199 317.529L485.564 324.655L478.438 321.019C477.946 320.768 477.343 320.963 477.092 321.455C476.841 321.947 477.037 322.55 477.529 322.801L485.546 326.891ZM473.049 289.309L485.049 326.309L486.951 325.691L474.951 288.691L473.049 289.309Z" fill="black"/>
<path d="M534.951 289.309L535.26 288.357L533.357 287.74L533.049 288.691L534.951 289.309ZM521.109 326.454C521.36 326.946 521.963 327.142 522.454 326.891L530.471 322.801C530.963 322.55 531.159 321.947 530.908 321.455C530.657 320.963 530.054 320.768 529.562 321.019L522.436 324.655L518.801 317.529C518.55 317.037 517.947 316.841 517.455 317.092C516.963 317.343 516.768 317.946 517.019 318.438L521.109 326.454ZM533.049 288.691L521.049 325.691L522.951 326.309L534.951 289.309L533.049 288.691Z" fill="black"/>
<path d="M546.951 288.691L546.643 287.74L544.74 288.357L545.049 289.309L546.951 288.691ZM557.546 326.891C558.037 327.142 558.64 326.946 558.891 326.454L562.981 318.438C563.232 317.946 563.037 317.343 562.545 317.092C562.053 316.841 561.45 317.037 561.199 317.529L557.564 324.655L550.438 321.019C549.946 320.768 549.343 320.963 549.092 321.455C548.841 321.947 549.037 322.55 549.529 322.801L557.546 326.891ZM545.049 289.309L545.649 291.159L547.551 290.541L546.951 288.691L545.049 289.309ZM546.849 294.859L548.049 298.559L549.951 297.941L548.751 294.241L546.849 294.859ZM549.249 302.259L550.449 305.959L552.351 305.341L551.151 301.641L549.249 302.259ZM551.649 309.659L552.849 313.359L554.751 312.741L553.551 309.041L551.649 309.659ZM554.049 317.059L555.249 320.759L557.151 320.141L555.951 316.441L554.049 317.059ZM556.449 324.459L557.049 326.309L558.951 325.691L558.351 323.841L556.449 324.459ZM546.951 288.691L546.643 287.74L544.74 288.357L545.049 289.309L546.951 288.691ZM557.546 326.891C558.037 327.142 558.64 326.946 558.891 326.454L562.981 318.438C563.232 317.946 563.037 317.343 562.545 317.092C562.053 316.841 561.45 317.037 561.199 317.529L557.564 324.655L550.438 321.019C549.946 320.768 549.343 320.963 549.092 321.455C548.841 321.947 549.037 322.55 549.529 322.801L557.546 326.891ZM545.049 289.309L545.649 291.159L547.551 290.541L546.951 288.691L545.049 289.309ZM546.849 294.859L548.049 298.559L549.951 297.941L548.751 294.241L546.849 294.859ZM549.249 302.259L550.449 305.959L552.351 305.341L551.151 301.641L549.249 302.259ZM551.649 309.659L552.849 313.359L554.751 312.741L553.551 309.041L551.649 309.659ZM554.049 317.059L555.249 320.759L557.151 320.141L555.951 316.441L554.049 317.059ZM556.449 324.459L557.049 326.309L558.951 325.691L558.351 323.841L556.449 324.459Z" fill="black"/>
<path d="M82.8992 212.563L82.4618 211.663L80.6633 212.538L81.1008 213.437L82.8992 212.563ZM99.6735 250.945C100.195 251.126 100.765 250.849 100.945 250.327L103.884 241.82C104.064 241.298 103.787 240.728 103.265 240.548C102.743 240.368 102.174 240.645 101.993 241.167L99.3813 248.728L91.8198 246.116C91.2978 245.936 90.7284 246.213 90.5481 246.735C90.3678 247.257 90.6448 247.826 91.1668 248.007L99.6735 250.945ZM81.1008 213.437L99.1008 250.437L100.899 249.563L82.8992 212.563L81.1008 213.437Z" fill="black"/>
<path d="M206.899 213.437L207.337 212.538L205.538 211.663L205.101 212.563L206.899 213.437ZM187.055 250.327C187.235 250.849 187.805 251.126 188.327 250.945L196.833 248.007C197.355 247.826 197.632 247.257 197.452 246.735C197.272 246.213 196.702 245.936 196.18 246.116L188.619 248.728L186.007 241.167C185.826 240.645 185.257 240.368 184.735 240.548C184.213 240.728 183.936 241.298 184.116 241.82L187.055 250.327ZM205.101 212.563L204.201 214.413L205.999 215.287L206.899 213.437L205.101 212.563ZM202.401 218.113L200.601 221.813L202.399 222.687L204.199 218.987L202.401 218.113ZM198.801 225.513L197.001 229.213L198.799 230.087L200.599 226.387L198.801 225.513ZM195.201 232.913L193.401 236.613L195.199 237.487L196.999 233.787L195.201 232.913ZM191.601 240.313L189.801 244.013L191.599 244.887L193.399 241.187L191.601 240.313ZM188.001 247.713L187.101 249.563L188.899 250.437L189.799 248.587L188.001 247.713ZM206.899 213.437L207.337 212.538L205.538 211.663L205.101 212.563L206.899 213.437ZM187.055 250.327C187.235 250.849 187.805 251.126 188.327 250.945L196.833 248.007C197.355 247.826 197.632 247.257 197.452 246.735C197.272 246.213 196.702 245.936 196.18 246.116L188.619 248.728L186.007 241.167C185.826 240.645 185.257 240.368 184.735 240.548C184.213 240.728 183.936 241.298 184.116 241.82L187.055 250.327ZM205.101 212.563L204.201 214.413L205.999 215.287L206.899 213.437L205.101 212.563ZM202.401 218.113L200.601 221.813L202.399 222.687L204.199 218.987L202.401 218.113ZM198.801 225.513L197.001 229.213L198.799 230.087L200.599 226.387L198.801 225.513ZM195.201 232.913L193.401 236.613L195.199 237.487L196.999 233.787L195.201 232.913ZM191.601 240.313L189.801 244.013L191.599 244.887L193.399 241.187L191.601 240.313ZM188.001 247.713L187.101 249.563L188.899 250.437L189.799 248.587L188.001 247.713Z" fill="black"/>
<path d="M226.899 212.563L226.462 211.663L224.663 212.538L225.101 213.437L226.899 212.563ZM243.673 250.945C244.195 251.126 244.765 250.849 244.945 250.327L247.884 241.82C248.064 241.298 247.787 240.728 247.265 240.548C246.743 240.368 246.174 240.645 245.993 241.167L243.381 248.728L235.82 246.116C235.298 245.936 234.728 246.213 234.548 246.735C234.368 247.257 234.645 247.826 235.167 248.007L243.673 250.945ZM225.101 213.437L243.101 250.437L244.899 249.563L226.899 212.563L225.101 213.437Z" fill="black"/>
<path d="M350.899 213.437L351.337 212.538L349.538 211.663L349.101 212.563L350.899 213.437ZM331.055 250.327C331.235 250.849 331.805 251.126 332.327 250.945L340.833 248.007C341.355 247.826 341.632 247.257 341.452 246.735C341.272 246.213 340.702 245.936 340.18 246.116L332.619 248.728L330.007 241.167C329.826 240.645 329.257 240.368 328.735 240.548C328.213 240.728 327.936 241.298 328.116 241.82L331.055 250.327ZM349.101 212.563L331.101 249.563L332.899 250.437L350.899 213.437L349.101 212.563Z" fill="black"/>
<path d="M370.899 212.563L370.462 211.663L368.663 212.538L369.101 213.437L370.899 212.563ZM387.673 250.945C388.195 251.126 388.765 250.849 388.945 250.327L391.884 241.82C392.064 241.298 391.787 240.728 391.265 240.548C390.743 240.368 390.174 240.645 389.993 241.167L387.381 248.728L379.82 246.116C379.298 245.936 378.728 246.213 378.548 246.735C378.368 247.257 378.645 247.826 379.167 248.007L387.673 250.945ZM369.101 213.437L370.001 215.287L371.799 214.413L370.899 212.563L369.101 213.437ZM371.801 218.987L373.601 222.687L375.399 221.813L373.599 218.113L371.801 218.987ZM375.401 226.387L377.201 230.087L378.999 229.213L377.199 225.513L375.401 226.387ZM379.001 233.787L380.801 237.487L382.599 236.613L380.799 232.913L379.001 233.787ZM382.601 241.187L384.401 244.887L386.199 244.013L384.399 240.313L382.601 241.187ZM386.201 248.587L387.101 250.437L388.899 249.563L387.999 247.713L386.201 248.587ZM370.899 212.563L370.462 211.663L368.663 212.538L369.101 213.437L370.899 212.563ZM387.673 250.945C388.195 251.126 388.765 250.849 388.945 250.327L391.884 241.82C392.064 241.298 391.787 240.728 391.265 240.548C390.743 240.368 390.174 240.645 389.993 241.167L387.381 248.728L379.82 246.116C379.298 245.936 378.728 246.213 378.548 246.735C378.368 247.257 378.645 247.826 379.167 248.007L387.673 250.945ZM369.101 213.437L370.001 215.287L371.799 214.413L370.899 212.563L369.101 213.437ZM371.801 218.987L373.601 222.687L375.399 221.813L373.599 218.113L371.801 218.987ZM375.401 226.387L377.201 230.087L378.999 229.213L377.199 225.513L375.401 226.387ZM379.001 233.787L380.801 237.487L382.599 236.613L380.799 232.913L379.001 233.787ZM382.601 241.187L384.401 244.887L386.199 244.013L384.399 240.313L382.601 241.187ZM386.201 248.587L387.101 250.437L388.899 249.563L387.999 247.713L386.201 248.587Z" fill="black"/>
<path d="M494.899 213.437L495.337 212.538L493.538 211.663L493.101 212.563L494.899 213.437ZM475.055 250.327C475.235 250.849 475.805 251.126 476.327 250.945L484.833 248.007C485.355 247.826 485.632 247.257 485.452 246.735C485.272 246.213 484.702 245.936 484.18 246.116L476.619 248.728L474.007 241.167C473.826 240.645 473.257 240.368 472.735 240.548C472.213 240.728 471.936 241.298 472.116 241.82L475.055 250.327ZM493.101 212.563L492.201 214.413L493.999 215.287L494.899 213.437L493.101 212.563ZM490.401 218.113L488.601 221.813L490.399 222.687L492.199 218.987L490.401 218.113ZM486.801 225.513L485.001 229.213L486.799 230.087L488.599 226.387L486.801 225.513ZM483.201 232.913L481.401 236.613L483.199 237.487L484.999 233.787L483.201 232.913ZM479.601 240.313L477.801 244.013L479.599 244.887L481.399 241.187L479.601 240.313ZM476.001 247.713L475.101 249.563L476.899 250.437L477.799 248.587L476.001 247.713ZM494.899 213.437L495.337 212.538L493.538 211.663L493.101 212.563L494.899 213.437ZM475.055 250.327C475.235 250.849 475.805 251.126 476.327 250.945L484.833 248.007C485.355 247.826 485.632 247.257 485.452 246.735C485.272 246.213 484.702 245.936 484.18 246.116L476.619 248.728L474.007 241.167C473.826 240.645 473.257 240.368 472.735 240.548C472.213 240.728 471.936 241.298 472.116 241.82L475.055 250.327ZM493.101 212.563L492.201 214.413L493.999 215.287L494.899 213.437L493.101 212.563ZM490.401 218.113L488.601 221.813L490.399 222.687L492.199 218.987L490.401 218.113ZM486.801 225.513L485.001 229.213L486.799 230.087L488.599 226.387L486.801 225.513ZM483.201 232.913L481.401 236.613L483.199 237.487L484.999 233.787L483.201 232.913ZM479.601 240.313L477.801 244.013L479.599 244.887L481.399 241.187L479.601 240.313ZM476.001 247.713L475.101 249.563L476.899 250.437L477.799 248.587L476.001 247.713Z" fill="black"/>
<path d="M514.899 212.563L514.462 211.663L512.663 212.538L513.101 213.437L514.899 212.563ZM531.673 250.945C532.195 251.126 532.765 250.849 532.945 250.327L535.884 241.82C536.064 241.298 535.787 240.728 535.265 240.548C534.743 240.368 534.174 240.645 533.993 241.167L531.381 248.728L523.82 246.116C523.298 245.936 522.728 246.213 522.548 246.735C522.368 247.257 522.645 247.826 523.167 248.007L531.673 250.945ZM513.101 213.437L531.101 250.437L532.899 249.563L514.899 212.563L513.101 213.437Z" fill="black"/>
<path d="M414.717 137.697L415.414 136.981L413.981 135.586L413.283 136.303L414.717 137.697ZM377 174.014C377.008 174.566 377.461 175.007 378.014 175L387.013 174.877C387.565 174.869 388.007 174.415 387.999 173.863C387.991 173.311 387.538 172.869 386.985 172.877L378.986 172.986L378.877 164.987C378.869 164.435 378.415 163.993 377.863 164.001C377.311 164.009 376.869 164.462 376.877 165.015L377 174.014ZM413.283 136.303L411.783 137.844L413.217 139.239L414.717 137.697L413.283 136.303ZM408.783 140.928L405.783 144.011L407.217 145.406L410.217 142.322L408.783 140.928ZM402.783 147.094L399.783 150.178L401.217 151.572L404.217 148.489L402.783 147.094ZM396.783 153.261L393.783 156.344L395.217 157.739L398.217 154.656L396.783 153.261ZM390.783 159.428L387.783 162.511L389.217 163.906L392.217 160.822L390.783 159.428ZM384.783 165.594L381.783 168.678L383.217 170.072L386.217 166.989L384.783 165.594ZM378.783 171.761L377.283 173.303L378.717 174.697L380.217 173.156L378.783 171.761ZM414.717 137.697L415.414 136.981L413.981 135.586L413.283 136.303L414.717 137.697ZM377 174.014C377.008 174.566 377.461 175.007 378.014 175L387.013 174.877C387.565 174.869 388.007 174.415 387.999 173.863C387.991 173.311 387.538 172.869 386.985 172.877L378.986 172.986L378.877 164.987C378.869 164.435 378.415 163.993 377.863 164.001C377.311 164.009 376.869 164.462 376.877 165.015L377 174.014ZM413.283 136.303L411.783 137.844L413.217 139.239L414.717 137.697L413.283 136.303ZM408.783 140.928L405.783 144.011L407.217 145.406L410.217 142.322L408.783 140.928ZM402.783 147.094L399.783 150.178L401.217 151.572L404.217 148.489L402.783 147.094ZM396.783 153.261L393.783 156.344L395.217 157.739L398.217 154.656L396.783 153.261ZM390.783 159.428L387.783 162.511L389.217 163.906L392.217 160.822L390.783 159.428ZM384.783 165.594L381.783 168.678L383.217 170.072L386.217 166.989L384.783 165.594ZM378.783 171.761L377.283 173.303L378.717 174.697L380.217 173.156L378.783 171.761Z" fill="black"/>
<path d="M450.717 136.303L450.019 135.586L448.586 136.981L449.283 137.697L450.717 136.303ZM485.986 175C486.539 175.007 486.992 174.566 487 174.014L487.123 165.015C487.131 164.462 486.689 164.009 486.137 164.001C485.585 163.993 485.131 164.435 485.123 164.987L485.014 172.986L477.015 172.877C476.462 172.869 476.009 173.311 476.001 173.863C475.993 174.415 476.435 174.869 476.987 174.877L485.986 175ZM449.283 137.697L485.283 174.697L486.717 173.303L450.717 136.303L449.283 137.697Z" fill="black"/>
<path d="M278.905 61.4247L279.33 60.5194L277.519 59.67L277.095 60.5753L278.905 61.4247ZM239.06 142.34C239.247 142.859 239.82 143.128 240.34 142.94L248.804 139.882C249.324 139.694 249.593 139.121 249.405 138.602C249.217 138.082 248.644 137.813 248.125 138.001L240.601 140.72L237.882 133.196C237.694 132.676 237.121 132.407 236.602 132.595C236.082 132.783 235.813 133.356 236.001 133.875L239.06 142.34ZM277.095 60.5753L239.095 141.575L240.905 142.425L278.905 61.4247L277.095 60.5753Z" fill="black"/>
<path d="M306.381 55.0753L305.456 54.6946L304.695 56.5439L305.619 56.9247L306.381 55.0753ZM408.385 98.9231C408.894 98.7107 409.135 98.1252 408.923 97.6154L405.462 89.3077C405.249 88.7979 404.664 88.5568 404.154 88.7692C403.644 88.9816 403.403 89.5671 403.615 90.0769L406.692 97.4615L399.308 100.538C398.798 100.751 398.557 101.336 398.769 101.846C398.982 102.356 399.567 102.597 400.077 102.385L408.385 98.9231ZM305.619 56.9247L307.441 57.6747L308.202 55.8253L306.381 55.0753L305.619 56.9247ZM311.084 59.1747L314.726 60.6747L315.488 58.8253L311.845 57.3253L311.084 59.1747ZM318.369 62.1747L322.012 63.6747L322.774 61.8253L319.131 60.3253L318.369 62.1747ZM325.655 65.1747L329.298 66.6747L330.059 64.8253L326.416 63.3253L325.655 65.1747ZM332.941 68.1747L336.584 69.6747L337.345 67.8253L333.702 66.3253L332.941 68.1747ZM340.226 71.1747L343.869 72.6747L344.631 70.8253L340.988 69.3253L340.226 71.1747ZM347.512 74.1747L351.155 75.6747L351.916 73.8253L348.274 72.3253L347.512 74.1747ZM354.798 77.1747L358.441 78.6747L359.202 76.8253L355.559 75.3253L354.798 77.1747ZM362.084 80.1747L365.726 81.6747L366.488 79.8253L362.845 78.3253L362.084 80.1747ZM369.369 83.1747L373.012 84.6747L373.774 82.8253L370.131 81.3253L369.369 83.1747ZM376.655 86.1747L380.298 87.6747L381.059 85.8253L377.416 84.3253L376.655 86.1747ZM383.941 89.1747L387.584 90.6747L388.345 88.8253L384.702 87.3253L383.941 89.1747ZM391.226 92.1747L394.869 93.6747L395.631 91.8253L391.988 90.3253L391.226 92.1747ZM398.512 95.1747L402.155 96.6747L402.916 94.8253L399.274 93.3253L398.512 95.1747ZM405.798 98.1747L407.619 98.9247L408.381 97.0753L406.559 96.3253L405.798 98.1747ZM306.381 55.0753L305.456 54.6946L304.695 56.5439L305.619 56.9247L306.381 55.0753ZM408.385 98.9231C408.894 98.7107 409.135 98.1252 408.923 97.6154L405.462 89.3077C405.249 88.7979 404.664 88.5568 404.154 88.7692C403.644 88.9816 403.403 89.5671 403.615 90.0769L406.692 97.4615L399.308 100.538C398.798 100.751 398.557 101.336 398.769 101.846C398.982 102.356 399.567 102.597 400.077 102.385L408.385 98.9231ZM305.619 56.9247L307.441 57.6747L308.202 55.8253L306.381 55.0753L305.619 56.9247ZM311.084 59.1747L314.726 60.6747L315.488 58.8253L311.845 57.3253L311.084 59.1747ZM318.369 62.1747L322.012 63.6747L322.774 61.8253L319.131 60.3253L318.369 62.1747ZM325.655 65.1747L329.298 66.6747L330.059 64.8253L326.416 63.3253L325.655 65.1747ZM332.941 68.1747L336.584 69.6747L337.345 67.8253L333.702 66.3253L332.941 68.1747ZM340.226 71.1747L343.869 72.6747L344.631 70.8253L340.988 69.3253L340.226 71.1747ZM347.512 74.1747L351.155 75.6747L351.916 73.8253L348.274 72.3253L347.512 74.1747ZM354.798 77.1747L358.441 78.6747L359.202 76.8253L355.559 75.3253L354.798 77.1747ZM362.084 80.1747L365.726 81.6747L366.488 79.8253L362.845 78.3253L362.084 80.1747ZM369.369 83.1747L373.012 84.6747L373.774 82.8253L370.131 81.3253L369.369 83.1747ZM376.655 86.1747L380.298 87.6747L381.059 85.8253L377.416 84.3253L376.655 86.1747ZM383.941 89.1747L387.584 90.6747L388.345 88.8253L384.702 87.3253L383.941 89.1747ZM391.226 92.1747L394.869 93.6747L395.631 91.8253L391.988 90.3253L391.226 92.1747ZM398.512 95.1747L402.155 96.6747L402.916 94.8253L399.274 93.3253L398.512 95.1747ZM405.798 98.1747L407.619 98.9247L408.381 97.0753L406.559 96.3253L405.798 98.1747Z" fill="black"/>
<path d="M62.0707 154.736C62.348 154.715 62.62 154.715 62.8867 154.736C63.772 154.821 64.524 155.184 65.1427 155.824C65.228 155.899 65.276 155.941 65.2867 155.952L65.7827 155.344C66.0814 154.992 66.2574 154.789 66.3107 154.736C66.3214 154.725 66.38 154.72 66.4867 154.72C66.572 154.72 66.6307 154.736 66.6627 154.768L66.7107 154.816V157.088V159.344L66.6627 159.392L66.6147 159.44H66.2627C66.0067 159.44 65.868 159.419 65.8467 159.376C65.836 159.355 65.8147 159.259 65.7827 159.088C65.6014 157.669 65.1107 156.661 64.3107 156.064C64.0227 155.861 63.7187 155.728 63.3987 155.664C63.228 155.621 62.972 155.611 62.6307 155.632C61.34 155.749 60.3747 156.293 59.7347 157.264C59.3507 157.829 59.1107 158.629 59.0147 159.664C58.972 160.005 58.9667 160.523 58.9987 161.216C59.0094 161.301 59.0147 161.365 59.0147 161.408C59.0894 162.272 59.2654 162.965 59.5427 163.488C60.0334 164.448 60.8387 165.061 61.9587 165.328C62.0334 165.349 62.108 165.365 62.1827 165.376C63.1747 165.557 64.012 165.371 64.6947 164.816C65.42 164.197 65.8254 163.349 65.9107 162.272C65.9107 162.24 65.9107 162.203 65.9107 162.16C65.9107 162 65.9267 161.909 65.9587 161.888L66.0067 161.84H66.3107H66.6147L66.6627 161.888C66.6947 161.92 66.7107 161.979 66.7107 162.064C66.7107 162.565 66.6147 163.067 66.4227 163.568C66.3267 163.845 66.1774 164.144 65.9747 164.464C65.6014 165.029 65.1534 165.461 64.6307 165.76C63.8627 166.229 63.02 166.421 62.1027 166.336C60.7587 166.219 59.612 165.685 58.6627 164.736C58.2254 164.299 57.868 163.808 57.5907 163.264C56.844 161.792 56.716 160.277 57.2067 158.72C57.3134 158.411 57.4414 158.107 57.5907 157.808C58.22 156.56 59.1694 155.669 60.4387 155.136C60.684 155.029 60.94 154.944 61.2067 154.88C61.516 154.805 61.804 154.757 62.0707 154.736ZM71.2016 158.864C72.1616 158.747 73.0309 159.013 73.8096 159.664C73.8842 159.728 73.9536 159.792 74.0176 159.856C74.1776 160.016 74.2736 160.123 74.3056 160.176C74.9989 161.061 75.2602 162.053 75.0896 163.152C75.0789 163.205 75.0682 163.259 75.0576 163.312C74.8656 164.304 74.3376 165.072 73.4736 165.616C73.1536 165.819 72.8069 165.968 72.4336 166.064C72.1882 166.128 71.9109 166.16 71.6016 166.16C71.2816 166.16 70.9989 166.128 70.7536 166.064C69.7509 165.808 68.9989 165.232 68.4976 164.336C68.1989 163.792 68.0496 163.205 68.0496 162.576C68.0496 161.797 68.2576 161.099 68.6736 160.48C69.2922 159.531 70.1349 158.992 71.2016 158.864ZM71.8576 159.6C71.2602 159.515 70.7589 159.664 70.3536 160.048C70.0336 160.336 69.8522 160.821 69.8096 161.504C69.7989 161.547 69.7936 161.595 69.7936 161.648C69.7509 162.192 69.7562 162.832 69.8096 163.568C69.8522 163.963 69.9269 164.261 70.0336 164.464C70.2576 164.955 70.6682 165.248 71.2656 165.344C71.4682 165.387 71.6762 165.392 71.8896 165.36C72.4869 165.264 72.9082 164.965 73.1536 164.464C73.2602 164.261 73.3349 163.963 73.3776 163.568C73.4309 163.077 73.4362 162.464 73.3936 161.728C73.3936 161.696 73.3936 161.669 73.3936 161.648C73.3509 160.912 73.1802 160.395 72.8816 160.096C72.8709 160.085 72.8549 160.069 72.8336 160.048C72.5669 159.792 72.2416 159.643 71.8576 159.6ZM77.2656 154.992C78.1829 154.928 78.6202 154.896 78.5776 154.896H78.6416V159.936C78.6416 163.296 78.6469 164.981 78.6576 164.992C78.7002 165.067 78.9989 165.104 79.5536 165.104H79.8896V165.552V166H79.7456L78.7536 165.968C78.1882 165.957 77.6229 165.957 77.0576 165.968L76.0816 166H75.9376V165.552V165.104H76.2736C76.8282 165.104 77.1269 165.067 77.1696 164.992V156.512C77.1269 156.256 76.9936 156.096 76.7696 156.032C76.6522 156 76.4709 155.979 76.2256 155.968H75.9376V155.52V155.072H75.9696L77.2656 154.992ZM86.0707 154.992C86.988 154.928 87.4254 154.896 87.3827 154.896H87.4467V159.68C87.4467 162.891 87.452 164.512 87.4627 164.544C87.5054 164.811 87.6387 164.976 87.8627 165.04C87.98 165.072 88.1614 165.093 88.4067 165.104H88.6947V165.552V166L86.0707 166.176H85.9427V165.776V165.376L85.8307 165.472C85.116 165.973 84.3534 166.208 83.5427 166.176C83.1907 166.165 82.8494 166.08 82.5187 165.92C82.1774 165.749 81.8787 165.536 81.6227 165.28C80.8974 164.523 80.5507 163.568 80.5827 162.416C80.6147 161.829 80.7427 161.296 80.9667 160.816C81.1587 160.443 81.3774 160.128 81.6227 159.872C81.8894 159.605 82.188 159.392 82.5187 159.232C82.7534 159.115 82.9934 159.029 83.2387 158.976C83.356 158.955 83.5427 158.944 83.7987 158.944C84.1507 158.944 84.476 158.981 84.7747 159.056C85.1587 159.152 85.5107 159.301 85.8307 159.504C85.9267 159.557 85.98 159.589 85.9907 159.6L85.9747 156.512C85.932 156.256 85.7987 156.096 85.5747 156.032C85.4574 156 85.276 155.979 85.0307 155.968H84.7427V155.52V155.072H84.7747L86.0707 154.992ZM84.6467 159.712C84.3054 159.659 83.98 159.675 83.6707 159.76C83.1054 159.92 82.7214 160.261 82.5187 160.784C82.38 161.147 82.3107 161.739 82.3107 162.56C82.3107 163.424 82.3854 164.043 82.5347 164.416C82.716 164.896 83.084 165.216 83.6387 165.376C83.724 165.397 83.8627 165.408 84.0547 165.408C84.2574 165.408 84.3907 165.403 84.4547 165.392C85.0414 165.264 85.516 164.944 85.8787 164.432L85.9427 164.336V162.432V160.528L85.8467 160.416C85.5267 160.043 85.1267 159.808 84.6467 159.712Z" fill="black"/>
<path d="M180.547 155.52V155.072H183.699C185.801 155.083 186.921 155.099 187.059 155.12C187.251 155.152 187.459 155.195 187.683 155.248C188.697 155.547 189.422 156.112 189.859 156.944C190.062 157.328 190.174 157.728 190.195 158.144C190.206 158.581 190.115 158.997 189.923 159.392C189.529 160.213 188.835 160.789 187.843 161.12C187.715 161.163 187.593 161.2 187.475 161.232C187.209 161.296 186.766 161.333 186.147 161.344C185.774 161.344 185.55 161.344 185.475 161.344H184.019V163.152C184.019 164.368 184.025 164.981 184.035 164.992C184.078 165.067 184.473 165.104 185.219 165.104H185.667V165.552V166H185.491L184.211 165.968C183.475 165.957 182.739 165.957 182.003 165.968L180.723 166H180.547V165.552V165.104H180.995C181.742 165.104 182.137 165.067 182.179 164.992V156.08C182.137 156.005 181.742 155.968 180.995 155.968H180.547V155.52ZM186.579 156C186.505 155.989 186.099 155.979 185.363 155.968C184.553 155.968 184.115 155.984 184.051 156.016C184.009 156.037 183.982 156.171 183.971 156.416C183.971 156.619 183.971 157.253 183.971 158.32V160.528H185.187C186.073 160.517 186.627 160.485 186.851 160.432C187.491 160.293 187.886 159.963 188.035 159.44C188.099 159.248 188.131 158.853 188.131 158.256C188.142 157.733 188.121 157.355 188.067 157.12C187.993 156.832 187.854 156.603 187.651 156.432C187.395 156.219 187.038 156.075 186.579 156ZM192.622 159.024C193.518 158.96 193.945 158.928 193.902 158.928H193.95V159.312V159.696L194.014 159.616C194.121 159.456 194.254 159.323 194.414 159.216C194.531 159.131 194.707 159.051 194.942 158.976C195.145 158.923 195.363 158.912 195.598 158.944C196.174 159.008 196.569 159.237 196.782 159.632C196.985 160.016 196.963 160.368 196.718 160.688C196.654 160.773 196.569 160.843 196.462 160.896C196.334 160.96 196.19 160.992 196.03 160.992C195.859 160.992 195.71 160.96 195.582 160.896C195.262 160.736 195.113 160.464 195.134 160.08C195.134 159.984 195.15 159.893 195.182 159.808C195.214 159.733 195.23 159.691 195.23 159.68L195.118 159.712C194.499 159.84 194.142 160.533 194.046 161.792V164.992C194.078 165.056 194.387 165.093 194.974 165.104H195.582V165.552V166H195.438C195.449 166 195.07 165.989 194.302 165.968C193.641 165.957 193.027 165.957 192.462 165.968C191.811 165.989 191.481 166 191.47 166H191.326V165.552V165.104H191.662C192.217 165.104 192.515 165.067 192.558 164.992V160.544C192.515 160.288 192.382 160.128 192.158 160.064C192.041 160.032 191.859 160.011 191.614 160H191.326V159.552C191.326 159.253 191.337 159.104 191.358 159.104L192.622 159.024ZM200.952 158.864C201.912 158.747 202.781 159.013 203.56 159.664C203.634 159.728 203.704 159.792 203.768 159.856C203.928 160.016 204.024 160.123 204.056 160.176C204.749 161.061 205.01 162.053 204.84 163.152C204.829 163.205 204.818 163.259 204.808 163.312C204.616 164.304 204.088 165.072 203.224 165.616C202.904 165.819 202.557 165.968 202.184 166.064C201.938 166.128 201.661 166.16 201.352 166.16C201.032 166.16 200.749 166.128 200.504 166.064C199.501 165.808 198.749 165.232 198.248 164.336C197.949 163.792 197.8 163.205 197.8 162.576C197.8 161.797 198.008 161.099 198.424 160.48C199.042 159.531 199.885 158.992 200.952 158.864ZM201.608 159.6C201.01 159.515 200.509 159.664 200.104 160.048C199.784 160.336 199.602 160.821 199.56 161.504C199.549 161.547 199.544 161.595 199.544 161.648C199.501 162.192 199.506 162.832 199.56 163.568C199.602 163.963 199.677 164.261 199.784 164.464C200.008 164.955 200.418 165.248 201.016 165.344C201.218 165.387 201.426 165.392 201.64 165.36C202.237 165.264 202.658 164.965 202.904 164.464C203.01 164.261 203.085 163.963 203.128 163.568C203.181 163.077 203.186 162.464 203.144 161.728C203.144 161.696 203.144 161.669 203.144 161.648C203.101 160.912 202.93 160.395 202.632 160.096C202.621 160.085 202.605 160.069 202.584 160.048C202.317 159.792 201.992 159.643 201.608 159.6ZM206.92 154.992C207.837 154.928 208.274 154.896 208.232 154.896H208.296V157.28V159.648L208.344 159.616C208.845 159.275 209.458 159.056 210.184 158.96C210.237 158.949 210.408 158.944 210.696 158.944C210.941 158.944 211.106 158.955 211.192 158.976C212.109 159.168 212.808 159.739 213.288 160.688C213.48 161.093 213.602 161.499 213.656 161.904C213.709 162.267 213.714 162.672 213.672 163.12C213.522 163.984 213.176 164.688 212.632 165.232C212.376 165.488 212.098 165.691 211.8 165.84C211.362 166.053 210.946 166.165 210.552 166.176C209.634 166.208 208.85 165.915 208.2 165.296C208.114 165.221 208.066 165.189 208.056 165.2C208.056 165.211 207.986 165.344 207.848 165.6L207.64 165.984L207.24 166H206.84V161.312C206.84 158.155 206.834 156.555 206.824 156.512C206.781 156.256 206.648 156.096 206.424 156.032C206.306 156 206.125 155.979 205.88 155.968H205.592V155.52V155.072H205.624L206.92 154.992ZM210.664 159.728C210.312 159.653 209.96 159.664 209.608 159.76C209.149 159.877 208.76 160.112 208.44 160.464L208.344 160.576V162.48V164.384L208.424 164.496C208.85 165.147 209.426 165.451 210.152 165.408C210.216 165.408 210.285 165.403 210.36 165.392C210.744 165.349 211.08 165.189 211.368 164.912C211.57 164.709 211.714 164.469 211.8 164.192C211.906 163.893 211.965 163.408 211.976 162.736C211.986 161.797 211.917 161.12 211.768 160.704C211.597 160.245 211.256 159.931 210.744 159.76C210.722 159.749 210.696 159.739 210.664 159.728ZM217.394 158.848C217.437 158.827 217.586 158.827 217.842 158.848C218.258 158.848 218.626 158.901 218.946 159.008C219.448 159.179 219.853 159.429 220.162 159.76C220.44 160.048 220.621 160.368 220.706 160.72C220.728 160.805 220.744 161.525 220.754 162.88C220.754 164.192 220.765 164.891 220.786 164.976C220.861 165.179 220.973 165.248 221.122 165.184C221.144 165.173 221.17 165.152 221.202 165.12C221.277 165.045 221.314 164.88 221.314 164.624C221.325 164.56 221.33 164.448 221.33 164.288V163.68H221.73H222.13V164.24C222.13 164.645 222.125 164.869 222.114 164.912C222.05 165.328 221.805 165.653 221.378 165.888C220.962 166.091 220.594 166.149 220.274 166.064C219.965 165.979 219.73 165.781 219.57 165.472C219.528 165.408 219.496 165.339 219.474 165.264L219.458 165.2L219.314 165.344C219.133 165.525 218.909 165.68 218.642 165.808C218.13 166.075 217.576 166.197 216.978 166.176C216.253 166.144 215.677 165.899 215.25 165.44C215.09 165.28 214.968 165.109 214.882 164.928C214.68 164.501 214.648 164.075 214.786 163.648C214.978 163.072 215.416 162.619 216.098 162.288C216.589 162.043 217.154 161.872 217.794 161.776C218.2 161.701 218.626 161.653 219.074 161.632H219.25V161.248C219.24 160.981 219.224 160.805 219.202 160.72C219.17 160.581 219.101 160.427 218.994 160.256C218.738 159.883 218.408 159.664 218.002 159.6C217.757 159.557 217.405 159.568 216.946 159.632C216.861 159.653 216.813 159.664 216.802 159.664C216.781 159.664 216.797 159.691 216.85 159.744C217.021 159.968 217.08 160.24 217.026 160.56C216.941 160.923 216.712 161.152 216.338 161.248C215.997 161.333 215.698 161.253 215.442 161.008C215.25 160.827 215.16 160.581 215.17 160.272C215.181 160.112 215.224 159.952 215.298 159.792C215.416 159.568 215.629 159.365 215.938 159.184C216.312 159.003 216.797 158.891 217.394 158.848ZM219.25 163.168V162.368H219.154C218.952 162.368 218.728 162.395 218.482 162.448C218.12 162.512 217.757 162.619 217.394 162.768C216.808 163.035 216.461 163.424 216.354 163.936C216.301 164.267 216.365 164.571 216.546 164.848C216.866 165.349 217.346 165.525 217.986 165.376C218.018 165.365 218.05 165.355 218.082 165.344C218.552 165.216 218.888 164.944 219.09 164.528C219.112 164.475 219.133 164.427 219.154 164.384C219.218 164.139 219.25 163.733 219.25 163.168ZM224.418 156.272V156.16H224.818H225.218V157.632V159.104H226.258H227.298V159.552V160H226.258H225.218V162.128C225.218 163.579 225.224 164.336 225.234 164.4C225.298 164.955 225.496 165.269 225.826 165.344C226.21 165.44 226.488 165.253 226.658 164.784C226.722 164.603 226.76 164.256 226.77 163.744V163.104H227.17H227.57V163.744C227.56 164.181 227.544 164.443 227.522 164.528C227.373 165.221 227.016 165.712 226.45 166C226.109 166.149 225.757 166.203 225.394 166.16C224.562 166.064 224.04 165.632 223.826 164.864C223.762 164.661 223.73 164.288 223.73 163.744C223.73 163.872 223.725 163.365 223.714 162.224V160H223.122H222.53V159.632V159.248H222.658C222.989 159.216 223.298 159.067 223.586 158.8C223.821 158.565 224.018 158.235 224.178 157.808C224.338 157.307 224.418 156.795 224.418 156.272ZM230.285 155.328C230.658 155.243 230.984 155.333 231.261 155.6C231.464 155.824 231.565 156.069 231.565 156.336C231.565 156.507 231.528 156.667 231.453 156.816C231.261 157.179 230.946 157.371 230.509 157.392C230.104 157.392 229.8 157.211 229.597 156.848C229.512 156.688 229.469 156.517 229.469 156.336C229.469 156.176 229.506 156.021 229.581 155.872C229.72 155.573 229.954 155.392 230.285 155.328ZM230.173 159.024C231.069 158.96 231.496 158.928 231.453 158.928H231.501V161.952C231.501 163.968 231.512 164.987 231.533 165.008C231.565 165.04 231.592 165.056 231.613 165.056C231.677 165.088 231.912 165.104 232.317 165.104H232.621V165.552V166H232.493L231.581 165.968C231.048 165.957 230.498 165.957 229.933 165.968C229.282 165.989 228.952 166 228.941 166H228.797V165.552V165.104H229.133C229.688 165.104 229.986 165.067 230.029 164.992C230.04 164.981 230.045 164.245 230.045 162.784C230.045 161.248 230.024 160.427 229.981 160.32C229.949 160.224 229.885 160.155 229.789 160.112C229.64 160.037 229.389 160 229.037 160H228.861V159.552V159.104H228.893L230.173 159.024ZM236.514 158.864C237.474 158.747 238.343 159.013 239.122 159.664C239.197 159.728 239.266 159.792 239.33 159.856C239.49 160.016 239.586 160.123 239.618 160.176C240.311 161.061 240.573 162.053 240.402 163.152C240.391 163.205 240.381 163.259 240.37 163.312C240.178 164.304 239.65 165.072 238.786 165.616C238.466 165.819 238.119 165.968 237.746 166.064C237.501 166.128 237.223 166.16 236.914 166.16C236.594 166.16 236.311 166.128 236.066 166.064C235.063 165.808 234.311 165.232 233.81 164.336C233.511 163.792 233.362 163.205 233.362 162.576C233.362 161.797 233.57 161.099 233.986 160.48C234.605 159.531 235.447 158.992 236.514 158.864ZM237.17 159.6C236.573 159.515 236.071 159.664 235.666 160.048C235.346 160.336 235.165 160.821 235.122 161.504C235.111 161.547 235.106 161.595 235.106 161.648C235.063 162.192 235.069 162.832 235.122 163.568C235.165 163.963 235.239 164.261 235.346 164.464C235.57 164.955 235.981 165.248 236.578 165.344C236.781 165.387 236.989 165.392 237.202 165.36C237.799 165.264 238.221 164.965 238.466 164.464C238.573 164.261 238.647 163.963 238.69 163.568C238.743 163.077 238.749 162.464 238.706 161.728C238.706 161.696 238.706 161.669 238.706 161.648C238.663 160.912 238.493 160.395 238.194 160.096C238.183 160.085 238.167 160.069 238.146 160.048C237.879 159.792 237.554 159.643 237.17 159.6ZM242.546 159.024C243.442 158.96 243.869 158.928 243.826 158.928H243.89V159.472V160.016L244.066 159.824C244.503 159.376 245.021 159.099 245.618 158.992C246.119 158.885 246.61 158.901 247.09 159.04C247.346 159.093 247.575 159.205 247.778 159.376C248.13 159.664 248.338 160.117 248.402 160.736C248.413 160.811 248.418 161.547 248.418 162.944C248.418 164.299 248.423 164.981 248.434 164.992C248.477 165.067 248.775 165.104 249.33 165.104H249.666V165.552V166H249.538L248.53 165.968C247.943 165.957 247.367 165.957 246.802 165.968L245.826 166H245.682V165.552V165.104H246.018C246.583 165.104 246.882 165.061 246.914 164.976V162.816C246.903 161.344 246.871 160.528 246.818 160.368C246.722 160.016 246.498 159.797 246.146 159.712C245.922 159.669 245.682 159.675 245.426 159.728C244.989 159.824 244.637 160.08 244.37 160.496C244.21 160.72 244.098 160.987 244.034 161.296C244.013 161.392 243.997 162.021 243.986 163.184V164.976C244.018 165.061 244.322 165.104 244.898 165.104H245.234V165.552V166H245.106L244.098 165.968C243.522 165.957 242.946 165.957 242.37 165.968L241.362 166H241.234V165.552V165.104H241.57C242.125 165.104 242.423 165.067 242.466 164.992V160.544C242.423 160.288 242.29 160.128 242.066 160.064C241.949 160.032 241.767 160.011 241.522 160H241.234V159.552V159.104H241.266L242.546 159.024Z" fill="black"/>
<path d="M274.743 2.52V2.072H274.919L276.199 2.104C276.935 2.11467 277.671 2.11467 278.407 2.104L279.687 2.072H279.863V2.52V2.968H279.415C278.668 2.968 278.273 3.00533 278.231 3.08C278.22 3.09067 278.215 3.72533 278.215 4.984V6.872H280.391H282.551V4.984C282.551 3.72533 282.545 3.09067 282.535 3.08C282.492 3.00533 282.097 2.968 281.351 2.968H280.903V2.52V2.072H281.079L282.359 2.104C283.095 2.11467 283.831 2.11467 284.567 2.104L285.847 2.072H286.023V2.52V2.968H285.575C284.828 2.968 284.433 3.00533 284.391 3.08V11.992C284.433 12.0667 284.828 12.104 285.575 12.104H286.023V12.552V13H285.847L284.567 12.968C283.831 12.9573 283.095 12.9573 282.359 12.968L281.079 13H280.903V12.552V12.104H281.351C282.097 12.104 282.492 12.0667 282.535 11.992C282.545 11.9813 282.551 11.272 282.551 9.864V7.768H280.391H278.215V9.864C278.215 11.272 278.22 11.9813 278.231 11.992C278.273 12.0667 278.668 12.104 279.415 12.104H279.863V12.552V13H279.687L278.407 12.968C277.671 12.9573 276.935 12.9573 276.199 12.968L274.919 13H274.743V12.552V12.104H275.191C275.937 12.104 276.332 12.0667 276.375 11.992V3.08C276.332 3.00533 275.937 2.968 275.191 2.968H274.743V2.52ZM289.991 5.864C290.951 5.74667 291.82 6.01333 292.599 6.664C292.673 6.728 292.743 6.792 292.807 6.856C292.967 7.016 293.063 7.12267 293.095 7.176C293.788 8.06133 294.049 9.05333 293.879 10.152C293.868 10.2053 293.857 10.2587 293.847 10.312C293.655 11.304 293.127 12.072 292.263 12.616C291.943 12.8187 291.596 12.968 291.223 13.064C290.977 13.128 290.7 13.16 290.391 13.16C290.071 13.16 289.788 13.128 289.543 13.064C288.54 12.808 287.788 12.232 287.287 11.336C286.988 10.792 286.839 10.2053 286.839 9.576C286.839 8.79733 287.047 8.09867 287.463 7.48C288.081 6.53067 288.924 5.992 289.991 5.864ZM290.647 6.6C290.049 6.51467 289.548 6.664 289.143 7.048C288.823 7.336 288.641 7.82133 288.599 8.504C288.588 8.54667 288.583 8.59467 288.583 8.648C288.54 9.192 288.545 9.832 288.599 10.568C288.641 10.9627 288.716 11.2613 288.823 11.464C289.047 11.9547 289.457 12.248 290.055 12.344C290.257 12.3867 290.465 12.392 290.679 12.36C291.276 12.264 291.697 11.9653 291.943 11.464C292.049 11.2613 292.124 10.9627 292.167 10.568C292.22 10.0773 292.225 9.464 292.183 8.728C292.183 8.696 292.183 8.66933 292.183 8.648C292.14 7.912 291.969 7.39467 291.671 7.096C291.66 7.08533 291.644 7.06933 291.623 7.048C291.356 6.792 291.031 6.64267 290.647 6.6ZM296.567 3.272V3.16H296.967H297.367V4.632V6.104H298.407H299.447V6.552V7H298.407H297.367V9.128C297.367 10.5787 297.372 11.336 297.383 11.4C297.447 11.9547 297.644 12.2693 297.975 12.344C298.359 12.44 298.636 12.2533 298.807 11.784C298.871 11.6027 298.908 11.256 298.919 10.744V10.104H299.319H299.719V10.744C299.708 11.1813 299.692 11.4427 299.671 11.528C299.521 12.2213 299.164 12.712 298.599 13C298.257 13.1493 297.905 13.2027 297.543 13.16C296.711 13.064 296.188 12.632 295.975 11.864C295.911 11.6613 295.879 11.288 295.879 10.744C295.879 10.872 295.873 10.3653 295.863 9.224V7H295.271H294.679V6.632V6.248H294.807C295.137 6.216 295.447 6.06667 295.735 5.8C295.969 5.56533 296.167 5.23467 296.327 4.808C296.487 4.30667 296.567 3.79467 296.567 3.272Z" fill="black"/>
</g>
<defs>
<clipPath id="clip0_19_3">
<rect width="576" height="365" fill="white"/>
</clipPath>
</defs>
</svg>
