<svg width="343" height="102" viewBox="0 0 343 102" fill="none" xmlns="http://www.w3.org/2000/svg">
<rect x="54" y="1" width="36" height="36" stroke="black" stroke-width="2"/>
<rect x="90" y="1" width="36" height="36" stroke="black" stroke-width="2"/>
<rect x="126" y="1" width="36" height="36" stroke="black" stroke-width="2"/>
<rect x="162" y="1" width="36" height="36" stroke="black" stroke-width="2"/>
<rect x="198" y="1" width="36" height="36" stroke="black" stroke-width="2"/>
<rect x="234" y="1" width="36" height="36" stroke="black" stroke-width="2"/>
<rect x="270" y="1" width="36" height="36" stroke="black" stroke-width="2"/>
<rect x="306" y="1" width="36" height="36" stroke="black" stroke-width="2"/>
<path d="M321.162 15.768H322.17C322.533 15.8 322.837 15.864 323.082 15.96L323.194 15.992L323.482 15.88L323.77 15.752H323.946C324.064 15.752 324.138 15.7627 324.17 15.784C324.234 15.8267 324.272 15.9333 324.282 16.104C324.282 16.2 324.282 16.4293 324.282 16.792C324.282 17.4 324.245 17.7307 324.17 17.784C324.128 17.8053 323.973 17.816 323.706 17.816C323.44 17.816 323.285 17.8053 323.242 17.784C323.168 17.7307 323.13 17.6613 323.13 17.576C323.13 17.2453 322.976 17.0053 322.666 16.856C322.41 16.728 322.064 16.664 321.626 16.664C321.21 16.664 320.885 16.712 320.65 16.808C320.373 16.9253 320.234 17.1227 320.234 17.4C320.234 17.4427 320.245 17.4907 320.266 17.544C320.298 17.6827 320.416 17.8 320.618 17.896C320.768 17.9813 321.146 18.0827 321.754 18.2C322.309 18.296 322.698 18.376 322.922 18.44C323.562 18.664 324.048 19.016 324.378 19.496C324.528 19.7413 324.634 19.9813 324.698 20.216C324.72 20.3227 324.73 20.4827 324.73 20.696C324.73 20.92 324.72 21.0853 324.698 21.192C324.56 21.9387 324.154 22.4667 323.482 22.776C323.194 22.9147 322.837 23.0107 322.41 23.064C322.336 23.0747 322.122 23.08 321.77 23.08C321.386 23.08 321.045 23.048 320.746 22.984C320.554 22.9307 320.368 22.8613 320.186 22.776L320.01 22.696L319.626 22.888L319.226 23.096H319.066C318.938 23.096 318.858 23.0853 318.826 23.064C318.762 23.032 318.725 22.936 318.714 22.776C318.714 22.6693 318.714 22.3653 318.714 21.864C318.714 21.128 318.746 20.7333 318.81 20.68C318.864 20.648 319.018 20.632 319.274 20.632C319.552 20.632 319.712 20.6427 319.754 20.664C319.786 20.6853 319.84 20.7813 319.914 20.952C320.117 21.5387 320.512 21.9013 321.098 22.04C321.578 22.168 322.069 22.1627 322.57 22.024C322.944 21.896 323.157 21.6773 323.21 21.368C323.274 20.984 323.077 20.696 322.618 20.504C322.448 20.4293 322.117 20.3493 321.626 20.264C321.136 20.1787 320.864 20.1253 320.81 20.104C319.808 19.8693 319.152 19.3893 318.842 18.664C318.81 18.5787 318.784 18.4933 318.762 18.408C318.741 18.312 318.73 18.1627 318.73 17.96C318.73 17.7573 318.736 17.624 318.746 17.56C318.885 16.888 319.253 16.4027 319.85 16.104C320.213 15.912 320.65 15.8 321.162 15.768ZM327.916 19.7216H328.405C328.917 19.76 329.321 19.8944 329.615 20.1248C329.865 20.3232 330.021 20.5792 330.085 20.8928C330.124 21.0528 330.13 21.2128 330.105 21.3728C330.06 21.7824 329.839 22.1184 329.442 22.3808L329.365 22.4384L329.442 22.4864C329.724 22.6592 329.954 22.88 330.133 23.1488C330.338 23.4688 330.434 23.8176 330.421 24.1952C330.402 24.592 330.297 24.9312 330.105 25.2128C329.861 25.5776 329.493 25.8368 329.001 25.9904C328.751 26.0608 328.457 26.096 328.117 26.096C327.695 26.096 327.33 26.0448 327.023 25.9424C326.319 25.7056 325.925 25.2576 325.842 24.5984C325.836 24.5216 325.833 24.4448 325.833 24.368C325.833 23.7664 326.13 23.28 326.725 22.9088C326.796 22.8704 326.834 22.848 326.841 22.8416L326.745 22.7552C326.463 22.5248 326.277 22.2304 326.188 21.872C326.085 21.4624 326.127 21.0656 326.313 20.6816C326.581 20.1248 327.087 19.808 327.829 19.7312C327.861 19.7248 327.89 19.7216 327.916 19.7216ZM328.3 20.336C328.108 20.3168 327.913 20.3264 327.714 20.3648C327.343 20.416 327.138 20.5696 327.1 20.8256C327.093 20.864 327.093 20.9056 327.1 20.9504C327.119 21.0912 327.202 21.2064 327.349 21.296C327.388 21.3344 327.621 21.4688 328.05 21.6992C328.473 21.9424 328.687 22.064 328.693 22.064L328.905 21.872C328.975 21.7952 329.029 21.7088 329.068 21.6128C329.119 21.504 329.145 21.3664 329.145 21.2C329.145 21.04 329.116 20.9056 329.058 20.7968C328.994 20.6624 328.905 20.5632 328.789 20.4992C328.649 20.4096 328.485 20.3552 328.3 20.336ZM328.242 23.648L327.522 23.2448C327.484 23.2448 327.41 23.3056 327.301 23.4272C327.103 23.6128 326.975 23.8432 326.917 24.1184C326.892 24.2592 326.892 24.416 326.917 24.5888C326.949 24.768 327.007 24.9088 327.09 25.0112C327.18 25.1328 327.305 25.232 327.465 25.3088C327.599 25.3728 327.724 25.4144 327.839 25.4336C327.98 25.4592 328.165 25.4624 328.396 25.4432C328.415 25.4368 328.431 25.4336 328.444 25.4336C328.949 25.3696 329.247 25.1712 329.337 24.8384C329.356 24.7488 329.359 24.6464 329.346 24.5312C329.301 24.352 329.186 24.1984 329.001 24.0704L328.242 23.648Z" fill="black"/>
<path d="M285.162 15.768H286.17C286.533 15.8 286.837 15.864 287.082 15.96L287.194 15.992L287.482 15.88L287.77 15.752H287.946C288.064 15.752 288.138 15.7627 288.17 15.784C288.234 15.8267 288.272 15.9333 288.282 16.104C288.282 16.2 288.282 16.4293 288.282 16.792C288.282 17.4 288.245 17.7307 288.17 17.784C288.128 17.8053 287.973 17.816 287.706 17.816C287.44 17.816 287.285 17.8053 287.242 17.784C287.168 17.7307 287.13 17.6613 287.13 17.576C287.13 17.2453 286.976 17.0053 286.666 16.856C286.41 16.728 286.064 16.664 285.626 16.664C285.21 16.664 284.885 16.712 284.65 16.808C284.373 16.9253 284.234 17.1227 284.234 17.4C284.234 17.4427 284.245 17.4907 284.266 17.544C284.298 17.6827 284.416 17.8 284.618 17.896C284.768 17.9813 285.146 18.0827 285.754 18.2C286.309 18.296 286.698 18.376 286.922 18.44C287.562 18.664 288.048 19.016 288.378 19.496C288.528 19.7413 288.634 19.9813 288.698 20.216C288.72 20.3227 288.73 20.4827 288.73 20.696C288.73 20.92 288.72 21.0853 288.698 21.192C288.56 21.9387 288.154 22.4667 287.482 22.776C287.194 22.9147 286.837 23.0107 286.41 23.064C286.336 23.0747 286.122 23.08 285.77 23.08C285.386 23.08 285.045 23.048 284.746 22.984C284.554 22.9307 284.368 22.8613 284.186 22.776L284.01 22.696L283.626 22.888L283.226 23.096H283.066C282.938 23.096 282.858 23.0853 282.826 23.064C282.762 23.032 282.725 22.936 282.714 22.776C282.714 22.6693 282.714 22.3653 282.714 21.864C282.714 21.128 282.746 20.7333 282.81 20.68C282.864 20.648 283.018 20.632 283.274 20.632C283.552 20.632 283.712 20.6427 283.754 20.664C283.786 20.6853 283.84 20.7813 283.914 20.952C284.117 21.5387 284.512 21.9013 285.098 22.04C285.578 22.168 286.069 22.1627 286.57 22.024C286.944 21.896 287.157 21.6773 287.21 21.368C287.274 20.984 287.077 20.696 286.618 20.504C286.448 20.4293 286.117 20.3493 285.626 20.264C285.136 20.1787 284.864 20.1253 284.81 20.104C283.808 19.8693 283.152 19.3893 282.842 18.664C282.81 18.5787 282.784 18.4933 282.762 18.408C282.741 18.312 282.73 18.1627 282.73 17.96C282.73 17.7573 282.736 17.624 282.746 17.56C282.885 16.888 283.253 16.4027 283.85 16.104C284.213 15.912 284.65 15.8 285.162 15.768ZM290.322 19.5488V19.5104H290.668H291.013V19.5392C291.013 19.5904 291.039 19.6352 291.09 19.6736C291.167 19.7248 291.295 19.7536 291.474 19.76C291.961 19.7984 292.684 19.8176 293.644 19.8176H294.729V20.096C294.729 20.2816 294.722 20.384 294.709 20.4032C294.697 20.4288 294.453 20.7072 293.98 21.2384C293.474 21.8016 293.218 22.0896 293.212 22.1024C292.905 22.4864 292.709 23.0016 292.626 23.648C292.575 23.9616 292.546 24.4192 292.54 25.0208C292.533 25.3856 292.514 25.6064 292.482 25.6832C292.482 25.6896 292.476 25.7024 292.463 25.7216C292.412 25.8176 292.341 25.9008 292.252 25.9712C292.002 26.144 291.743 26.1632 291.474 26.0288C291.442 26.0096 291.413 25.9904 291.388 25.9712C291.298 25.9008 291.228 25.8176 291.177 25.7216C291.125 25.6192 291.103 25.4784 291.109 25.2992C291.109 25.0432 291.138 24.7744 291.196 24.4928C291.279 24.064 291.426 23.6416 291.637 23.2256C291.804 22.8864 292.005 22.56 292.242 22.2464C292.377 22.0736 292.572 21.8432 292.828 21.5552L293.087 21.2576H292.54C291.535 21.2576 290.994 21.2736 290.917 21.3056C290.853 21.344 290.799 21.4816 290.754 21.7184C290.703 21.9488 290.677 22.1024 290.677 22.1792C290.677 22.1856 290.562 22.1888 290.332 22.1888H289.986V22.1504C289.98 22.1632 290.037 21.728 290.159 20.8448C290.268 19.9872 290.322 19.5552 290.322 19.5488Z" fill="black"/>
<path d="M249.162 15.768H250.17C250.533 15.8 250.837 15.864 251.082 15.96L251.194 15.992L251.482 15.88L251.77 15.752H251.946C252.064 15.752 252.138 15.7627 252.17 15.784C252.234 15.8267 252.272 15.9333 252.282 16.104C252.282 16.2 252.282 16.4293 252.282 16.792C252.282 17.4 252.245 17.7307 252.17 17.784C252.128 17.8053 251.973 17.816 251.706 17.816C251.44 17.816 251.285 17.8053 251.242 17.784C251.168 17.7307 251.13 17.6613 251.13 17.576C251.13 17.2453 250.976 17.0053 250.666 16.856C250.41 16.728 250.064 16.664 249.626 16.664C249.21 16.664 248.885 16.712 248.65 16.808C248.373 16.9253 248.234 17.1227 248.234 17.4C248.234 17.4427 248.245 17.4907 248.266 17.544C248.298 17.6827 248.416 17.8 248.618 17.896C248.768 17.9813 249.146 18.0827 249.754 18.2C250.309 18.296 250.698 18.376 250.922 18.44C251.562 18.664 252.048 19.016 252.378 19.496C252.528 19.7413 252.634 19.9813 252.698 20.216C252.72 20.3227 252.73 20.4827 252.73 20.696C252.73 20.92 252.72 21.0853 252.698 21.192C252.56 21.9387 252.154 22.4667 251.482 22.776C251.194 22.9147 250.837 23.0107 250.41 23.064C250.336 23.0747 250.122 23.08 249.77 23.08C249.386 23.08 249.045 23.048 248.746 22.984C248.554 22.9307 248.368 22.8613 248.186 22.776L248.01 22.696L247.626 22.888L247.226 23.096H247.066C246.938 23.096 246.858 23.0853 246.826 23.064C246.762 23.032 246.725 22.936 246.714 22.776C246.714 22.6693 246.714 22.3653 246.714 21.864C246.714 21.128 246.746 20.7333 246.81 20.68C246.864 20.648 247.018 20.632 247.274 20.632C247.552 20.632 247.712 20.6427 247.754 20.664C247.786 20.6853 247.84 20.7813 247.914 20.952C248.117 21.5387 248.512 21.9013 249.098 22.04C249.578 22.168 250.069 22.1627 250.57 22.024C250.944 21.896 251.157 21.6773 251.21 21.368C251.274 20.984 251.077 20.696 250.618 20.504C250.448 20.4293 250.117 20.3493 249.626 20.264C249.136 20.1787 248.864 20.1253 248.81 20.104C247.808 19.8693 247.152 19.3893 246.842 18.664C246.81 18.5787 246.784 18.4933 246.762 18.408C246.741 18.312 246.73 18.1627 246.73 17.96C246.73 17.7573 246.736 17.624 246.746 17.56C246.885 16.888 247.253 16.4027 247.85 16.104C248.213 15.912 248.65 15.8 249.162 15.768ZM256.521 19.7216H256.943C257.289 19.76 257.567 19.8848 257.778 20.096C258.002 20.32 258.124 20.6112 258.143 20.9696C258.149 21.1424 258.117 21.296 258.047 21.4304C257.989 21.5392 257.9 21.6224 257.778 21.68C257.676 21.7312 257.557 21.7568 257.423 21.7568C257.289 21.7568 257.17 21.7312 257.068 21.68C256.946 21.6224 256.857 21.5392 256.799 21.4304C256.677 21.2128 256.665 20.9792 256.761 20.7296C256.773 20.704 256.786 20.6816 256.799 20.6624C256.876 20.5536 256.953 20.4768 257.029 20.432L257.087 20.4032L257.068 20.384L256.962 20.3552C256.847 20.3232 256.687 20.32 256.482 20.3456C256.284 20.384 256.111 20.4544 255.964 20.5568C255.797 20.6528 255.673 20.7872 255.589 20.96C255.474 21.1776 255.407 21.552 255.388 22.0832V22.304L255.378 22.3424L255.436 22.2752C255.628 22.0832 255.839 21.9584 256.069 21.9008C256.191 21.8752 256.348 21.8656 256.54 21.872C256.981 21.8912 257.356 22.0224 257.663 22.2656C258.047 22.5664 258.281 22.9376 258.364 23.3792C258.402 23.5392 258.418 23.7344 258.412 23.9648C258.412 24.2208 258.393 24.432 258.354 24.5984C258.258 24.9952 258.031 25.3376 257.673 25.6256C257.378 25.8688 257.017 26.0224 256.588 26.0864C256.364 26.112 256.114 26.1152 255.839 26.096C255.82 26.0896 255.804 26.0864 255.791 26.0864C255.145 25.9904 254.671 25.7056 254.37 25.232C254.012 24.688 253.833 23.9264 253.833 22.9472C253.833 22.6144 253.858 22.3168 253.909 22.0544C254.005 21.6256 254.162 21.2416 254.38 20.9024C254.745 20.3456 255.266 19.984 255.945 19.8176C256.117 19.7728 256.309 19.7408 256.521 19.7216ZM256.473 22.4768L256.252 22.4576C256.111 22.4576 255.996 22.48 255.906 22.5248C255.65 22.6464 255.487 22.9568 255.417 23.456C255.391 23.6736 255.381 23.9616 255.388 24.32C255.394 24.704 255.417 24.9344 255.455 25.0112C255.57 25.2608 255.756 25.4048 256.012 25.4432C256.095 25.456 256.197 25.456 256.319 25.4432C256.492 25.424 256.626 25.3664 256.722 25.2704C256.799 25.1936 256.841 25.0848 256.847 24.944C256.853 24.8928 256.86 24.8032 256.866 24.6752L256.857 22.9184C256.857 22.8992 256.857 22.8864 256.857 22.88C256.85 22.7904 256.812 22.7072 256.741 22.6304C256.671 22.56 256.581 22.5088 256.473 22.4768Z" fill="black"/>
<path d="M213.162 15.768H214.17C214.533 15.8 214.837 15.864 215.082 15.96L215.194 15.992L215.482 15.88L215.77 15.752H215.946C216.064 15.752 216.138 15.7627 216.17 15.784C216.234 15.8267 216.272 15.9333 216.282 16.104C216.282 16.2 216.282 16.4293 216.282 16.792C216.282 17.4 216.245 17.7307 216.17 17.784C216.128 17.8053 215.973 17.816 215.706 17.816C215.44 17.816 215.285 17.8053 215.242 17.784C215.168 17.7307 215.13 17.6613 215.13 17.576C215.13 17.2453 214.976 17.0053 214.666 16.856C214.41 16.728 214.064 16.664 213.626 16.664C213.21 16.664 212.885 16.712 212.65 16.808C212.373 16.9253 212.234 17.1227 212.234 17.4C212.234 17.4427 212.245 17.4907 212.266 17.544C212.298 17.6827 212.416 17.8 212.618 17.896C212.768 17.9813 213.146 18.0827 213.754 18.2C214.309 18.296 214.698 18.376 214.922 18.44C215.562 18.664 216.048 19.016 216.378 19.496C216.528 19.7413 216.634 19.9813 216.698 20.216C216.72 20.3227 216.73 20.4827 216.73 20.696C216.73 20.92 216.72 21.0853 216.698 21.192C216.56 21.9387 216.154 22.4667 215.482 22.776C215.194 22.9147 214.837 23.0107 214.41 23.064C214.336 23.0747 214.122 23.08 213.77 23.08C213.386 23.08 213.045 23.048 212.746 22.984C212.554 22.9307 212.368 22.8613 212.186 22.776L212.01 22.696L211.626 22.888L211.226 23.096H211.066C210.938 23.096 210.858 23.0853 210.826 23.064C210.762 23.032 210.725 22.936 210.714 22.776C210.714 22.6693 210.714 22.3653 210.714 21.864C210.714 21.128 210.746 20.7333 210.81 20.68C210.864 20.648 211.018 20.632 211.274 20.632C211.552 20.632 211.712 20.6427 211.754 20.664C211.786 20.6853 211.84 20.7813 211.914 20.952C212.117 21.5387 212.512 21.9013 213.098 22.04C213.578 22.168 214.069 22.1627 214.57 22.024C214.944 21.896 215.157 21.6773 215.21 21.368C215.274 20.984 215.077 20.696 214.618 20.504C214.448 20.4293 214.117 20.3493 213.626 20.264C213.136 20.1787 212.864 20.1253 212.81 20.104C211.808 19.8693 211.152 19.3893 210.842 18.664C210.81 18.5787 210.784 18.4933 210.762 18.408C210.741 18.312 210.73 18.1627 210.73 17.96C210.73 17.7573 210.736 17.624 210.746 17.56C210.885 16.888 211.253 16.4027 211.85 16.104C212.213 15.912 212.65 15.8 213.162 15.768ZM218.351 19.7312C218.377 19.7184 218.396 19.712 218.409 19.712C218.428 19.712 218.505 19.7344 218.639 19.7792C219.106 19.9328 219.593 20.0096 220.098 20.0096C220.623 20.0096 221.113 19.9296 221.567 19.7696C221.695 19.7312 221.762 19.712 221.769 19.712C221.833 19.712 221.871 19.7376 221.884 19.7888C221.897 19.8016 221.903 19.8752 221.903 20.0096C221.903 20.144 221.884 20.2336 221.845 20.2784C221.852 20.272 221.833 20.2944 221.788 20.3456C221.564 20.608 221.295 20.8288 220.981 21.008C220.642 21.2 220.274 21.3248 219.877 21.3824C219.788 21.3952 219.637 21.4016 219.426 21.4016H219.071L219.033 21.392V21.8816V22.3712L219.1 22.3328C219.381 22.1664 219.692 22.08 220.031 22.0736C220.607 22.0608 221.093 22.1856 221.49 22.448C221.893 22.7168 222.153 23.0816 222.268 23.5424C222.306 23.7088 222.325 23.8816 222.325 24.0608C222.325 24.2784 222.303 24.4576 222.258 24.5984C222.066 25.2768 221.583 25.7312 220.809 25.9616C220.578 26.032 220.332 26.0768 220.069 26.096C219.602 26.1344 219.189 26.0672 218.831 25.8944C218.517 25.7472 218.281 25.5424 218.121 25.28C217.929 24.9728 217.871 24.6656 217.948 24.3584C217.954 24.3136 217.967 24.272 217.986 24.2336C218.108 23.9712 218.319 23.8304 218.62 23.8112C218.729 23.8048 218.837 23.8176 218.946 23.8496C219.196 23.9264 219.356 24.0928 219.426 24.3488C219.439 24.4256 219.445 24.4992 219.445 24.5696C219.445 24.736 219.401 24.8896 219.311 25.0304C219.241 25.12 219.164 25.1872 219.081 25.232C219.055 25.2448 219.042 25.2544 219.042 25.2608L219.282 25.3664C219.289 25.3728 219.295 25.376 219.301 25.376C219.474 25.44 219.682 25.4624 219.925 25.4432C220.181 25.4176 220.377 25.3376 220.511 25.2032C220.639 25.0688 220.713 24.8064 220.732 24.416C220.732 24.2752 220.732 24.0928 220.732 23.8688C220.725 23.376 220.7 23.0784 220.655 22.976C220.623 22.8992 220.556 22.8256 220.453 22.7552C220.415 22.7296 220.367 22.7104 220.309 22.6976C220.258 22.6784 220.175 22.6688 220.06 22.6688C219.733 22.6688 219.465 22.7424 219.253 22.8896C219.132 22.9664 219.039 23.056 218.975 23.1584C218.911 23.248 218.85 23.296 218.793 23.3024C218.767 23.3088 218.709 23.312 218.62 23.312C218.485 23.312 218.409 23.3056 218.389 23.2928C218.351 23.2736 218.322 23.2448 218.303 23.2064C218.29 23.1808 218.284 22.6112 218.284 21.4976C218.284 20.3584 218.293 19.776 218.313 19.7504L218.351 19.7312Z" fill="black"/>
<path d="M177.162 15.768H178.17C178.533 15.8 178.837 15.864 179.082 15.96L179.194 15.992L179.482 15.88L179.77 15.752H179.946C180.064 15.752 180.138 15.7627 180.17 15.784C180.234 15.8267 180.272 15.9333 180.282 16.104C180.282 16.2 180.282 16.4293 180.282 16.792C180.282 17.4 180.245 17.7307 180.17 17.784C180.128 17.8053 179.973 17.816 179.706 17.816C179.44 17.816 179.285 17.8053 179.242 17.784C179.168 17.7307 179.13 17.6613 179.13 17.576C179.13 17.2453 178.976 17.0053 178.666 16.856C178.41 16.728 178.064 16.664 177.626 16.664C177.21 16.664 176.885 16.712 176.65 16.808C176.373 16.9253 176.234 17.1227 176.234 17.4C176.234 17.4427 176.245 17.4907 176.266 17.544C176.298 17.6827 176.416 17.8 176.618 17.896C176.768 17.9813 177.146 18.0827 177.754 18.2C178.309 18.296 178.698 18.376 178.922 18.44C179.562 18.664 180.048 19.016 180.378 19.496C180.528 19.7413 180.634 19.9813 180.698 20.216C180.72 20.3227 180.73 20.4827 180.73 20.696C180.73 20.92 180.72 21.0853 180.698 21.192C180.56 21.9387 180.154 22.4667 179.482 22.776C179.194 22.9147 178.837 23.0107 178.41 23.064C178.336 23.0747 178.122 23.08 177.77 23.08C177.386 23.08 177.045 23.048 176.746 22.984C176.554 22.9307 176.368 22.8613 176.186 22.776L176.01 22.696L175.626 22.888L175.226 23.096H175.066C174.938 23.096 174.858 23.0853 174.826 23.064C174.762 23.032 174.725 22.936 174.714 22.776C174.714 22.6693 174.714 22.3653 174.714 21.864C174.714 21.128 174.746 20.7333 174.81 20.68C174.864 20.648 175.018 20.632 175.274 20.632C175.552 20.632 175.712 20.6427 175.754 20.664C175.786 20.6853 175.84 20.7813 175.914 20.952C176.117 21.5387 176.512 21.9013 177.098 22.04C177.578 22.168 178.069 22.1627 178.57 22.024C178.944 21.896 179.157 21.6773 179.21 21.368C179.274 20.984 179.077 20.696 178.618 20.504C178.448 20.4293 178.117 20.3493 177.626 20.264C177.136 20.1787 176.864 20.1253 176.81 20.104C175.808 19.8693 175.152 19.3893 174.842 18.664C174.81 18.5787 174.784 18.4933 174.762 18.408C174.741 18.312 174.73 18.1627 174.73 17.96C174.73 17.7573 174.736 17.624 174.746 17.56C174.885 16.888 175.253 16.4027 175.85 16.104C176.213 15.912 176.65 15.8 177.162 15.768ZM184.991 19.7216C185.061 19.6896 185.253 19.6832 185.567 19.7024C185.618 19.7088 185.65 19.7152 185.663 19.7216C185.701 19.7344 185.73 19.76 185.749 19.7984C185.762 19.824 185.769 20.5024 185.769 21.8336V23.8304H186.172H186.575V24.176V24.5216H186.172H185.769V24.9152V25.3088H186.172H186.575V25.6544V26H186.469C186.476 26 186.223 25.9936 185.711 25.9808C185.269 25.9744 184.789 25.9744 184.271 25.9808L183.378 26H183.253V25.6544V25.3088H183.791H184.329V24.9152V24.5216H183.004H181.679V24.176V23.8304L183.273 21.824C184.361 20.4672 184.908 19.7856 184.914 19.7792C184.94 19.7408 184.965 19.7216 184.991 19.7216ZM184.434 23.8304V22.6016V21.3824L183.455 22.6016L182.485 23.8208L183.455 23.8304H184.434Z" fill="black"/>
<path d="M141.162 15.768H142.17C142.533 15.8 142.837 15.864 143.082 15.96L143.194 15.992L143.482 15.88L143.77 15.752H143.946C144.064 15.752 144.138 15.7627 144.17 15.784C144.234 15.8267 144.272 15.9333 144.282 16.104C144.282 16.2 144.282 16.4293 144.282 16.792C144.282 17.4 144.245 17.7307 144.17 17.784C144.128 17.8053 143.973 17.816 143.706 17.816C143.44 17.816 143.285 17.8053 143.242 17.784C143.168 17.7307 143.13 17.6613 143.13 17.576C143.13 17.2453 142.976 17.0053 142.666 16.856C142.41 16.728 142.064 16.664 141.626 16.664C141.21 16.664 140.885 16.712 140.65 16.808C140.373 16.9253 140.234 17.1227 140.234 17.4C140.234 17.4427 140.245 17.4907 140.266 17.544C140.298 17.6827 140.416 17.8 140.618 17.896C140.768 17.9813 141.146 18.0827 141.754 18.2C142.309 18.296 142.698 18.376 142.922 18.44C143.562 18.664 144.048 19.016 144.378 19.496C144.528 19.7413 144.634 19.9813 144.698 20.216C144.72 20.3227 144.73 20.4827 144.73 20.696C144.73 20.92 144.72 21.0853 144.698 21.192C144.56 21.9387 144.154 22.4667 143.482 22.776C143.194 22.9147 142.837 23.0107 142.41 23.064C142.336 23.0747 142.122 23.08 141.77 23.08C141.386 23.08 141.045 23.048 140.746 22.984C140.554 22.9307 140.368 22.8613 140.186 22.776L140.01 22.696L139.626 22.888L139.226 23.096H139.066C138.938 23.096 138.858 23.0853 138.826 23.064C138.762 23.032 138.725 22.936 138.714 22.776C138.714 22.6693 138.714 22.3653 138.714 21.864C138.714 21.128 138.746 20.7333 138.81 20.68C138.864 20.648 139.018 20.632 139.274 20.632C139.552 20.632 139.712 20.6427 139.754 20.664C139.786 20.6853 139.84 20.7813 139.914 20.952C140.117 21.5387 140.512 21.9013 141.098 22.04C141.578 22.168 142.069 22.1627 142.57 22.024C142.944 21.896 143.157 21.6773 143.21 21.368C143.274 20.984 143.077 20.696 142.618 20.504C142.448 20.4293 142.117 20.3493 141.626 20.264C141.136 20.1787 140.864 20.1253 140.81 20.104C139.808 19.8693 139.152 19.3893 138.842 18.664C138.81 18.5787 138.784 18.4933 138.762 18.408C138.741 18.312 138.73 18.1627 138.73 17.96C138.73 17.7573 138.736 17.624 138.746 17.56C138.885 16.888 139.253 16.4027 139.85 16.104C140.213 15.912 140.65 15.8 141.162 15.768ZM147.705 19.7216H148.252C148.802 19.76 149.257 19.9072 149.615 20.1632C149.852 20.3488 150.009 20.5856 150.085 20.8736C150.098 20.9376 150.105 21.0272 150.105 21.1424C150.105 21.2704 150.098 21.3632 150.085 21.4208C149.983 21.8944 149.676 22.272 149.164 22.5536L149.01 22.64H149.001C148.969 22.6592 148.949 22.6688 148.943 22.6688L149.001 22.688L149.183 22.7456C149.618 22.8928 149.935 23.104 150.133 23.3792C150.338 23.648 150.434 23.9488 150.421 24.2816C150.389 24.7936 150.188 25.2064 149.817 25.52C149.426 25.8592 148.895 26.0512 148.223 26.096C147.365 26.1536 146.703 25.9488 146.236 25.4816C146.044 25.2896 145.916 25.056 145.852 24.7808C145.826 24.6016 145.829 24.4384 145.861 24.2912C145.906 24.1056 146.002 23.9584 146.149 23.8496C146.309 23.7344 146.489 23.6768 146.687 23.6768C146.885 23.6768 147.065 23.7344 147.225 23.8496C147.372 23.9584 147.468 24.1056 147.513 24.2912C147.525 24.336 147.532 24.4128 147.532 24.5216C147.532 24.6368 147.525 24.72 147.513 24.7712C147.455 24.9632 147.343 25.12 147.177 25.2416L147.119 25.28L147.196 25.3088C147.311 25.36 147.42 25.392 147.522 25.4048C147.759 25.456 147.957 25.4656 148.117 25.4336C148.271 25.4016 148.396 25.3312 148.492 25.2224C148.613 25.088 148.684 24.8768 148.703 24.5888V23.8208C148.677 23.424 148.54 23.1648 148.29 23.0432C148.181 22.992 148.028 22.9632 147.829 22.9568C147.804 22.9568 147.756 22.9568 147.685 22.9568C147.442 22.9568 147.301 22.9504 147.263 22.9376C147.225 22.9056 147.205 22.8128 147.205 22.6592C147.205 22.5056 147.225 22.4192 147.263 22.4C147.295 22.3808 147.388 22.368 147.541 22.3616C147.759 22.3488 147.903 22.3264 147.973 22.2944C148.281 22.1728 148.469 21.872 148.54 21.392C148.565 21.2256 148.565 21.0304 148.54 20.8064C148.508 20.576 148.38 20.4256 148.156 20.3552C148.117 20.3424 148.041 20.336 147.925 20.336C147.772 20.336 147.637 20.3552 147.522 20.3936L147.273 20.4992L147.33 20.5376C147.509 20.6336 147.628 20.7872 147.685 20.9984C147.698 21.0432 147.705 21.12 147.705 21.2288C147.705 21.3312 147.698 21.408 147.685 21.4592C147.589 21.7792 147.372 21.9584 147.033 21.9968C147.001 22.0032 146.965 22.0064 146.927 22.0064C146.575 22.0064 146.332 21.8528 146.197 21.5456C146.185 21.52 146.175 21.4912 146.169 21.4592C146.156 21.408 146.149 21.3248 146.149 21.2096C146.149 21.0944 146.156 21.008 146.169 20.9504C146.201 20.784 146.268 20.624 146.37 20.4704C146.613 20.0928 147.007 19.8528 147.551 19.7504C147.602 19.7376 147.653 19.728 147.705 19.7216Z" fill="black"/>
<path d="M105.162 15.768H106.17C106.533 15.8 106.837 15.864 107.082 15.96L107.194 15.992L107.482 15.88L107.77 15.752H107.946C108.064 15.752 108.138 15.7627 108.17 15.784C108.234 15.8267 108.272 15.9333 108.282 16.104C108.282 16.2 108.282 16.4293 108.282 16.792C108.282 17.4 108.245 17.7307 108.17 17.784C108.128 17.8053 107.973 17.816 107.706 17.816C107.44 17.816 107.285 17.8053 107.242 17.784C107.168 17.7307 107.13 17.6613 107.13 17.576C107.13 17.2453 106.976 17.0053 106.666 16.856C106.41 16.728 106.064 16.664 105.626 16.664C105.21 16.664 104.885 16.712 104.65 16.808C104.373 16.9253 104.234 17.1227 104.234 17.4C104.234 17.4427 104.245 17.4907 104.266 17.544C104.298 17.6827 104.416 17.8 104.618 17.896C104.768 17.9813 105.146 18.0827 105.754 18.2C106.309 18.296 106.698 18.376 106.922 18.44C107.562 18.664 108.048 19.016 108.378 19.496C108.528 19.7413 108.634 19.9813 108.698 20.216C108.72 20.3227 108.73 20.4827 108.73 20.696C108.73 20.92 108.72 21.0853 108.698 21.192C108.56 21.9387 108.154 22.4667 107.482 22.776C107.194 22.9147 106.837 23.0107 106.41 23.064C106.336 23.0747 106.122 23.08 105.77 23.08C105.386 23.08 105.045 23.048 104.746 22.984C104.554 22.9307 104.368 22.8613 104.186 22.776L104.01 22.696L103.626 22.888L103.226 23.096H103.066C102.938 23.096 102.858 23.0853 102.826 23.064C102.762 23.032 102.725 22.936 102.714 22.776C102.714 22.6693 102.714 22.3653 102.714 21.864C102.714 21.128 102.746 20.7333 102.81 20.68C102.864 20.648 103.018 20.632 103.274 20.632C103.552 20.632 103.712 20.6427 103.754 20.664C103.786 20.6853 103.84 20.7813 103.914 20.952C104.117 21.5387 104.512 21.9013 105.098 22.04C105.578 22.168 106.069 22.1627 106.57 22.024C106.944 21.896 107.157 21.6773 107.21 21.368C107.274 20.984 107.077 20.696 106.618 20.504C106.448 20.4293 106.117 20.3493 105.626 20.264C105.136 20.1787 104.864 20.1253 104.81 20.104C103.808 19.8693 103.152 19.3893 102.842 18.664C102.81 18.5787 102.784 18.4933 102.762 18.408C102.741 18.312 102.73 18.1627 102.73 17.96C102.73 17.7573 102.736 17.624 102.746 17.56C102.885 16.888 103.253 16.4027 103.85 16.104C104.213 15.912 104.65 15.8 105.162 15.768ZM111.743 19.7216L112.386 19.7312C112.93 19.808 113.372 19.9936 113.711 20.288C114.127 20.64 114.335 21.0944 114.335 21.6512C114.335 22.0736 114.143 22.4672 113.759 22.832C113.631 22.9536 113.369 23.152 112.972 23.4272C112.703 23.6064 112.38 23.8464 112.002 24.1472L111.493 24.5504L111.964 24.56C112.841 24.56 113.321 24.544 113.404 24.512C113.455 24.4928 113.509 24.368 113.567 24.1376L113.644 23.6384C113.644 23.632 113.759 23.6288 113.989 23.6288H114.335V23.6672C114.329 23.68 114.277 24.0608 114.181 24.8096C114.098 25.5456 114.05 25.9296 114.037 25.9616V26H111.973H109.919V25.712C109.919 25.5136 109.922 25.4048 109.929 25.3856C109.941 25.36 110.252 25.0432 110.86 24.4352C111.641 23.6352 112.089 23.1584 112.204 23.0048C112.223 22.9856 112.245 22.9568 112.271 22.9184C112.45 22.6944 112.575 22.48 112.645 22.2752C112.722 22.0704 112.761 21.8624 112.761 21.6512C112.761 21.4976 112.738 21.344 112.693 21.1904C112.521 20.736 112.181 20.4768 111.676 20.4128C111.631 20.4064 111.589 20.4032 111.551 20.4032C111.378 20.4032 111.282 20.4128 111.263 20.432L111.321 20.4992C111.474 20.6656 111.548 20.864 111.541 21.0944C111.522 21.4912 111.324 21.744 110.946 21.8528C110.895 21.8656 110.825 21.872 110.735 21.872C110.639 21.872 110.565 21.8656 110.514 21.8528C110.213 21.7632 110.025 21.5776 109.948 21.296C109.935 21.2512 109.929 21.1712 109.929 21.056C109.929 20.9472 109.938 20.8576 109.957 20.7872C110.009 20.5952 110.098 20.4352 110.226 20.3072C110.354 20.1728 110.517 20.0576 110.716 19.9616C110.908 19.872 111.122 19.808 111.359 19.7696C111.41 19.7568 111.538 19.7408 111.743 19.7216Z" fill="black"/>
<path d="M69.1623 15.768H70.1702C70.5329 15.8 70.8369 15.864 71.0823 15.96L71.1943 15.992L71.4823 15.88L71.7702 15.752H71.9462C72.0636 15.752 72.1383 15.7627 72.1702 15.784C72.2343 15.8267 72.2716 15.9333 72.2822 16.104C72.2822 16.2 72.2822 16.4293 72.2822 16.792C72.2822 17.4 72.2449 17.7307 72.1702 17.784C72.1276 17.8053 71.9729 17.816 71.7063 17.816C71.4396 17.816 71.2849 17.8053 71.2422 17.784C71.1676 17.7307 71.1302 17.6613 71.1302 17.576C71.1302 17.2453 70.9756 17.0053 70.6663 16.856C70.4103 16.728 70.0636 16.664 69.6263 16.664C69.2102 16.664 68.8849 16.712 68.6502 16.808C68.3729 16.9253 68.2342 17.1227 68.2342 17.4C68.2342 17.4427 68.2449 17.4907 68.2662 17.544C68.2982 17.6827 68.4156 17.8 68.6182 17.896C68.7676 17.9813 69.1462 18.0827 69.7543 18.2C70.3089 18.296 70.6982 18.376 70.9223 18.44C71.5623 18.664 72.0476 19.016 72.3783 19.496C72.5276 19.7413 72.6343 19.9813 72.6983 20.216C72.7196 20.3227 72.7303 20.4827 72.7303 20.696C72.7303 20.92 72.7196 21.0853 72.6983 21.192C72.5596 21.9387 72.1543 22.4667 71.4823 22.776C71.1943 22.9147 70.8369 23.0107 70.4103 23.064C70.3356 23.0747 70.1223 23.08 69.7703 23.08C69.3862 23.08 69.0449 23.048 68.7462 22.984C68.5542 22.9307 68.3676 22.8613 68.1862 22.776L68.0102 22.696L67.6262 22.888L67.2262 23.096H67.0662C66.9382 23.096 66.8582 23.0853 66.8262 23.064C66.7622 23.032 66.7249 22.936 66.7142 22.776C66.7142 22.6693 66.7142 22.3653 66.7142 21.864C66.7142 21.128 66.7462 20.7333 66.8102 20.68C66.8636 20.648 67.0182 20.632 67.2742 20.632C67.5516 20.632 67.7116 20.6427 67.7542 20.664C67.7862 20.6853 67.8396 20.7813 67.9142 20.952C68.1169 21.5387 68.5116 21.9013 69.0982 22.04C69.5782 22.168 70.0689 22.1627 70.5703 22.024C70.9436 21.896 71.1569 21.6773 71.2102 21.368C71.2743 20.984 71.0769 20.696 70.6182 20.504C70.4476 20.4293 70.1169 20.3493 69.6263 20.264C69.1356 20.1787 68.8636 20.1253 68.8103 20.104C67.8076 19.8693 67.1516 19.3893 66.8422 18.664C66.8102 18.5787 66.7836 18.4933 66.7622 18.408C66.7409 18.312 66.7302 18.1627 66.7302 17.96C66.7302 17.7573 66.7356 17.624 66.7462 17.56C66.8849 16.888 67.2529 16.4027 67.8502 16.104C68.2129 15.912 68.6502 15.8 69.1623 15.768ZM76.4343 19.7216C76.4407 19.7152 76.4951 19.712 76.5975 19.712C76.7447 19.712 76.8343 19.7472 76.8663 19.8176C76.8791 19.8432 76.8855 20.7648 76.8855 22.5824V25.3088H77.4999H78.1143V25.6544V26H77.9895L77.0295 25.9808C76.4727 25.9744 75.9191 25.9744 75.3687 25.9808C74.7287 25.9936 74.4119 26 74.4183 26H74.2935V25.6544V25.3088H74.8983H75.5031V23.0912V20.8736L75.3975 20.8928C75.0647 20.976 74.6999 21.0176 74.3031 21.0176H74.1399V20.672V20.3264H74.3031C75.0199 20.3264 75.6119 20.2016 76.0791 19.952C76.2327 19.8816 76.3511 19.8048 76.4343 19.7216Z" fill="black"/>
<path d="M323.654 57.536L324.614 57.552C325.702 57.712 326.497 58.1707 326.998 58.928C327.425 59.568 327.686 60.3627 327.782 61.312C327.825 61.664 327.852 62.1013 327.862 62.624C327.873 64.2133 327.702 65.392 327.35 66.16C327.34 66.2027 327.324 66.24 327.302 66.272C327.121 66.6453 326.918 66.944 326.694 67.168C326.193 67.7013 325.478 68.0267 324.55 68.144C324.284 68.1867 323.942 68.192 323.526 68.16C323.484 68.1493 323.452 68.144 323.43 68.144C322.364 68.016 321.574 67.6053 321.062 66.912C320.774 66.528 320.556 66.0693 320.406 65.536C320.204 64.8533 320.108 63.8827 320.118 62.624C320.129 62.1013 320.156 61.664 320.198 61.312C320.316 60.192 320.652 59.3013 321.206 58.64C321.708 58.0213 322.454 57.6587 323.446 57.552C323.5 57.5413 323.569 57.536 323.654 57.536ZM324.23 58.528C323.686 58.432 323.244 58.592 322.902 59.008C322.838 59.0933 322.78 59.184 322.726 59.28C322.684 59.376 322.646 59.5787 322.614 59.888C322.54 60.8587 322.529 62.528 322.582 64.896C322.593 65.248 322.604 65.504 322.614 65.664C322.625 65.9413 322.657 66.1493 322.71 66.288C322.881 66.7467 323.196 67.0347 323.654 67.152C323.878 67.216 324.102 67.216 324.326 67.152C324.785 67.0347 325.1 66.7467 325.27 66.288C325.324 66.1493 325.356 65.9413 325.366 65.664C325.441 64.608 325.452 62.928 325.398 60.624C325.388 60.2827 325.377 60.0373 325.366 59.888C325.334 59.5787 325.297 59.376 325.254 59.28C325.041 58.8427 324.7 58.592 324.23 58.528Z" fill="black"/>
<path d="M287.654 57.536L288.614 57.552C289.702 57.712 290.497 58.1707 290.998 58.928C291.425 59.568 291.686 60.3627 291.782 61.312C291.825 61.664 291.852 62.1013 291.862 62.624C291.873 64.2133 291.702 65.392 291.35 66.16C291.34 66.2027 291.324 66.24 291.302 66.272C291.121 66.6453 290.918 66.944 290.694 67.168C290.193 67.7013 289.478 68.0267 288.55 68.144C288.284 68.1867 287.942 68.192 287.526 68.16C287.484 68.1493 287.452 68.144 287.43 68.144C286.364 68.016 285.574 67.6053 285.062 66.912C284.774 66.528 284.556 66.0693 284.406 65.536C284.204 64.8533 284.108 63.8827 284.118 62.624C284.129 62.1013 284.156 61.664 284.198 61.312C284.316 60.192 284.652 59.3013 285.206 58.64C285.708 58.0213 286.454 57.6587 287.446 57.552C287.5 57.5413 287.569 57.536 287.654 57.536ZM288.23 58.528C287.686 58.432 287.244 58.592 286.902 59.008C286.838 59.0933 286.78 59.184 286.726 59.28C286.684 59.376 286.646 59.5787 286.614 59.888C286.54 60.8587 286.529 62.528 286.582 64.896C286.593 65.248 286.604 65.504 286.614 65.664C286.625 65.9413 286.657 66.1493 286.71 66.288C286.881 66.7467 287.196 67.0347 287.654 67.152C287.878 67.216 288.102 67.216 288.326 67.152C288.785 67.0347 289.1 66.7467 289.27 66.288C289.324 66.1493 289.356 65.9413 289.366 65.664C289.441 64.608 289.452 62.928 289.398 60.624C289.388 60.2827 289.377 60.0373 289.366 59.888C289.334 59.5787 289.297 59.376 289.254 59.28C289.041 58.8427 288.7 58.592 288.23 58.528Z" fill="black"/>
<path d="M251.654 57.536L252.614 57.552C253.702 57.712 254.497 58.1707 254.998 58.928C255.425 59.568 255.686 60.3627 255.782 61.312C255.825 61.664 255.852 62.1013 255.862 62.624C255.873 64.2133 255.702 65.392 255.35 66.16C255.34 66.2027 255.324 66.24 255.302 66.272C255.121 66.6453 254.918 66.944 254.694 67.168C254.193 67.7013 253.478 68.0267 252.55 68.144C252.284 68.1867 251.942 68.192 251.526 68.16C251.484 68.1493 251.452 68.144 251.43 68.144C250.364 68.016 249.574 67.6053 249.062 66.912C248.774 66.528 248.556 66.0693 248.406 65.536C248.204 64.8533 248.108 63.8827 248.118 62.624C248.129 62.1013 248.156 61.664 248.198 61.312C248.316 60.192 248.652 59.3013 249.206 58.64C249.708 58.0213 250.454 57.6587 251.446 57.552C251.5 57.5413 251.569 57.536 251.654 57.536ZM252.23 58.528C251.686 58.432 251.244 58.592 250.902 59.008C250.838 59.0933 250.78 59.184 250.726 59.28C250.684 59.376 250.646 59.5787 250.614 59.888C250.54 60.8587 250.529 62.528 250.582 64.896C250.593 65.248 250.604 65.504 250.614 65.664C250.625 65.9413 250.657 66.1493 250.71 66.288C250.881 66.7467 251.196 67.0347 251.654 67.152C251.878 67.216 252.102 67.216 252.326 67.152C252.785 67.0347 253.1 66.7467 253.27 66.288C253.324 66.1493 253.356 65.9413 253.366 65.664C253.441 64.608 253.452 62.928 253.398 60.624C253.388 60.2827 253.377 60.0373 253.366 59.888C253.334 59.5787 253.297 59.376 253.254 59.28C253.041 58.8427 252.7 58.592 252.23 58.528Z" fill="black"/>
<path d="M216.502 57.536C216.513 57.5253 216.604 57.52 216.774 57.52C217.02 57.52 217.169 57.5787 217.222 57.696C217.244 57.7387 217.254 59.2747 217.254 62.304V66.848H218.278H219.302V67.424V68H219.094L217.494 67.968C216.566 67.9573 215.644 67.9573 214.726 67.968C213.66 67.9893 213.132 68 213.142 68H212.934V67.424V66.848H213.942H214.95V63.152V59.456L214.774 59.488C214.22 59.6267 213.612 59.696 212.95 59.696H212.678V59.12V58.544H212.95C214.145 58.544 215.132 58.336 215.91 57.92C216.166 57.8027 216.364 57.6747 216.502 57.536Z" fill="black"/>
<path d="M179.654 57.536L180.614 57.552C181.702 57.712 182.497 58.1707 182.998 58.928C183.425 59.568 183.686 60.3627 183.782 61.312C183.825 61.664 183.852 62.1013 183.862 62.624C183.873 64.2133 183.702 65.392 183.35 66.16C183.34 66.2027 183.324 66.24 183.302 66.272C183.121 66.6453 182.918 66.944 182.694 67.168C182.193 67.7013 181.478 68.0267 180.55 68.144C180.284 68.1867 179.942 68.192 179.526 68.16C179.484 68.1493 179.452 68.144 179.43 68.144C178.364 68.016 177.574 67.6053 177.062 66.912C176.774 66.528 176.556 66.0693 176.406 65.536C176.204 64.8533 176.108 63.8827 176.118 62.624C176.129 62.1013 176.156 61.664 176.198 61.312C176.316 60.192 176.652 59.3013 177.206 58.64C177.708 58.0213 178.454 57.6587 179.446 57.552C179.5 57.5413 179.569 57.536 179.654 57.536ZM180.23 58.528C179.686 58.432 179.244 58.592 178.902 59.008C178.838 59.0933 178.78 59.184 178.726 59.28C178.684 59.376 178.646 59.5787 178.614 59.888C178.54 60.8587 178.529 62.528 178.582 64.896C178.593 65.248 178.604 65.504 178.614 65.664C178.625 65.9413 178.657 66.1493 178.71 66.288C178.881 66.7467 179.196 67.0347 179.654 67.152C179.878 67.216 180.102 67.216 180.326 67.152C180.785 67.0347 181.1 66.7467 181.27 66.288C181.324 66.1493 181.356 65.9413 181.366 65.664C181.441 64.608 181.452 62.928 181.398 60.624C181.388 60.2827 181.377 60.0373 181.366 59.888C181.334 59.5787 181.297 59.376 181.254 59.28C181.041 58.8427 180.7 58.592 180.23 58.528Z" fill="black"/>
<path d="M144.502 57.536C144.513 57.5253 144.604 57.52 144.774 57.52C145.02 57.52 145.169 57.5787 145.222 57.696C145.244 57.7387 145.254 59.2747 145.254 62.304V66.848H146.278H147.302V67.424V68H147.094L145.494 67.968C144.566 67.9573 143.644 67.9573 142.726 67.968C141.66 67.9893 141.132 68 141.142 68H140.934V67.424V66.848H141.942H142.95V63.152V59.456L142.774 59.488C142.22 59.6267 141.612 59.696 140.95 59.696H140.678V59.12V58.544H140.95C142.145 58.544 143.132 58.336 143.91 57.92C144.166 57.8027 144.364 57.6747 144.502 57.536Z" fill="black"/>
<path d="M107.654 57.536L108.614 57.552C109.702 57.712 110.497 58.1707 110.998 58.928C111.425 59.568 111.686 60.3627 111.782 61.312C111.825 61.664 111.852 62.1013 111.862 62.624C111.873 64.2133 111.702 65.392 111.35 66.16C111.34 66.2027 111.324 66.24 111.302 66.272C111.121 66.6453 110.918 66.944 110.694 67.168C110.193 67.7013 109.478 68.0267 108.55 68.144C108.284 68.1867 107.942 68.192 107.526 68.16C107.484 68.1493 107.452 68.144 107.43 68.144C106.364 68.016 105.574 67.6053 105.062 66.912C104.774 66.528 104.556 66.0693 104.406 65.536C104.204 64.8533 104.108 63.8827 104.118 62.624C104.129 62.1013 104.156 61.664 104.198 61.312C104.316 60.192 104.652 59.3013 105.206 58.64C105.708 58.0213 106.454 57.6587 107.446 57.552C107.5 57.5413 107.569 57.536 107.654 57.536ZM108.23 58.528C107.686 58.432 107.244 58.592 106.902 59.008C106.838 59.0933 106.78 59.184 106.726 59.28C106.684 59.376 106.646 59.5787 106.614 59.888C106.54 60.8587 106.529 62.528 106.582 64.896C106.593 65.248 106.604 65.504 106.614 65.664C106.625 65.9413 106.657 66.1493 106.71 66.288C106.881 66.7467 107.196 67.0347 107.654 67.152C107.878 67.216 108.102 67.216 108.326 67.152C108.785 67.0347 109.1 66.7467 109.27 66.288C109.324 66.1493 109.356 65.9413 109.366 65.664C109.441 64.608 109.452 62.928 109.398 60.624C109.388 60.2827 109.377 60.0373 109.366 59.888C109.334 59.5787 109.297 59.376 109.254 59.28C109.041 58.8427 108.7 58.592 108.23 58.528Z" fill="black"/>
<path d="M71.6544 57.536L72.6144 57.552C73.7024 57.712 74.4971 58.1707 74.9984 58.928C75.4251 59.568 75.6864 60.3627 75.7824 61.312C75.8251 61.664 75.8518 62.1013 75.8624 62.624C75.8731 64.2133 75.7024 65.392 75.3504 66.16C75.3398 66.2027 75.3238 66.24 75.3024 66.272C75.1211 66.6453 74.9184 66.944 74.6944 67.168C74.1931 67.7013 73.4784 68.0267 72.5504 68.144C72.2838 68.1867 71.9424 68.192 71.5264 68.16C71.4838 68.1493 71.4518 68.144 71.4304 68.144C70.3638 68.016 69.5744 67.6053 69.0624 66.912C68.7744 66.528 68.5558 66.0693 68.4064 65.536C68.2038 64.8533 68.1078 63.8827 68.1184 62.624C68.1291 62.1013 68.1558 61.664 68.1984 61.312C68.3158 60.192 68.6518 59.3013 69.2064 58.64C69.7078 58.0213 70.4544 57.6587 71.4464 57.552C71.4998 57.5413 71.5691 57.536 71.6544 57.536ZM72.2304 58.528C71.6864 58.432 71.2438 58.592 70.9024 59.008C70.8384 59.0933 70.7798 59.184 70.7264 59.28C70.6838 59.376 70.6464 59.5787 70.6144 59.888C70.5398 60.8587 70.5291 62.528 70.5824 64.896C70.5931 65.248 70.6038 65.504 70.6144 65.664C70.6251 65.9413 70.6571 66.1493 70.7104 66.288C70.8811 66.7467 71.1958 67.0347 71.6544 67.152C71.8784 67.216 72.1024 67.216 72.3264 67.152C72.7851 67.0347 73.0998 66.7467 73.2704 66.288C73.3238 66.1493 73.3558 65.9413 73.3664 65.664C73.4411 64.608 73.4518 62.928 73.3984 60.624C73.3878 60.2827 73.3771 60.0373 73.3664 59.888C73.3344 59.5787 73.2971 59.376 73.2544 59.28C73.0411 58.8427 72.6998 58.592 72.2304 58.528Z" fill="black"/>
<path d="M323.654 86.536L324.614 86.552C325.702 86.712 326.497 87.1707 326.998 87.928C327.425 88.568 327.686 89.3627 327.782 90.312C327.825 90.664 327.852 91.1013 327.862 91.624C327.873 93.2133 327.702 94.392 327.35 95.16C327.34 95.2027 327.324 95.24 327.302 95.272C327.121 95.6453 326.918 95.944 326.694 96.168C326.193 96.7013 325.478 97.0267 324.55 97.144C324.284 97.1867 323.942 97.192 323.526 97.16C323.484 97.1493 323.452 97.144 323.43 97.144C322.364 97.016 321.574 96.6053 321.062 95.912C320.774 95.528 320.556 95.0693 320.406 94.536C320.204 93.8533 320.108 92.8827 320.118 91.624C320.129 91.1013 320.156 90.664 320.198 90.312C320.316 89.192 320.652 88.3013 321.206 87.64C321.708 87.0213 322.454 86.6587 323.446 86.552C323.5 86.5413 323.569 86.536 323.654 86.536ZM324.23 87.528C323.686 87.432 323.244 87.592 322.902 88.008C322.838 88.0933 322.78 88.184 322.726 88.28C322.684 88.376 322.646 88.5787 322.614 88.888C322.54 89.8587 322.529 91.528 322.582 93.896C322.593 94.248 322.604 94.504 322.614 94.664C322.625 94.9413 322.657 95.1493 322.71 95.288C322.881 95.7467 323.196 96.0347 323.654 96.152C323.878 96.216 324.102 96.216 324.326 96.152C324.785 96.0347 325.1 95.7467 325.27 95.288C325.324 95.1493 325.356 94.9413 325.366 94.664C325.441 93.608 325.452 91.928 325.398 89.624C325.388 89.2827 325.377 89.0373 325.366 88.888C325.334 88.5787 325.297 88.376 325.254 88.28C325.041 87.8427 324.7 87.592 324.23 87.528Z" fill="black"/>
<path d="M288.502 86.536C288.513 86.5253 288.604 86.52 288.774 86.52C289.02 86.52 289.169 86.5787 289.222 86.696C289.244 86.7387 289.254 88.2747 289.254 91.304V95.848H290.278H291.302V96.424V97H291.094L289.494 96.968C288.566 96.9573 287.644 96.9573 286.726 96.968C285.66 96.9893 285.132 97 285.142 97H284.934V96.424V95.848H285.942H286.95V92.152V88.456L286.774 88.488C286.22 88.6267 285.612 88.696 284.95 88.696H284.678V88.12V87.544H284.95C286.145 87.544 287.132 87.336 287.91 86.92C288.166 86.8027 288.364 86.6747 288.502 86.536Z" fill="black"/>
<path d="M251.654 86.536L252.614 86.552C253.702 86.712 254.497 87.1707 254.998 87.928C255.425 88.568 255.686 89.3627 255.782 90.312C255.825 90.664 255.852 91.1013 255.862 91.624C255.873 93.2133 255.702 94.392 255.35 95.16C255.34 95.2027 255.324 95.24 255.302 95.272C255.121 95.6453 254.918 95.944 254.694 96.168C254.193 96.7013 253.478 97.0267 252.55 97.144C252.284 97.1867 251.942 97.192 251.526 97.16C251.484 97.1493 251.452 97.144 251.43 97.144C250.364 97.016 249.574 96.6053 249.062 95.912C248.774 95.528 248.556 95.0693 248.406 94.536C248.204 93.8533 248.108 92.8827 248.118 91.624C248.129 91.1013 248.156 90.664 248.198 90.312C248.316 89.192 248.652 88.3013 249.206 87.64C249.708 87.0213 250.454 86.6587 251.446 86.552C251.5 86.5413 251.569 86.536 251.654 86.536ZM252.23 87.528C251.686 87.432 251.244 87.592 250.902 88.008C250.838 88.0933 250.78 88.184 250.726 88.28C250.684 88.376 250.646 88.5787 250.614 88.888C250.54 89.8587 250.529 91.528 250.582 93.896C250.593 94.248 250.604 94.504 250.614 94.664C250.625 94.9413 250.657 95.1493 250.71 95.288C250.881 95.7467 251.196 96.0347 251.654 96.152C251.878 96.216 252.102 96.216 252.326 96.152C252.785 96.0347 253.1 95.7467 253.27 95.288C253.324 95.1493 253.356 94.9413 253.366 94.664C253.441 93.608 253.452 91.928 253.398 89.624C253.388 89.2827 253.377 89.0373 253.366 88.888C253.334 88.5787 253.297 88.376 253.254 88.28C253.041 87.8427 252.7 87.592 252.23 87.528Z" fill="black"/>
<path d="M215.654 86.536L216.614 86.552C217.702 86.712 218.497 87.1707 218.998 87.928C219.425 88.568 219.686 89.3627 219.782 90.312C219.825 90.664 219.852 91.1013 219.862 91.624C219.873 93.2133 219.702 94.392 219.35 95.16C219.34 95.2027 219.324 95.24 219.302 95.272C219.121 95.6453 218.918 95.944 218.694 96.168C218.193 96.7013 217.478 97.0267 216.55 97.144C216.284 97.1867 215.942 97.192 215.526 97.16C215.484 97.1493 215.452 97.144 215.43 97.144C214.364 97.016 213.574 96.6053 213.062 95.912C212.774 95.528 212.556 95.0693 212.406 94.536C212.204 93.8533 212.108 92.8827 212.118 91.624C212.129 91.1013 212.156 90.664 212.198 90.312C212.316 89.192 212.652 88.3013 213.206 87.64C213.708 87.0213 214.454 86.6587 215.446 86.552C215.5 86.5413 215.569 86.536 215.654 86.536ZM216.23 87.528C215.686 87.432 215.244 87.592 214.902 88.008C214.838 88.0933 214.78 88.184 214.726 88.28C214.684 88.376 214.646 88.5787 214.614 88.888C214.54 89.8587 214.529 91.528 214.582 93.896C214.593 94.248 214.604 94.504 214.614 94.664C214.625 94.9413 214.657 95.1493 214.71 95.288C214.881 95.7467 215.196 96.0347 215.654 96.152C215.878 96.216 216.102 96.216 216.326 96.152C216.785 96.0347 217.1 95.7467 217.27 95.288C217.324 95.1493 217.356 94.9413 217.366 94.664C217.441 93.608 217.452 91.928 217.398 89.624C217.388 89.2827 217.377 89.0373 217.366 88.888C217.334 88.5787 217.297 88.376 217.254 88.28C217.041 87.8427 216.7 87.592 216.23 87.528Z" fill="black"/>
<path d="M179.654 86.536L180.614 86.552C181.702 86.712 182.497 87.1707 182.998 87.928C183.425 88.568 183.686 89.3627 183.782 90.312C183.825 90.664 183.852 91.1013 183.862 91.624C183.873 93.2133 183.702 94.392 183.35 95.16C183.34 95.2027 183.324 95.24 183.302 95.272C183.121 95.6453 182.918 95.944 182.694 96.168C182.193 96.7013 181.478 97.0267 180.55 97.144C180.284 97.1867 179.942 97.192 179.526 97.16C179.484 97.1493 179.452 97.144 179.43 97.144C178.364 97.016 177.574 96.6053 177.062 95.912C176.774 95.528 176.556 95.0693 176.406 94.536C176.204 93.8533 176.108 92.8827 176.118 91.624C176.129 91.1013 176.156 90.664 176.198 90.312C176.316 89.192 176.652 88.3013 177.206 87.64C177.708 87.0213 178.454 86.6587 179.446 86.552C179.5 86.5413 179.569 86.536 179.654 86.536ZM180.23 87.528C179.686 87.432 179.244 87.592 178.902 88.008C178.838 88.0933 178.78 88.184 178.726 88.28C178.684 88.376 178.646 88.5787 178.614 88.888C178.54 89.8587 178.529 91.528 178.582 93.896C178.593 94.248 178.604 94.504 178.614 94.664C178.625 94.9413 178.657 95.1493 178.71 95.288C178.881 95.7467 179.196 96.0347 179.654 96.152C179.878 96.216 180.102 96.216 180.326 96.152C180.785 96.0347 181.1 95.7467 181.27 95.288C181.324 95.1493 181.356 94.9413 181.366 94.664C181.441 93.608 181.452 91.928 181.398 89.624C181.388 89.2827 181.377 89.0373 181.366 88.888C181.334 88.5787 181.297 88.376 181.254 88.28C181.041 87.8427 180.7 87.592 180.23 87.528Z" fill="black"/>
<path d="M143.654 86.536L144.614 86.552C145.702 86.712 146.497 87.1707 146.998 87.928C147.425 88.568 147.686 89.3627 147.782 90.312C147.825 90.664 147.852 91.1013 147.862 91.624C147.873 93.2133 147.702 94.392 147.35 95.16C147.34 95.2027 147.324 95.24 147.302 95.272C147.121 95.6453 146.918 95.944 146.694 96.168C146.193 96.7013 145.478 97.0267 144.55 97.144C144.284 97.1867 143.942 97.192 143.526 97.16C143.484 97.1493 143.452 97.144 143.43 97.144C142.364 97.016 141.574 96.6053 141.062 95.912C140.774 95.528 140.556 95.0693 140.406 94.536C140.204 93.8533 140.108 92.8827 140.118 91.624C140.129 91.1013 140.156 90.664 140.198 90.312C140.316 89.192 140.652 88.3013 141.206 87.64C141.708 87.0213 142.454 86.6587 143.446 86.552C143.5 86.5413 143.569 86.536 143.654 86.536ZM144.23 87.528C143.686 87.432 143.244 87.592 142.902 88.008C142.838 88.0933 142.78 88.184 142.726 88.28C142.684 88.376 142.646 88.5787 142.614 88.888C142.54 89.8587 142.529 91.528 142.582 93.896C142.593 94.248 142.604 94.504 142.614 94.664C142.625 94.9413 142.657 95.1493 142.71 95.288C142.881 95.7467 143.196 96.0347 143.654 96.152C143.878 96.216 144.102 96.216 144.326 96.152C144.785 96.0347 145.1 95.7467 145.27 95.288C145.324 95.1493 145.356 94.9413 145.366 94.664C145.441 93.608 145.452 91.928 145.398 89.624C145.388 89.2827 145.377 89.0373 145.366 88.888C145.334 88.5787 145.297 88.376 145.254 88.28C145.041 87.8427 144.7 87.592 144.23 87.528Z" fill="black"/>
<path d="M108.502 86.536C108.513 86.5253 108.604 86.52 108.774 86.52C109.02 86.52 109.169 86.5787 109.222 86.696C109.244 86.7387 109.254 88.2747 109.254 91.304V95.848H110.278H111.302V96.424V97H111.094L109.494 96.968C108.566 96.9573 107.644 96.9573 106.726 96.968C105.66 96.9893 105.132 97 105.142 97H104.934V96.424V95.848H105.942H106.95V92.152V88.456L106.774 88.488C106.22 88.6267 105.612 88.696 104.95 88.696H104.678V88.12V87.544H104.95C106.145 87.544 107.132 87.336 107.91 86.92C108.166 86.8027 108.364 86.6747 108.502 86.536Z" fill="black"/>
<path d="M72.5024 86.536C72.5131 86.5253 72.6038 86.52 72.7744 86.52C73.0198 86.52 73.1691 86.5787 73.2224 86.696C73.2438 86.7387 73.2544 88.2747 73.2544 91.304V95.848H74.2784H75.3024V96.424V97H75.0944L73.4944 96.968C72.5664 96.9573 71.6438 96.9573 70.7264 96.968C69.6598 96.9893 69.1318 97 69.1424 97H68.9344V96.424V95.848H69.9424H70.9504V92.152V88.456L70.7744 88.488C70.2198 88.6267 69.6118 88.696 68.9504 88.696H68.6784V88.12V87.544H68.9504C70.1451 87.544 71.1318 87.336 71.9104 86.92C72.1664 86.8027 72.3638 86.6747 72.5024 86.536Z" fill="black"/>
<path d="M0.892188 61.472V60.896H1.03619L2.02819 60.928C2.59352 60.9387 3.20152 60.9387 3.85219 60.928L4.97219 60.896H5.11619V61.472V62.048H4.76419H4.41219L5.13219 63.68C5.61219 64.8 5.85219 65.3547 5.85219 65.344C5.86285 65.3653 5.88419 65.344 5.91619 65.28C5.95885 65.1947 6.18819 64.6773 6.60419 63.728L7.34019 62.048H6.98819H6.63619V61.472V60.896H6.74819L7.61219 60.928C8.10285 60.9387 8.55619 60.9387 8.97219 60.928L9.69219 60.896H9.78819V61.472V62.048H9.19619H8.60419L7.34019 64.928C6.60419 66.6347 6.17219 67.6107 6.04419 67.856C5.99085 67.9413 5.90552 68.0053 5.78819 68.048C5.68152 68.08 5.42552 68.0853 5.02019 68.064C4.95619 68.064 4.91352 68.0587 4.89219 68.048C4.77485 68.0053 4.68952 67.9413 4.63619 67.856C4.50819 67.6107 4.07619 66.6347 3.34019 64.928L2.09219 62.048H1.48419H0.892188V61.472ZM12.4829 56.896C12.5043 56.8853 12.6003 56.88 12.7709 56.88C12.9523 56.9013 13.0696 56.9173 13.1229 56.928C13.5389 57.056 13.8376 57.3013 14.0189 57.664C14.1149 57.8667 14.1629 58.064 14.1629 58.256C14.1629 58.4587 14.1149 58.656 14.0189 58.848C13.8376 59.2213 13.5389 59.472 13.1229 59.6C13.0269 59.6213 12.8936 59.632 12.7229 59.632C12.5416 59.632 12.4083 59.6213 12.3229 59.6C11.8963 59.472 11.5923 59.2213 11.4109 58.848C11.3256 58.6773 11.2829 58.48 11.2829 58.256C11.2829 58.1067 11.2883 58 11.2989 57.936C11.3523 57.744 11.4483 57.5627 11.5869 57.392C11.8109 57.1253 12.1096 56.96 12.4829 56.896ZM12.3709 60.864C13.4376 60.8213 13.9496 60.8 13.9069 60.8H14.0029V63.824V66.848H14.4989H14.9949V67.424V68H14.8509L13.8269 67.968C13.2403 67.9573 12.6323 67.9573 12.0029 67.968L10.9149 68H10.7709V67.424V66.848H11.3309H11.8749V64.656C11.8749 63.1733 11.8696 62.4107 11.8589 62.368C11.8163 62.24 11.7469 62.1653 11.6509 62.144C11.5016 62.1013 11.2883 62.08 11.0109 62.08H10.8189V61.504V60.928H10.8669L12.3709 60.864ZM18.3763 60.768H19.3843C19.747 60.8 20.051 60.864 20.2963 60.96L20.4083 60.992L20.6963 60.88L20.9843 60.752H21.1603C21.2776 60.752 21.3523 60.7627 21.3843 60.784C21.4483 60.8267 21.4856 60.9333 21.4963 61.104C21.4963 61.2 21.4963 61.4293 21.4963 61.792C21.4963 62.4 21.459 62.7307 21.3843 62.784C21.3416 62.8053 21.187 62.816 20.9203 62.816C20.6536 62.816 20.499 62.8053 20.4563 62.784C20.3816 62.7307 20.3443 62.6613 20.3443 62.576C20.3443 62.2453 20.1896 62.0053 19.8803 61.856C19.6243 61.728 19.2776 61.664 18.8403 61.664C18.4243 61.664 18.099 61.712 17.8643 61.808C17.587 61.9253 17.4483 62.1227 17.4483 62.4C17.4483 62.4427 17.459 62.4907 17.4803 62.544C17.5123 62.6827 17.6296 62.8 17.8323 62.896C17.9816 62.9813 18.3603 63.0827 18.9683 63.2C19.523 63.296 19.9123 63.376 20.1363 63.44C20.7763 63.664 21.2616 64.016 21.5923 64.496C21.7416 64.7413 21.8483 64.9813 21.9123 65.216C21.9336 65.3227 21.9443 65.4827 21.9443 65.696C21.9443 65.92 21.9336 66.0853 21.9123 66.192C21.7736 66.9387 21.3683 67.4667 20.6963 67.776C20.4083 67.9147 20.051 68.0107 19.6243 68.064C19.5496 68.0747 19.3363 68.08 18.9843 68.08C18.6003 68.08 18.259 68.048 17.9603 67.984C17.7683 67.9307 17.5816 67.8613 17.4003 67.776L17.2243 67.696L16.8403 67.888L16.4403 68.096H16.2803C16.1523 68.096 16.0723 68.0853 16.0403 68.064C15.9763 68.032 15.939 67.936 15.9283 67.776C15.9283 67.6693 15.9283 67.3653 15.9283 66.864C15.9283 66.128 15.9603 65.7333 16.0243 65.68C16.0776 65.648 16.2323 65.632 16.4883 65.632C16.7656 65.632 16.9256 65.6427 16.9683 65.664C17.0003 65.6853 17.0536 65.7813 17.1283 65.952C17.331 66.5387 17.7256 66.9013 18.3123 67.04C18.7923 67.168 19.283 67.1627 19.7843 67.024C20.1576 66.896 20.371 66.6773 20.4243 66.368C20.4883 65.984 20.291 65.696 19.8323 65.504C19.6616 65.4293 19.331 65.3493 18.8403 65.264C18.3496 65.1787 18.0776 65.1253 18.0243 65.104C17.0216 64.8693 16.3656 64.3893 16.0563 63.664C16.0243 63.5787 15.9976 63.4933 15.9763 63.408C15.955 63.312 15.9443 63.1627 15.9443 62.96C15.9443 62.7573 15.9496 62.624 15.9603 62.56C16.099 61.888 16.467 61.4027 17.0643 61.104C17.427 60.912 17.8643 60.8 18.3763 60.768ZM24.8579 56.896C24.8793 56.8853 24.9753 56.88 25.1459 56.88C25.3273 56.9013 25.4446 56.9173 25.4979 56.928C25.9139 57.056 26.2126 57.3013 26.3939 57.664C26.4899 57.8667 26.5379 58.064 26.5379 58.256C26.5379 58.4587 26.4899 58.656 26.3939 58.848C26.2126 59.2213 25.9139 59.472 25.4979 59.6C25.4019 59.6213 25.2686 59.632 25.0979 59.632C24.9166 59.632 24.7833 59.6213 24.6979 59.6C24.2713 59.472 23.9673 59.2213 23.7859 58.848C23.7006 58.6773 23.6579 58.48 23.6579 58.256C23.6579 58.1067 23.6633 58 23.6739 57.936C23.7273 57.744 23.8233 57.5627 23.9619 57.392C24.1859 57.1253 24.4846 56.96 24.8579 56.896ZM24.7459 60.864C25.8126 60.8213 26.3246 60.8 26.2819 60.8H26.3779V63.824V66.848H26.8739H27.3699V67.424V68H27.2259L26.2019 67.968C25.6153 67.9573 25.0073 67.9573 24.3779 67.968L23.2899 68H23.1459V67.424V66.848H23.7059H24.2499V64.656C24.2499 63.1733 24.2446 62.4107 24.2339 62.368C24.1913 62.24 24.1219 62.1653 24.0259 62.144C23.8766 62.1013 23.6633 62.08 23.3859 62.08H23.1939V61.504V60.928H23.2419L24.7459 60.864ZM30.2073 57.936V57.84H30.7833H31.3593V59.36V60.896H32.4313H33.5033V61.472V62.048H32.4313H31.3593V64.224C31.37 65.728 31.3913 66.528 31.4233 66.624C31.4233 66.6347 31.4393 66.6667 31.4713 66.72C31.5353 66.848 31.6313 66.944 31.7593 67.008C31.8126 67.0293 31.8926 67.04 31.9993 67.04C32.106 67.04 32.1753 67.0293 32.2073 67.008C32.378 66.944 32.5113 66.7467 32.6073 66.416C32.6286 66.3413 32.6446 66.112 32.6553 65.728V65.168H33.2313H33.8073V65.68C33.8073 66.128 33.77 66.4587 33.6953 66.672C33.578 67.024 33.37 67.328 33.0713 67.584C32.7193 67.8507 32.3353 68.016 31.9193 68.08C31.8233 68.0907 31.658 68.096 31.4233 68.096C30.986 68.0853 30.6286 68.0213 30.3513 67.904C29.9993 67.7867 29.7113 67.5733 29.4873 67.264C29.3166 67.0293 29.2046 66.7253 29.1513 66.352C29.1406 66.2987 29.1353 65.5573 29.1353 64.128V62.048H28.5913H28.0313V61.568V61.072H28.1753C28.5166 61.04 28.8206 60.9227 29.0873 60.72C29.6313 60.2933 29.978 59.6213 30.1273 58.704C30.1806 58.416 30.2073 58.16 30.2073 57.936ZM38.9316 60.768L40.0036 60.784C40.7609 60.8907 41.3689 61.1573 41.8276 61.584C42.3609 62.1173 42.6649 62.8427 42.7396 63.76C42.7716 64.1547 42.7236 64.3947 42.5956 64.48C42.5529 64.5013 41.7422 64.512 40.1636 64.512H37.8116V64.832C37.8436 65.5787 37.9929 66.1013 38.2596 66.4C38.2809 66.4213 38.3076 66.448 38.3396 66.48C38.6489 66.7893 39.1182 66.976 39.7476 67.04C39.9929 67.0613 40.1956 67.056 40.3556 67.024C40.9316 66.9387 41.3369 66.6507 41.5716 66.16C41.5822 66.128 41.5929 66.1013 41.6036 66.08C41.6569 65.9413 41.7422 65.8667 41.8596 65.856C41.9129 65.8453 42.0196 65.84 42.1796 65.84C42.4142 65.84 42.5529 65.8507 42.5956 65.872C42.7236 65.936 42.7716 66.048 42.7396 66.208C42.6756 66.432 42.5689 66.64 42.4196 66.832C41.9396 67.4933 41.1876 67.904 40.1636 68.064C39.8649 68.1067 39.4649 68.112 38.9636 68.08C38.9316 68.0693 38.8996 68.064 38.8676 68.064C37.1396 67.84 36.0356 67.0293 35.5556 65.632C35.4916 65.4187 35.4382 65.1947 35.3956 64.96C35.3529 64.6613 35.3529 64.3093 35.3956 63.904C35.3956 63.872 35.3956 63.8453 35.3956 63.824C35.5129 63.1307 35.7636 62.5493 36.1476 62.08C36.2862 61.888 36.4889 61.696 36.7556 61.504C37.3422 61.0773 38.0676 60.832 38.9316 60.768ZM39.6516 61.76C39.4916 61.728 39.2889 61.7227 39.0436 61.744C38.5636 61.8293 38.2276 62.0693 38.0356 62.464C37.9289 62.688 37.8596 63.0133 37.8276 63.44V63.584H39.3156H40.8196L40.8036 63.504C40.6969 62.512 40.3129 61.9307 39.6516 61.76ZM50.3451 56.96C51.4117 56.9173 51.9344 56.896 51.9131 56.896H52.0091V61.696C52.0091 64.896 52.0197 66.5227 52.0411 66.576C52.0731 66.6827 52.1424 66.752 52.2491 66.784C52.3984 66.8267 52.6171 66.848 52.9051 66.848H53.1131V67.424C53.1131 67.808 53.1077 68 53.0971 68C52.8944 68 52.3451 68.016 51.4491 68.048C50.5531 68.08 50.0037 68.096 49.8011 68.096C49.7904 68.096 49.7851 67.984 49.7851 67.76V67.44L49.7051 67.488C49.2571 67.744 48.7451 67.9253 48.1691 68.032C47.6677 68.1067 47.2091 68.1173 46.7931 68.064C46.0037 67.9253 45.3744 67.6213 44.9051 67.152C44.2011 66.4587 43.8651 65.5093 43.8971 64.304C43.9077 63.888 43.9771 63.4773 44.1051 63.072C44.4464 62.0907 45.0917 61.4187 46.0411 61.056C46.0731 61.0453 46.1051 61.0347 46.1371 61.024C46.5104 60.896 46.9211 60.8213 47.3691 60.8C48.2224 60.7787 49.0117 60.9387 49.7371 61.28L49.8811 61.344V59.936C49.8811 58.9973 49.8704 58.5013 49.8491 58.448C49.8171 58.3413 49.7477 58.272 49.6411 58.24C49.4917 58.1973 49.2731 58.176 48.9851 58.176H48.7771V57.6V57.024H48.8251C48.7717 57.024 49.2784 57.0027 50.3451 56.96ZM48.5371 61.824C48.3237 61.7813 48.0997 61.7707 47.8651 61.792C47.3957 61.8453 47.0384 61.9947 46.7931 62.24C46.5371 62.5067 46.3931 63.0027 46.3611 63.728C46.3504 63.984 46.3451 64.3093 46.3451 64.704C46.3557 65.6533 46.4464 66.256 46.6171 66.512C46.6491 66.5653 46.6917 66.6187 46.7451 66.672C47.0971 67.0667 47.6144 67.2053 48.2971 67.088C48.5317 67.0453 48.7557 66.9707 48.9691 66.864C49.1931 66.7467 49.4011 66.592 49.5931 66.4L49.7851 66.208V64.32V62.432L49.7051 62.368C49.3531 62.0693 48.9637 61.888 48.5371 61.824Z" fill="black"/>
<path d="M26.806 89.768H27.814C28.1767 89.8 28.4807 89.864 28.726 89.96L28.838 89.992L29.126 89.88L29.414 89.752H29.59C29.7073 89.752 29.782 89.7627 29.814 89.784C29.878 89.8267 29.9153 89.9333 29.926 90.104C29.926 90.2 29.926 90.4293 29.926 90.792C29.926 91.4 29.8887 91.7307 29.814 91.784C29.7713 91.8053 29.6167 91.816 29.35 91.816C29.0833 91.816 28.9287 91.8053 28.886 91.784C28.8113 91.7307 28.774 91.6613 28.774 91.576C28.774 91.2453 28.6193 91.0053 28.31 90.856C28.054 90.728 27.7073 90.664 27.27 90.664C26.854 90.664 26.5287 90.712 26.294 90.808C26.0167 90.9253 25.878 91.1227 25.878 91.4C25.878 91.4427 25.8887 91.4907 25.91 91.544C25.942 91.6827 26.0593 91.8 26.262 91.896C26.4113 91.9813 26.79 92.0827 27.398 92.2C27.9527 92.296 28.342 92.376 28.566 92.44C29.206 92.664 29.6913 93.016 30.022 93.496C30.1713 93.7413 30.278 93.9813 30.342 94.216C30.3633 94.3227 30.374 94.4827 30.374 94.696C30.374 94.92 30.3633 95.0853 30.342 95.192C30.2033 95.9387 29.798 96.4667 29.126 96.776C28.838 96.9147 28.4807 97.0107 28.054 97.064C27.9793 97.0747 27.766 97.08 27.414 97.08C27.03 97.08 26.6887 97.048 26.39 96.984C26.198 96.9307 26.0113 96.8613 25.83 96.776L25.654 96.696L25.27 96.888L24.87 97.096H24.71C24.582 97.096 24.502 97.0853 24.47 97.064C24.406 97.032 24.3687 96.936 24.358 96.776C24.358 96.6693 24.358 96.3653 24.358 95.864C24.358 95.128 24.39 94.7333 24.454 94.68C24.5073 94.648 24.662 94.632 24.918 94.632C25.1953 94.632 25.3553 94.6427 25.398 94.664C25.43 94.6853 25.4833 94.7813 25.558 94.952C25.7607 95.5387 26.1553 95.9013 26.742 96.04C27.222 96.168 27.7127 96.1627 28.214 96.024C28.5873 95.896 28.8007 95.6773 28.854 95.368C28.918 94.984 28.7207 94.696 28.262 94.504C28.0913 94.4293 27.7607 94.3493 27.27 94.264C26.7793 94.1787 26.5073 94.1253 26.454 94.104C25.4513 93.8693 24.7953 93.3893 24.486 92.664C24.454 92.5787 24.4273 92.4933 24.406 92.408C24.3847 92.312 24.374 92.1627 24.374 91.96C24.374 91.7573 24.3793 91.624 24.39 91.56C24.5287 90.888 24.8967 90.4027 25.494 90.104C25.8567 89.912 26.294 89.8 26.806 89.768ZM34.6156 89.768L35.9276 89.784C37.325 89.944 38.2156 90.472 38.5996 91.368C38.6423 91.464 38.6743 91.56 38.6956 91.656L38.7436 91.832L38.7596 93.752C38.7596 95 38.7703 95.6453 38.7916 95.688C38.877 95.7733 39.1063 95.8267 39.4796 95.848C39.6503 95.848 39.773 95.8693 39.8476 95.912C39.9116 95.976 39.9436 96.1467 39.9436 96.424C39.9436 96.7013 39.9063 96.872 39.8316 96.936C39.725 96.9787 39.3836 97 38.8076 97C38.1676 96.9893 37.7463 96.952 37.5436 96.888C37.213 96.7813 36.9996 96.616 36.9036 96.392C36.861 96.3067 36.8396 96.2587 36.8396 96.248C36.8396 96.2373 36.7916 96.264 36.6956 96.328C36.2263 96.7013 35.597 96.9467 34.8076 97.064C34.3916 97.1067 34.0663 97.112 33.8316 97.08C32.8716 96.9733 32.1943 96.5787 31.7996 95.896C31.7036 95.736 31.6343 95.5707 31.5916 95.4C31.5596 95.2827 31.5436 95.1333 31.5436 94.952C31.5436 94.696 31.5863 94.4773 31.6716 94.296C31.7996 94.04 31.9756 93.8213 32.1996 93.64C32.573 93.352 33.0476 93.128 33.6236 92.968C34.3276 92.7547 35.165 92.6267 36.1356 92.584L36.5356 92.568V92.28L36.5196 91.864V91.848C36.4556 91.4 36.237 91.0853 35.8636 90.904C35.629 90.7867 35.325 90.728 34.9516 90.728C34.5143 90.728 34.285 90.7387 34.2636 90.76L34.3116 90.856C34.397 91.0053 34.4343 91.1973 34.4236 91.432C34.4236 91.6027 34.413 91.7253 34.3916 91.8C34.3276 91.992 34.2316 92.152 34.1036 92.28C33.965 92.4187 33.7996 92.52 33.6076 92.584C33.5223 92.6053 33.3996 92.616 33.2396 92.616C33.0796 92.616 32.9623 92.6053 32.8876 92.584C32.685 92.52 32.5143 92.4187 32.3756 92.28C32.2476 92.152 32.1516 91.992 32.0876 91.8C32.0663 91.7253 32.0556 91.6027 32.0556 91.432C32.0556 91.2613 32.0663 91.1387 32.0876 91.064C32.2476 90.4773 32.765 90.088 33.6396 89.896C33.9276 89.832 34.253 89.7893 34.6156 89.768ZM36.5356 94.296C36.5356 93.7413 36.5303 93.464 36.5196 93.464C36.509 93.464 36.4823 93.4693 36.4396 93.48C35.8103 93.5227 35.261 93.6347 34.7916 93.816C34.2903 94.0187 33.9756 94.3013 33.8476 94.664C33.7943 94.8133 33.789 95.0053 33.8316 95.24C33.9383 95.6667 34.1836 95.944 34.5676 96.072C34.589 96.0827 34.6156 96.0933 34.6476 96.104C35.0423 96.168 35.4583 96.088 35.8956 95.864C35.9276 95.8533 35.9596 95.8373 35.9916 95.816C36.1943 95.688 36.3383 95.544 36.4236 95.384C36.4876 95.256 36.525 95.0427 36.5356 94.744V94.296ZM45.3451 85.816C45.3771 85.8053 45.5211 85.8 45.7771 85.8C46.0225 85.8107 46.1718 85.8267 46.2251 85.848C46.4171 85.9013 46.5825 85.9813 46.7211 86.088C46.8278 86.1733 46.9451 86.3013 47.0731 86.472C47.1585 86.5893 47.2331 86.7547 47.2971 86.968C47.3185 87.064 47.3291 87.2027 47.3291 87.384C47.3291 87.5547 47.3185 87.6827 47.2971 87.768C47.1478 88.2373 46.8225 88.4987 46.3211 88.552C46.2678 88.5627 46.2145 88.568 46.1611 88.568C45.9585 88.568 45.7718 88.5253 45.6011 88.44C45.3131 88.3013 45.1211 88.0773 45.0251 87.768C45.0038 87.6933 44.9931 87.5707 44.9931 87.4C44.9825 87.176 45.0145 86.9947 45.0891 86.856L45.1211 86.792H45.0731C45.0091 86.792 44.8811 86.8187 44.6891 86.872C44.3905 86.968 44.1558 87.128 43.9851 87.352C43.8785 87.4693 43.7985 87.6133 43.7451 87.784C43.6811 87.9867 43.6491 88.4187 43.6491 89.08V89.896H44.5291H45.3931V90.472V91.048H44.5771H43.7451V93.448V95.848H44.4331H45.1211V96.424V97H44.9611L43.7451 96.968C43.0411 96.9573 42.3745 96.9573 41.7451 96.968L40.6571 97H40.5131V96.424V95.848H41.0731H41.6171V93.448V91.048H41.1211H40.6251V90.472V89.896H41.1211H41.6171V89L41.6331 88.088L41.6651 87.944C41.7611 87.624 41.8945 87.352 42.0651 87.128C42.5985 86.4453 43.5051 86.024 44.7851 85.864C44.8705 85.8533 44.9611 85.8427 45.0571 85.832C45.1318 85.8213 45.2278 85.816 45.3451 85.816ZM49.6425 89.768L50.7145 89.784C51.4718 89.8907 52.0798 90.1573 52.5385 90.584C53.0718 91.1173 53.3758 91.8427 53.4505 92.76C53.4825 93.1547 53.4345 93.3947 53.3065 93.48C53.2638 93.5013 52.4532 93.512 50.8745 93.512H48.5225V93.832C48.5545 94.5787 48.7038 95.1013 48.9705 95.4C48.9918 95.4213 49.0185 95.448 49.0505 95.48C49.3598 95.7893 49.8292 95.976 50.4585 96.04C50.7038 96.0613 50.9065 96.056 51.0665 96.024C51.6425 95.9387 52.0478 95.6507 52.2825 95.16C52.2932 95.128 52.3038 95.1013 52.3145 95.08C52.3678 94.9413 52.4532 94.8667 52.5705 94.856C52.6238 94.8453 52.7305 94.84 52.8905 94.84C53.1252 94.84 53.2638 94.8507 53.3065 94.872C53.4345 94.936 53.4825 95.048 53.4505 95.208C53.3865 95.432 53.2798 95.64 53.1305 95.832C52.6505 96.4933 51.8985 96.904 50.8745 97.064C50.5758 97.1067 50.1758 97.112 49.6745 97.08C49.6425 97.0693 49.6105 97.064 49.5785 97.064C47.8505 96.84 46.7465 96.0293 46.2665 94.632C46.2025 94.4187 46.1492 94.1947 46.1065 93.96C46.0638 93.6613 46.0638 93.3093 46.1065 92.904C46.1065 92.872 46.1065 92.8453 46.1065 92.824C46.2238 92.1307 46.4745 91.5493 46.8585 91.08C46.9972 90.888 47.1998 90.696 47.4665 90.504C48.0532 90.0773 48.7785 89.832 49.6425 89.768ZM50.3625 90.76C50.2025 90.728 49.9998 90.7227 49.7545 90.744C49.2745 90.8293 48.9385 91.0693 48.7465 91.464C48.6398 91.688 48.5705 92.0133 48.5385 92.44V92.584H50.0265H51.5305L51.5145 92.504C51.4078 91.512 51.0238 90.9307 50.3625 90.76Z" fill="black"/>
</svg>
