<?xml version="1.0" encoding="UTF-8" standalone="no"?>
<!DOCTYPE svg PUBLIC "-//W3C//DTD SVG 1.1//EN"
 "http://www.w3.org/Graphics/SVG/1.1/DTD/svg11.dtd">
<!-- Generated by graphviz version 9.0.0 (20230911.1827)
 -->
<!-- Title: G Pages: 1 -->
<svg width="683pt" height="512pt"
 viewBox="0.00 0.00 683.00 511.50" xmlns="http://www.w3.org/2000/svg" xmlns:xlink="http://www.w3.org/1999/xlink">
<g id="graph0" class="graph" transform="scale(1 1) rotate(0) translate(4 507.5)">
<title>G</title>
<polygon fill="white" stroke="none" points="-4,4 -4,-507.5 679,-507.5 679,4 -4,4"/>
<g id="clust1" class="cluster">
<title>cluster_root</title>
<g id="a_clust1"><a xlink:title="eventq_index=0&#10;full_system=false&#10;sim_quantum=0&#10;time_sync_enable=false&#10;time_sync_period=100000000000&#10;time_sync_spin_threshold=100000000">
<path fill="#bab6ae" stroke="#000000" d="M20,-8C20,-8 655,-8 655,-8 661,-8 667,-14 667,-20 667,-20 667,-483.5 667,-483.5 667,-489.5 661,-495.5 655,-495.5 655,-495.5 20,-495.5 20,-495.5 14,-495.5 8,-489.5 8,-483.5 8,-483.5 8,-20 8,-20 8,-14 14,-8 20,-8"/>
<text text-anchor="middle" x="337.5" y="-478.2" font-family="Arial" font-size="14.00" fill="#000000">root </text>
<text text-anchor="middle" x="337.5" y="-462.45" font-family="Arial" font-size="14.00" fill="#000000">: Root</text>
</a>
</g>
</g>
<g id="clust2" class="cluster">
<title>cluster_system</title>
<g id="a_clust2"><a xlink:title="auto_unlink_shared_backstore=false&#10;cache_line_size=64&#10;eventq_index=0&#10;exit_on_work_items=false&#10;init_param=0&#10;m5ops_base=0&#10;mem_mode=timing&#10;mem_ranges=0:536870912&#10;memories=system.mem_ctrl.dram&#10;mmap_using_noreserve=false&#10;multi_thread=false&#10;&#10;um_work_ids=16&#10;&#13;eadfile=&#10;&#13;edirect_paths=&#10;shadow_rom_ranges=&#10;shared_backstore=&#10;symbolfile=&#10;thermal_components=&#10;thermal_model=Null&#10;work_begin_ckpt_count=0&#10;work_begin_cpu_id_exit=&#45;1&#10;work_begin_exit_count=0&#10;work_cpus_ckpt_count=0&#10;work_end_ckpt_count=0&#10;work_end_exit_count=0&#10;work_item_id=&#45;1&#10;workload=system.workload">
<path fill="#e4e7eb" stroke="#000000" d="M28,-16C28,-16 647,-16 647,-16 653,-16 659,-22 659,-28 659,-28 659,-436 659,-436 659,-442 653,-448 647,-448 647,-448 28,-448 28,-448 22,-448 16,-442 16,-436 16,-436 16,-28 16,-28 16,-22 22,-16 28,-16"/>
<text text-anchor="middle" x="337.5" y="-430.7" font-family="Arial" font-size="14.00" fill="#000000">system </text>
<text text-anchor="middle" x="337.5" y="-414.95" font-family="Arial" font-size="14.00" fill="#000000">: System</text>
</a>
</g>
</g>
<g id="clust6" class="cluster">
<title>cluster_system_cpu</title>
<g id="a_clust6"><a xlink:title="branchPred=Null&#10;checker=Null&#10;clk_domain=system.clk_domain&#10;cpu_id=&#45;1&#10;decoder=system.cpu.decoder&#10;do_checkpoint_insts=true&#10;do_statistics_insts=true&#10;eventq_index=0&#10;function_trace=false&#10;function_trace_start=0&#10;interrupts=system.cpu.interrupts&#10;isa=system.cpu.isa&#10;max_insts_all_threads=0&#10;max_insts_any_thread=0&#10;mmu=system.cpu.mmu&#10;&#10;umThreads=1&#10;power_gating_on_idle=false&#10;power_model=&#10;power_state=system.cpu.power_state&#10;progress_interval=0&#10;pwr_gating_latency=300&#10;simpoint_start_insts=&#10;socket_id=0&#10;switched_out=false&#10;syscallRetryLatency=10000&#10;system=system&#10;tracer=system.cpu.tracer&#10;workload=system.cpu.workload">
<path fill="#bbc6d9" stroke="#000000" d="M36,-24C36,-24 531,-24 531,-24 537,-24 543,-30 543,-36 543,-36 543,-289 543,-289 543,-295 537,-301 531,-301 531,-301 36,-301 36,-301 30,-301 24,-295 24,-289 24,-289 24,-36 24,-36 24,-30 30,-24 36,-24"/>
<text text-anchor="middle" x="283.5" y="-283.7" font-family="Arial" font-size="14.00" fill="#000000">cpu </text>
<text text-anchor="middle" x="283.5" y="-267.95" font-family="Arial" font-size="14.00" fill="#000000">: X86TimingSimpleCPU</text>
</a>
</g>
</g>
<g id="clust17" class="cluster">
<title>cluster_system_cpu_interrupts</title>
<g id="a_clust17"><a xlink:title="clk_domain=system.cpu.interrupts.clk_domain&#10;eventq_index=0&#10;int_latency=1000&#10;pio_latency=100000&#10;system=system">
<path fill="#bab6ae" stroke="#000000" d="M248,-162C248,-162 523,-162 523,-162 529,-162 535,-168 535,-174 535,-174 535,-241.5 535,-241.5 535,-247.5 529,-253.5 523,-253.5 523,-253.5 248,-253.5 248,-253.5 242,-253.5 236,-247.5 236,-241.5 236,-241.5 236,-174 236,-174 236,-168 242,-162 248,-162"/>
<text text-anchor="middle" x="385.5" y="-236.2" font-family="Arial" font-size="14.00" fill="#000000">interrupts </text>
<text text-anchor="middle" x="385.5" y="-220.45" font-family="Arial" font-size="14.00" fill="#000000">: X86LocalApic</text>
</a>
</g>
</g>
<g id="clust19" class="cluster">
<title>cluster_system_cpu_icache</title>
<g id="a_clust19"><a xlink:title="addr_ranges=0:18446744073709551615&#10;assoc=2&#10;clk_domain=system.clk_domain&#10;clusivity=mostly_incl&#10;compressor=Null&#10;data_latency=2&#10;demand_mshr_reserve=1&#10;eventq_index=0&#10;is_read_only=false&#10;max_miss_count=0&#10;move_contractions=true&#10;mshrs=4&#10;partitioning_manager=Null&#10;power_model=&#10;power_state=system.cpu.icache.power_state&#10;prefetcher=Null&#10;&#13;eplace_expansions=true&#10;&#13;eplacement_policy=system.cpu.icache.replacement_policy&#10;&#13;esponse_latency=2&#10;sequential_access=false&#10;size=1024&#10;system=system&#10;tag_latency=2&#10;tags=system.cpu.icache.tags&#10;tgts_per_mshr=20&#10;warmup_percentage=0&#10;write_allocator=Null&#10;write_buffers=8&#10;writeback_clean=false">
<path fill="#bab6ae" stroke="#000000" d="M107,-32C107,-32 267,-32 267,-32 273,-32 279,-38 279,-44 279,-44 279,-111.5 279,-111.5 279,-117.5 273,-123.5 267,-123.5 267,-123.5 107,-123.5 107,-123.5 101,-123.5 95,-117.5 95,-111.5 95,-111.5 95,-44 95,-44 95,-38 101,-32 107,-32"/>
<text text-anchor="middle" x="187" y="-106.2" font-family="Arial" font-size="14.00" fill="#000000">icache </text>
<text text-anchor="middle" x="187" y="-90.45" font-family="Arial" font-size="14.00" fill="#000000">: L1I_WeightedLRU</text>
</a>
</g>
</g>
<g id="clust25" class="cluster">
<title>cluster_system_cpu_dcache</title>
<g id="a_clust25"><a xlink:title="addr_ranges=0:18446744073709551615&#10;assoc=2&#10;clk_domain=system.clk_domain&#10;clusivity=mostly_incl&#10;compressor=Null&#10;data_latency=2&#10;demand_mshr_reserve=1&#10;eventq_index=0&#10;is_read_only=false&#10;max_miss_count=0&#10;move_contractions=true&#10;mshrs=4&#10;partitioning_manager=Null&#10;power_model=&#10;power_state=system.cpu.dcache.power_state&#10;prefetcher=Null&#10;&#13;eplace_expansions=true&#10;&#13;eplacement_policy=system.cpu.dcache.replacement_policy&#10;&#13;esponse_latency=2&#10;sequential_access=false&#10;size=1024&#10;system=system&#10;tag_latency=2&#10;tags=system.cpu.dcache.tags&#10;tgts_per_mshr=20&#10;warmup_percentage=0&#10;write_allocator=Null&#10;write_buffers=8&#10;writeback_clean=false">
<path fill="#bab6ae" stroke="#000000" d="M331,-32C331,-32 491,-32 491,-32 497,-32 503,-38 503,-44 503,-44 503,-111.5 503,-111.5 503,-117.5 497,-123.5 491,-123.5 491,-123.5 331,-123.5 331,-123.5 325,-123.5 319,-117.5 319,-111.5 319,-111.5 319,-44 319,-44 319,-38 325,-32 331,-32"/>
<text text-anchor="middle" x="411" y="-106.2" font-family="Arial" font-size="14.00" fill="#000000">dcache </text>
<text text-anchor="middle" x="411" y="-90.45" font-family="Arial" font-size="14.00" fill="#000000">: L1D_WeightedLRU</text>
</a>
</g>
</g>
<g id="clust34" class="cluster">
<title>cluster_system_membus</title>
<g id="a_clust34"><a xlink:title="clk_domain=system.clk_domain&#10;eventq_index=0&#10;forward_latency=4&#10;frontend_latency=3&#10;header_latency=1&#10;max_outstanding_snoops=512&#10;max_routing_table_size=512&#10;point_of_coherency=true&#10;point_of_unification=true&#10;power_model=&#10;power_state=system.membus.power_state&#10;&#13;esponse_latency=2&#10;snoop_filter=system.membus.snoop_filter&#10;snoop_response_latency=4&#10;system=system&#10;use_default_range=false&#10;width=16">
<path fill="#6f798c" stroke="#000000" d="M335,-309C335,-309 570,-309 570,-309 576,-309 582,-315 582,-321 582,-321 582,-388.5 582,-388.5 582,-394.5 576,-400.5 570,-400.5 570,-400.5 335,-400.5 335,-400.5 329,-400.5 323,-394.5 323,-388.5 323,-388.5 323,-321 323,-321 323,-315 329,-309 335,-309"/>
<text text-anchor="middle" x="452.5" y="-383.2" font-family="Arial" font-size="14.00" fill="#000000">membus </text>
<text text-anchor="middle" x="452.5" y="-367.45" font-family="Arial" font-size="14.00" fill="#000000">: SystemXBar</text>
</a>
</g>
</g>
<g id="clust37" class="cluster">
<title>cluster_system_mem_ctrl</title>
<g id="a_clust37"><a xlink:title="clk_domain=system.clk_domain&#10;command_window=10000&#10;disable_sanity_check=false&#10;dram=system.mem_ctrl.dram&#10;eventq_index=0&#10;mem_sched_policy=frfcfs&#10;min_reads_per_switch=16&#10;min_writes_per_switch=16&#10;power_model=&#10;power_state=system.mem_ctrl.power_state&#10;qos_policy=Null&#10;qos_priorities=1&#10;qos_priority_escalation=false&#10;qos_q_policy=fifo&#10;qos_requestors= &#160;&#160;&#160;&#160;&#160;&#160;&#160;&#160;&#160;&#160;&#160;&#160;&#160;&#160;&#10;qos_syncro_scheduler=false&#10;qos_turnaround_policy=Null&#10;static_backend_latency=10000&#10;static_frontend_latency=10000&#10;system=system&#10;write_high_thresh_perc=85&#10;write_low_thresh_perc=50">
<path fill="#bab6ae" stroke="#000000" d="M587,-162C587,-162 639,-162 639,-162 645,-162 651,-168 651,-174 651,-174 651,-241.5 651,-241.5 651,-247.5 645,-253.5 639,-253.5 639,-253.5 587,-253.5 587,-253.5 581,-253.5 575,-247.5 575,-241.5 575,-241.5 575,-174 575,-174 575,-168 581,-162 587,-162"/>
<text text-anchor="middle" x="613" y="-236.2" font-family="Arial" font-size="14.00" fill="#000000">mem_ctrl </text>
<text text-anchor="middle" x="613" y="-220.45" font-family="Arial" font-size="14.00" fill="#000000">: MemCtrl</text>
</a>
</g>
</g>
<!-- system_cpu_icache_port -->
<g id="node1" class="node">
<title>system_cpu_icache_port</title>
<path fill="#959ead" stroke="#000000" d="M105.88,-206C105.88,-206 44.12,-206 44.12,-206 38.12,-206 32.12,-200 32.12,-194 32.12,-194 32.12,-182 32.12,-182 32.12,-176 38.12,-170 44.12,-170 44.12,-170 105.88,-170 105.88,-170 111.88,-170 117.88,-176 117.88,-182 117.88,-182 117.88,-194 117.88,-194 117.88,-200 111.88,-206 105.88,-206"/>
<text text-anchor="middle" x="75" y="-182.57" font-family="Arial" font-size="14.00" fill="#000000">icache_port</text>
</g>
<!-- system_cpu_icache_cpu_side -->
<g id="node6" class="node">
<title>system_cpu_icache_cpu_side</title>
<path fill="#94918b" stroke="#000000" d="M161,-76C161,-76 115,-76 115,-76 109,-76 103,-70 103,-64 103,-64 103,-52 103,-52 103,-46 109,-40 115,-40 115,-40 161,-40 161,-40 167,-40 173,-46 173,-52 173,-52 173,-64 173,-64 173,-70 167,-76 161,-76"/>
<text text-anchor="middle" x="138" y="-52.58" font-family="Arial" font-size="14.00" fill="#000000">cpu_side</text>
</g>
<!-- system_cpu_icache_port&#45;&gt;system_cpu_icache_cpu_side -->
<g id="edge1" class="edge">
<title>system_cpu_icache_port&#45;&gt;system_cpu_icache_cpu_side</title>
<path fill="none" stroke="black" d="M83.5,-169.74C94.02,-148.36 112.07,-111.69 124.49,-86.44"/>
<polygon fill="black" stroke="black" points="127.49,-88.27 128.77,-77.76 121.21,-85.18 127.49,-88.27"/>
</g>
<!-- system_cpu_dcache_port -->
<g id="node2" class="node">
<title>system_cpu_dcache_port</title>
<path fill="#959ead" stroke="#000000" d="M214.12,-206C214.12,-206 147.88,-206 147.88,-206 141.88,-206 135.88,-200 135.88,-194 135.88,-194 135.88,-182 135.88,-182 135.88,-176 141.88,-170 147.88,-170 147.88,-170 214.12,-170 214.12,-170 220.12,-170 226.12,-176 226.12,-182 226.12,-182 226.12,-194 226.12,-194 226.12,-200 220.12,-206 214.12,-206"/>
<text text-anchor="middle" x="181" y="-182.57" font-family="Arial" font-size="14.00" fill="#000000">dcache_port</text>
</g>
<!-- system_cpu_dcache_cpu_side -->
<g id="node8" class="node">
<title>system_cpu_dcache_cpu_side</title>
<path fill="#94918b" stroke="#000000" d="M385,-76C385,-76 339,-76 339,-76 333,-76 327,-70 327,-64 327,-64 327,-52 327,-52 327,-46 333,-40 339,-40 339,-40 385,-40 385,-40 391,-40 397,-46 397,-52 397,-52 397,-64 397,-64 397,-70 391,-76 385,-76"/>
<text text-anchor="middle" x="362" y="-52.58" font-family="Arial" font-size="14.00" fill="#000000">cpu_side</text>
</g>
<!-- system_cpu_dcache_port&#45;&gt;system_cpu_dcache_cpu_side -->
<g id="edge2" class="edge">
<title>system_cpu_dcache_port&#45;&gt;system_cpu_dcache_cpu_side</title>
<path fill="none" stroke="black" d="M211.11,-169.64C231.77,-157.39 259.58,-140.24 283,-123.5 300.29,-111.13 318.75,-96.18 333.46,-83.78"/>
<polygon fill="black" stroke="black" points="335.6,-86.56 340.95,-77.42 331.06,-81.23 335.6,-86.56"/>
</g>
<!-- system_cpu_interrupts_int_requestor -->
<g id="node3" class="node">
<title>system_cpu_interrupts_int_requestor</title>
<path fill="#94918b" stroke="#000000" d="M515.38,-206C515.38,-206 444.62,-206 444.62,-206 438.62,-206 432.62,-200 432.62,-194 432.62,-194 432.62,-182 432.62,-182 432.62,-176 438.62,-170 444.62,-170 444.62,-170 515.38,-170 515.38,-170 521.38,-170 527.38,-176 527.38,-182 527.38,-182 527.38,-194 527.38,-194 527.38,-200 521.38,-206 515.38,-206"/>
<text text-anchor="middle" x="480" y="-182.57" font-family="Arial" font-size="14.00" fill="#000000">int_requestor</text>
</g>
<!-- system_cpu_interrupts_int_responder -->
<g id="node4" class="node">
<title>system_cpu_interrupts_int_responder</title>
<path fill="#94918b" stroke="#000000" d="M402.25,-206C402.25,-206 327.75,-206 327.75,-206 321.75,-206 315.75,-200 315.75,-194 315.75,-194 315.75,-182 315.75,-182 315.75,-176 321.75,-170 327.75,-170 327.75,-170 402.25,-170 402.25,-170 408.25,-170 414.25,-176 414.25,-182 414.25,-182 414.25,-194 414.25,-194 414.25,-200 408.25,-206 402.25,-206"/>
<text text-anchor="middle" x="365" y="-182.57" font-family="Arial" font-size="14.00" fill="#000000">int_responder</text>
</g>
<!-- system_cpu_interrupts_pio -->
<g id="node5" class="node">
<title>system_cpu_interrupts_pio</title>
<path fill="#94918b" stroke="#000000" d="M286,-206C286,-206 256,-206 256,-206 250,-206 244,-200 244,-194 244,-194 244,-182 244,-182 244,-176 250,-170 256,-170 256,-170 286,-170 286,-170 292,-170 298,-176 298,-182 298,-182 298,-194 298,-194 298,-200 292,-206 286,-206"/>
<text text-anchor="middle" x="271" y="-182.57" font-family="Arial" font-size="14.00" fill="#000000">pio</text>
</g>
<!-- system_cpu_icache_mem_side -->
<g id="node7" class="node">
<title>system_cpu_icache_mem_side</title>
<path fill="#94918b" stroke="#000000" d="M258.88,-76C258.88,-76 203.12,-76 203.12,-76 197.12,-76 191.12,-70 191.12,-64 191.12,-64 191.12,-52 191.12,-52 191.12,-46 197.12,-40 203.12,-40 203.12,-40 258.88,-40 258.88,-40 264.88,-40 270.88,-46 270.88,-52 270.88,-52 270.88,-64 270.88,-64 270.88,-70 264.88,-76 258.88,-76"/>
<text text-anchor="middle" x="231" y="-52.58" font-family="Arial" font-size="14.00" fill="#000000">mem_side</text>
</g>
<!-- system_cpu_dcache_mem_side -->
<g id="node9" class="node">
<title>system_cpu_dcache_mem_side</title>
<path fill="#94918b" stroke="#000000" d="M482.88,-76C482.88,-76 427.12,-76 427.12,-76 421.12,-76 415.12,-70 415.12,-64 415.12,-64 415.12,-52 415.12,-52 415.12,-46 421.12,-40 427.12,-40 427.12,-40 482.88,-40 482.88,-40 488.88,-40 494.88,-46 494.88,-52 494.88,-52 494.88,-64 494.88,-64 494.88,-70 488.88,-76 482.88,-76"/>
<text text-anchor="middle" x="455" y="-52.58" font-family="Arial" font-size="14.00" fill="#000000">mem_side</text>
</g>
<!-- system_membus_cpu_side_ports -->
<g id="node10" class="node">
<title>system_membus_cpu_side_ports</title>
<path fill="#586070" stroke="#000000" d="M561.75,-353C561.75,-353 478.25,-353 478.25,-353 472.25,-353 466.25,-347 466.25,-341 466.25,-341 466.25,-329 466.25,-329 466.25,-323 472.25,-317 478.25,-317 478.25,-317 561.75,-317 561.75,-317 567.75,-317 573.75,-323 573.75,-329 573.75,-329 573.75,-341 573.75,-341 573.75,-347 567.75,-353 561.75,-353"/>
<text text-anchor="middle" x="520" y="-329.57" font-family="Arial" font-size="14.00" fill="#000000">cpu_side_ports</text>
</g>
<!-- system_membus_cpu_side_ports&#45;&gt;system_cpu_interrupts_int_requestor -->
<g id="edge3" class="edge">
<title>system_membus_cpu_side_ports&#45;&gt;system_cpu_interrupts_int_requestor</title>
<path fill="none" stroke="black" d="M512.18,-305.65C504.02,-276.06 491.48,-230.62 484.72,-206.1"/>
<polygon fill="black" stroke="black" points="508.74,-306.34 514.77,-315.05 515.49,-304.48 508.74,-306.34"/>
</g>
<!-- system_membus_cpu_side_ports&#45;&gt;system_cpu_icache_mem_side -->
<g id="edge4" class="edge">
<title>system_membus_cpu_side_ports&#45;&gt;system_cpu_icache_mem_side</title>
<path fill="none" stroke="black" d="M537.17,-306.52C537.88,-304.69 538.51,-302.84 539,-301 546.98,-271.16 558.91,-185.62 539,-162 473.9,-84.76 407.54,-164 315,-123.5 289.23,-112.22 264.26,-91.39 248.34,-76.44"/>
<polygon fill="black" stroke="black" points="534.15,-304.71 532.93,-315.23 540.45,-307.77 534.15,-304.71"/>
</g>
<!-- system_membus_cpu_side_ports&#45;&gt;system_cpu_dcache_mem_side -->
<g id="edge5" class="edge">
<title>system_membus_cpu_side_ports&#45;&gt;system_cpu_dcache_mem_side</title>
<path fill="none" stroke="black" d="M547.58,-307.73C548.92,-305.56 550.08,-303.32 551,-301 573.75,-243.56 573.63,-219.48 551,-162 536.67,-125.61 502.75,-94.47 479.33,-76.24"/>
<polygon fill="black" stroke="black" points="545.02,-305.31 541.76,-315.39 550.6,-309.54 545.02,-305.31"/>
</g>
<!-- system_membus_mem_side_ports -->
<g id="node11" class="node">
<title>system_membus_mem_side_ports</title>
<path fill="#586070" stroke="#000000" d="M436.62,-353C436.62,-353 343.38,-353 343.38,-353 337.38,-353 331.38,-347 331.38,-341 331.38,-341 331.38,-329 331.38,-329 331.38,-323 337.38,-317 343.38,-317 343.38,-317 436.62,-317 436.62,-317 442.62,-317 448.62,-323 448.62,-329 448.62,-329 448.62,-341 448.62,-341 448.62,-347 442.62,-353 436.62,-353"/>
<text text-anchor="middle" x="390" y="-329.57" font-family="Arial" font-size="14.00" fill="#000000">mem_side_ports</text>
</g>
<!-- system_membus_mem_side_ports&#45;&gt;system_cpu_interrupts_int_responder -->
<g id="edge8" class="edge">
<title>system_membus_mem_side_ports&#45;&gt;system_cpu_interrupts_int_responder</title>
<path fill="none" stroke="black" d="M386.98,-316.51C382.74,-291.88 374.95,-246.71 369.88,-217.28"/>
<polygon fill="black" stroke="black" points="373.35,-216.85 368.21,-207.59 366.46,-218.04 373.35,-216.85"/>
</g>
<!-- system_membus_mem_side_ports&#45;&gt;system_cpu_interrupts_pio -->
<g id="edge7" class="edge">
<title>system_membus_mem_side_ports&#45;&gt;system_cpu_interrupts_pio</title>
<path fill="none" stroke="black" d="M330.98,-318.18C322.09,-313.76 313.67,-308.14 307,-301 285.67,-278.18 276.97,-242.64 273.43,-217.73"/>
<polygon fill="black" stroke="black" points="276.93,-217.47 272.26,-207.96 269.98,-218.31 276.93,-217.47"/>
</g>
<!-- system_mem_ctrl_port -->
<g id="node12" class="node">
<title>system_mem_ctrl_port</title>
<path fill="#94918b" stroke="#000000" d="M627,-206C627,-206 597,-206 597,-206 591,-206 585,-200 585,-194 585,-194 585,-182 585,-182 585,-176 591,-170 597,-170 597,-170 627,-170 627,-170 633,-170 639,-176 639,-182 639,-182 639,-194 639,-194 639,-200 633,-206 627,-206"/>
<text text-anchor="middle" x="612" y="-182.57" font-family="Arial" font-size="14.00" fill="#000000">port</text>
</g>
<!-- system_membus_mem_side_ports&#45;&gt;system_mem_ctrl_port -->
<g id="edge6" class="edge">
<title>system_membus_mem_side_ports&#45;&gt;system_mem_ctrl_port</title>
<path fill="none" stroke="black" d="M431.66,-316.56C439.94,-313.64 448.65,-310.93 457,-309 474.84,-304.88 523.35,-310.49 539,-301 570.6,-281.83 591.14,-243.17 602.14,-216.69"/>
<polygon fill="black" stroke="black" points="605.32,-218.17 605.73,-207.58 598.81,-215.6 605.32,-218.17"/>
</g>
</g>
</svg>
